<?xml version="1.0" encoding="UTF-8"?>
<svg xmlns="http://www.w3.org/2000/svg" xmlns:xlink="http://www.w3.org/1999/xlink" version="1.1" viewBox="0 0 700 500">
  <!-- Generator: Adobe Illustrator 30.6.0, SVG Export Plug-In . SVG Version: 2.1.4 Build 109)  -->
  <defs>
    <style>
      .st0, .st1, .st2, .st3, .st4, .st5, .st6, .st7, .st8, .st9, .st10, .st11, .st12, .st13, .st14 {
        fill: none;
      }

      .st1 {
        stroke-dasharray: 9.17 3.67;
      }

      .st1, .st2, .st3, .st5, .st6, .st7, .st8, .st9, .st15, .st10, .st11, .st12, .st13, .st14 {
        stroke-width: .75px;
      }

      .st1, .st2, .st3, .st5, .st6, .st7, .st8, .st9, .st10, .st11, .st12, .st13, .st14 {
        stroke: #ffce38;
        stroke-linecap: round;
        stroke-linejoin: round;
      }

      .st16 {
        fill: #445dc3;
      }

      .st16, .st17, .st18, .st19, .st20, .st21, .st22, .st23, .st24, .st25, .st26, .st27, .st28 {
        stroke: #444;
      }

      .st17 {
        fill: #b53453;
      }

      .st2 {
        stroke-dasharray: 9.05 3.62;
      }

      .st18 {
        fill: #b32942;
      }

      .st3 {
        stroke-dasharray: 9.86 3.95;
      }

      .st19 {
        fill: #475ec4;
      }

      .st4 {
        stroke: #fff;
        stroke-miterlimit: 2;
      }

      .st20 {
        fill: #b12237;
      }

      .st5 {
        stroke-dasharray: 10.76 4.3;
      }

      .st6 {
        stroke-dasharray: 10.87 4.35;
      }

      .st7 {
        stroke-dasharray: 9.67 3.87;
      }

      .st21 {
        fill: #405bc2;
      }

      .st8 {
        stroke-dasharray: 8.95 3.58;
      }

      .st9 {
        stroke-dasharray: 6.27;
      }

      .st22 {
        fill: #415bc3;
      }

      .st23 {
        fill: #b6385a;
      }

      .st24 {
        fill: #425cc3;
      }

      .st15 {
        stroke: #000;
        stroke-miterlimit: 10;
      }

      .st15, .st29 {
        fill: #ffce38;
      }

      .st30 {
        fill: #fff;
      }

      .st25 {
        fill: #b73e62;
      }

      .st10 {
        stroke-dasharray: 9.3 3.72;
      }

      .st26 {
        fill: #b53656;
      }

      .st11 {
        stroke-dasharray: 7.95 3.18;
      }

      .st27 {
        fill: #5362c7;
      }

      .st31 {
        fill: #e5ecf6;
      }

      .st12 {
        stroke-dasharray: 9.41 3.76;
      }

      .st32 {
        display: none;
      }

      .st28 {
        fill: #3958c1;
      }

      .st33 {
        clip-path: url(#clippath);
      }

      .st14 {
        stroke-dasharray: 10.85 4.34;
      }
    </style>
    <clipPath id="clippath">
      <rect class="st0" x="80" y="133.29" width="408" height="213.42"/>
    </clipPath>
  </defs>
  <g id="Layer_1">
    <rect class="st30" width="700" height="500"/>
    <g class="st33">
      <g>
        <rect class="st30" x="80" y="133.29" width="408" height="213.42"/>
        <path class="st31" d="M222.3,341.19l-.77-4.04,1.36-2.64-.15-2.23,4.74,2.31,2.91,3.44-1.16,1.34-4.39,2.59-2.55-.78ZM218.48,329.78l-1.92-2.26.68-1.15,2.6.75,1.78,1.11-.88,1.26-2.26.29ZM215.74,326.04l-3.76-.18.48-.97,3.28,1.15ZM208.04,322.95l.54,1.55-2.59-.4-1.15-1.98,2.18-1.03,1.02,1.87ZM195.35,317.05l1.43-.02.39,2.05-1.98.48-1.35-.98,1.51-1.52ZM390.56,343.11l-.64-.63,2-1.53.47,1.26-1.83.89ZM150.22,147.93l-1.6-2.4,1.04-1.15.56,3.55ZM150.38,139.79l26.39,4.11,26.37,4.44,26.31,4.77,26.22,5.08,36.35,1.02.12-2.86,1.45.34,1.42,4.66,3.21.55.89.73,2.85-.86,2.99.69,2.12,1.89,2.42.51,1.72,1.11,1.36-.25,2.19-1.33,1.03.98,2.49-.18,1.86.74,3.13-.32,2.85-2.01,1.57-.63,9.77,4.52,9.89,4.61.51,1.32,3.81,2.22,2,1.75,2.18.66,1.35,2.41,4.34,1.99,4.12,13.25-.57,2.98-.41,3.81-1.93,3.43-1.06.55-.09,2.14.78,1.36,2.44,1.1,1.59-.3,5.87-5.04,5.19-2.06,2.17-1.25,4.76-3.65-2.23-4.62,2.59-1.91,8.69-1.71,2.34-2.14.67-2.14,5.07-7.17,2.12-1.81,4.34-.85,13.08-3.37,2.17-3.01,1.78-1.64,1.08-3.56-.42-3.41.32-3.35,2.34-6.88,1.02-.03,1.25,1.62,2.7-2.23,3.22,1.39,2.19,6.83.72,2.88,2.04.77.72,2.32,2.55.95,1.33,1.82-4.07,3.24-.41,1.49-1.36-.57-1.61,1.66-1.45-.14-1.53,4.41-.83.13-1.17,1.81-1.61-.11-.84,1.06-1.64,7.35.59,1.57-.62,3.41.92-.06,2.9,3.1,1.87.09,1.44-1.05.21,1.76-3.77.55-2.59,2.21-1.76-1.79.17,2.97-8.07,3-3.44,2.86.54.62,7.2-2.87,2.06-.49-5.59,4.35-5.09,2.24-1.6-.34,1.84,3.05.25,3.73-.74,2.68-1.78,3.44-1.01.34-4.66-2.45,2.65,4.01,1.44.54.89,2.94-.44,3.24-1.6,4.65-.53,2.69-1.35-.83.21-2.55.95-2.07-1.04-.52-1.48-2.86-.92,1.09-1.43-1.6.19-1.27-.97-4.31-1.47.05.98,5.24,1.79,2.76.94,3.94-.66.47,1.25,3.17-1.15.95.7,1.38,1.31-.76,1.84.36,1.53,3.29-.33,1.79-2.37,1.44-2.32-.6.38,2.12,5.43-1.37.85.9.26,1.77-2.07,2.65-1.97.64-.18,1.75,1.84,1-.79,1.73-3.81,1.19-2.48,2.76-2.9,4.49-1.45.39-2.23,1.45-1.61,2.59-.28,1.53-1.9,2.44-1.87,3.09-2.14,1.58-2.39,2.75-2.33,4.49-1.16,5.8.49,3.19,2.24,6.21,2.71,4.55,1.94,2.43,1.66,2.62.97,3.53,1.38,2,3.39,6.47.54,8.35-.64.18-.4,3.26-.87.83-3.82,1.41-.98-2.34-1.96-2.23-1.65-.72-5.05-6.21-.63.2-3.73-5.35-1.54-2.58.56-5.72-1.77-4.35-1.88-.18-4.09-4.34-3.08-1.72-1.49.26-3.15,2.79-3.67,1.23-.84-1.87-3.75-1.96-2.72-.74-2.83.06-7.82,1.84.49-.91-1.4-2.43-1.36,2.55-4.09-.04-2.95.91-3.59,2.71,1.34,1.15,1.93-.46.25.93-2.17,1.63,1.17,1.3,2.25.42,1.03,1.92-2.02,1.19-.7-1.8-1.56-1.45-2.11-.23-.8,1.39-2.37-.33-2.89,1.72-1.89-.81-1.29-1.67-3.54-2.7-2.16,1.11-1.02,1.38-2.42-.45-3.96-1.29-2.64.29-2.83.72-3.39,1.54-1.11-2.23-1.89.46.54,3.32-3.22,3.28-6.52,3.55-.97.68-1.54-.23-2.13,1.17-1.83,2.5-1.62,4.58.07,3.74.42,2.3,1.85,4.33-1.39.2-4.93-1.06-2.48-.85-3.24-1.7-1.44-.33-2.58-4.94-.15-3.03-.91-1.76-1.74-1.76-3.03-4.46-2.04-5.59-4.03-4.27-1.89-1.23-4.06-.8-3.2.58-1.07,1.7-.8,2.3-2.1,1.66-1.18-.38-4.49-2.79-2.94-2.76-.83-2-.03-1.71-1.15-3.85-3.91-3.55-3-3.56-1.93-2.84-.93-.54-10.2-1.22-.89.14-.48,3.27-18.98-2.82-12.24-7.03-9.49-5.77.17-2.08-15.73-1.86-.18-3.88-.85-2.81-2.8-3.64-1.95-1.92-4.67-3.81-1.8-2.14-5.27-1.74-.62-.92.79-3.68-1.43-4.01-3.16-7.03.38-5.88-.9-.41-1.04-2.23.21-3.02h2.25s-.7-2.14-.7-2.14l-1.92-.51-1.11-2.07-.66-3.39-1.9-3.88.31-2.58.81-2.5.11-1.91-.75-2.48-1.13-1.95.16-1.44,2.89-3.65,1.5-4.54.38-9.98,3.43-5.03,1.26-2.5,3.75-8.94,1.06-3.16,1.53-6.1.97-2.49,1.19-1.71-1.4-.88.23-5.83-.71-2.02.61-3.11,3.98,3.02,4.23,1.74,1.23.17-.08,2.03.65,1.12-.92,2.13-2.21,1.94.76.41,2.28-1.29v-1.83s1.88-3.16,1.88-3.16l-.25-3.57.46-1.1-1.18-2.91.45-.35ZM109.21,341.69l-.02-.85.52.45-.51.4ZM111.74,342.32l-.97.02.49-.67.42-.14.06.79ZM114.64,342.47l1.02-.41-.08.46-.94-.05ZM125.39,342.53l-.38-.32.97-.79.35-.12.37.51-1.31.72ZM128.9,340.88l.62.14-.2.51-.66.31-1.4.35-.29-.32,1.03-.19.91-.81ZM133.72,339.61l-1.7.35-.08-.51.7-.63,1.06-.28.6.04.11.54.26.48-.95.02ZM180.61,331.89l.44-.02.63.36.62.62,1.09,1.74-.53.34-.91-.84-.54.11-.46-.28.22-.39-.72-.45.02-.49-.64-.54-.24-.71.46-.08.56.62ZM180.12,329.68l.83.55-.29.36-.88.39-.77-.16.3,1.35-.45.02-.73-1.96.39-.19.05-.53.92-.04.63.19ZM178.22,332.08l-.44-.09-.43-.57-.64-.4-.05-.74-.23-.51-.48-.22.05-.24-.05-.16.88-.02.28.29.8,1.56.31,1.1ZM151.39,332.25l.1.8-.96.42.23.47-.42.32-.5-.1-.58.81-.5-.29-.68-1.2.25-.63.55-.39.37.04.5-.65.55-.32,1.11.72ZM176.36,327.1l.17-.19.81.1.07.63.72.6.27.55-.6,1.19-.34-.35-.12-.78-.99-1.75ZM175.25,327.29l1.12.22.06.43.43.73-.24.4-.84-.34.19.55-.16.3-.44-.17-.55-.68-.58-.26-.12-.51.91-.78.22.1ZM151,331.49l-.86-.06.75-.72.11-.43.42-.09.57.45-1,.85ZM158.05,326.04l.03-.65.44-.82.26.15-.72,1.32ZM133.47,323.95l-.07.75-.86.41-1.11-.81-.31-.66,1.76-.17.59.48ZM128.18,313.18l.63.43.84-.11.18.48.56.62.48.18-.03.53-1.02.12-.59-.98-.72-.49-.42.18-.4-.58.48-.37ZM161.7,298.43l4.96,25.05.68.11.91-.32.13-.22.81-.23v.75s.58.3.58.3l2.09,1.44.3.62,1.14-.78.03-1.21.97-.86.77.45.73.78,2.38,1.56.66.73,1.42,1.37,1.14,1.34.62.52,1.72.15,1.11.22.33.48-.06.45.62,1.42-.05.71-.47.81-.37-.07-.59-1.08-.37-.27-.59.41-.98-.41-.2-.37.44-1.48-.72.37.26.5-.99-.12.04-.63.37-.39-.34-.39-.78-.44-.29-.43-.86-.07-.8-1.16-.08-.48-.96-.82-.85-.13-1.06-.75.48.97-.66-.17-1.62.89-1.42-.56-1.33-.99-1.5-.45-.84-.35.38-.53-.45-.32-.66.56-.76.03-1.33-.39-1.29-.1-1.46.48-.43.03-.39-.37-.63-.04-.43-.27-.88-.23.03-.55-1.03.06-.47-.6-.92-.13-.85.81.23.89-.12,1.04-.68.36-1.06-.21-1.15,1.71-.55.08-.47.5-.89.26-.21-.55.78-.63-.8-.5.74-2.14.1-.67.95-.72.68.24.25-.27-.45-.61h-.84s-1.02.74-1.02.74l-1.04,1.69-.59.51-.15.98-.25.49-1.5.9-.03.97.67-.1.55.55-.23.41-.78.6-.58,1-.62.29-1.57,1.28-.89.55.21.4-.35.46-1.21.4-.96.94h-.48s-.57.73-.57.73l-.21.61-1.36.34-.33-.16-1.01.68-1.31.48-.4-.06-.61.26-.6.5-1.34.09-.31-.52,1.13-.56.6-.71.88-.57.81-.15.84.88.35-.33-.13-.45.42-.77.79-.58,1.84-1.01.76-.99.86-.62.31-1.93.22-.68.52-.55-.26-.32-1.32.55-.44-.68-.51.31.18.66-.53.14-.68-1.47-.49.33-.75-.65-1.86.99.04-1.27-.23-.67.51-.68-.64-1.82-.42.48-.77.26-.76.03-.56-.21v-.34s-.58-1.01-.58-1.01l-.71-.9.74-.6-.07-.63-.45-.22-.52-.66-.19-.65.77-1.51.79-.85.54-.21.11-.88.62-.75.47-.06.78.74.89-.42.48-.58,1.44.05.54-.68-.1-1.23-.28-.48.59-.61-.33-.86-1.31.6-.52.46-1.12-.45-.82-.11-.97.15-1.2-.57-.34-1.55.48-.45-.95-.44-.76-.65.24-.43,2.51-1.08,1.74-.46.68.19-.38.98.34.37,1,.09.9.25.52-.59.43-.13-.72-1.16.18-.89h-.9s-1.1-.53-1.1-.53l-.03-.72-.21-.62-1.03-1.29-1.16-1.07.32-.19.35-.89,1.99-.09.75-.43.45-.55.41-1.29.55-.68.62-.46.54.15.95-.51.69-.67.6.12,1.07-.18.41-.3.81-.97.93.78.41-.21.45.43.07.46,1.33-.23.68.35-.04.47.6.43.6.06,1.47-.37,1.59.59.61.14.88-.12,1.58.36.88-.58.52-.05,1.83.84.41.05Z"/>
        <path class="st4" d="M309.09,176.55l-1.38.49.22,4.4-.15-.03-1.33.92-1.14.8-.71,1.47,1.17,1.41-.34,2,.07,2.1-.1,1.74,1.65,1.46.67.05,1.85,1.01.64.52.4.82,1.51,1.28,1.93,1.07.19.64.15,1.88.2.9-7.45.18-8.24.27-7.66.22h-6.2s.14-7.33.14-7.33l-.63-7.54-.97-.59-.55-1.23.31-1.05,1.22-.86.11-1.16v-1.41s-.34-1.19-.34-1.19l-.44-1.27-.24-1.59-.04-1.77-.2-.43-.18-2.27-.04-1.08-.09-.9-.23-1.58-.62-1.62-.62-1.41-.08-1.43-.03-1.5.21-1v-.89s-.46-1.11-.46-1.11l-.04-.75,10.77.02.12-2.86,1.45.34,1.11,3.66v.07h0l.3.93,1.17.2.2.14,1.66.18.2.03.89.73,1.45-.43,4.85.96.59.27,1.06.93,2.32.48.2.1,1.62,1.04,1.36-.25,2.19-1.33,1.03.98,2.49-.18,1.86.74,1.12-.11-5.1,2.83-3.59,3.28-3.48,3.44v1.15ZM184.2,148.29l10.32,2.09,25.56,3.38,25.52,3.68-1.11,14.15-.55,9.47-.86,7.11-9.19-.97-9.85-1.04-8.53-1.22-10.77-1.53-.58,3.94-.14.23-.54-.53-.34-1.16-.58-.31-1.02,1.41-1.32.04-3.03-.99-.28.72-1.73-.6-1.21.89-.61-2.17-.45-1.26-1.08-.38-.25-.64.07-2.05-.78-1.14-.19-2.58-.45-1.19-.61-.3-.75.96-1.23.72-.8-.97.33-1.96.69-.38-.06-2.07.94-1.91.87-1.59-1.56-.38-1.16-1.37-.99-2.66-.64-1.34-1.01-.98-.71-1.43.28-1.34-.96-2.33,1.32-8.03ZM281.25,159.19l.04.75.47,1.11v.89s-.22,1-.22,1l.03,1.5.08,1.43.62,1.41.62,1.62.23,1.58.09.9.04,1.08.18,2.27.2.43.04,1.77.24,1.59.44,1.27.35,1.19v1.41s-10.39.27-10.39.27l-8.85-.3-11.12-.56-10.4-.74.55-9.47,1.11-14.15,10.07.76,25.58.99ZM221.52,337.15l1.36-2.64-.15-2.2.14.04,4.61,2.24,2.56,2.97.35.5-.82.94-2.19,1.28-2.33,1.24-.34.4-2.41-.75-.07-.32.06-1.34-.56-1.4-.21-.97ZM218.48,329.78l-.48-.57-.75-.9-.14-.14-.55-.65.55-1.01,2.6.75,1.78,1.11-.75,1.08-.41.07-1.85.26ZM215.74,326.04l-2.59-.11-1.16-.07.48-.97h0l3.28,1.15ZM204.84,322.11l2.05-.96.41.32.74,1.47.47,1.51h0l-.89-.11-1.64-.26-.68-1.15-.27-.54-.07-.11-.14-.18ZM195.35,317.05l.95-.03.48.04.26,1.29.06.54-.34.28-.96.24-1.76-1.02,1.31-1.35ZM184.2,148.29l-1.32,8.03.96,2.33-.28,1.34.71,1.43,1.01.98.64,1.34.99,2.66,1.16,1.37,1.56.38-.87,1.59-.94,1.91.06,2.07-.69.38-.33,1.96.8.97,1.23-.72.75-.96.61.3.45,1.19.19,2.58.78,1.14-.07,2.05.25.64,1.08.38.45,1.26.61,2.17,1.21-.89,1.73.6.28-.72,3.03.99,1.32-.04,1.02-1.41.58.31.34,1.16.54.53.18.18-3.08,19.31-17.03-2.92-16.91-3.56,3.21-13.78.95-2.09-.23-1.09-.9-.72.33-1.23,1.15-1.56,1.5-1.26,1.3-2.31,1.18-1.81.76-.87-.04-1.23-.76-.8-.96-1.77.35-1.33-.23-1.27,2.24-10.64,2.17-9.64,5,1.1ZM179.2,147.19l-2.17,9.64-2.24,10.64.23,1.27-.35,1.33-10.95-2.5-2.06.31-1.3-.66-1.18.33-2.18.33-2.33-.72-1.39.3h-1.16s-.72-.66-.72-.66l-1.83-.84-1.24-.08-2.28.22-1.27-.36-1.14-.63-.09-1.15.21-1.29-.55-1.74-1.38-.86-1.05-1.06-1.58-.51-1.16-.35.07-.24.08-.43.97-2.49,1.19-1.71-1.36-.83.28-5.63-.38-3.91.86-.97,3.32,2.51,1.6.63,1.81,1.32.53,6.29-1.04.9.76.41.37-.19.03.42,1.39-1.25.49-.27.02-.44.27-1.86,1.58-2.68-.25-3.57.46-1.1-1.14-2.86-.04-.05.41-.37,13.84,3.79,15.03,3.63ZM150.22,147.93l-.47-.69.13-1.01.03-.29.3,1.99ZM207.12,247.92l-6.1,44.17-7.6-1.06-5.5-.85-13.88-7.99-8.24-5.13.12-1.87h-.06s.89.2.89.2l.97-1.44-.92-1.26.06-1.21-.08-1.43,1.6-1.54,1.23-3.43,2.18-1.21-.88-1.73-.53-1.63-.26-1.43-.14-1.14.02-.7.71-1.46-.05-1.57.18-1.53.33-1.65-.3-1.18.59-.89,1.31.26,1.03.8.8.45.63-1.11.33-.2,1.14-6.25,9.81,1.69,11.75,1.93,8.87,1.37ZM169.99,257.25l-.02.7.14,1.14.26,1.43.53,1.63.88,1.73-2.18,1.21-1.23,3.43-1.6,1.54.08,1.43-.06,1.21.92,1.26-.97,1.44-.89-.21-1.64-.18-13.12-1.54-.91-.13-.18-3.88-.03-.12-.02-.19-.09-.17-.71-2.33-2.8-3.64-1.95-1.92-.31-.26-.07-.99-2.09-.77-2.2-1.78-.04-.09-.79-1.25-.4-.14-.57-.67-4.76-1.57-1.04-1.41.71-3.36-1.43-4.01-2.37-5.3-.43-1.07-.28-1.59.31-4.96-.9-.41-.5-.98-.43-2.89.1-1.38h2.25s-.7-2.14-.7-2.14l-1.81-.48-1.17-2.09-.15-.31-.56-3.1-1.54-3.12-.34-1.02.2-1.84.13-.61.77-2.36.11-1.91-.75-2.48-.94-1.62-.19-.52.06-.56,1.02-1.82,1.97-2.52,1.5-4.54.07-2.45.23-.77,23.44,6.64-5.97,22.91,8.57,13.11,8.52,12.64,8.33,11.98ZM251.72,228.58l-.72,12.17-.74,11.55-5.97-.41-7.34-.62-10.48-1-9.72-1.1-9.64-1.25,4.27-31.32,5.83.77,5.83.71,11.69,1.2,5.8.52,11.67.87-.49,7.65-.02.25ZM167.18,200.59l16.91,3.56-7.39,38.79-1.14,6.25-.33.2-.63,1.11-.8-.45-1.03-.8-1.31-.26-.59.89.3,1.18-.33,1.65-.18,1.53.05,1.57-.71,1.46-8.33-11.98-8.52-12.64-8.57-13.11,5.97-22.91,16.65,3.98ZM201.02,292.09l6.1-44.17,9.64,1.25,9.72,1.1,10.48,1,7.34.62-.23,3.9-1.52,20.63-1.09,14.77-6.12-.48-11.86-1.1-5.92-.64v.66s.49,1.08.49,1.08l-10.2-1.22-.76.16-.31-.04-.41,3.2-5.34-.71ZM174.67,170.07l.96,1.77.76.8.04,1.23-.76.87-1.18,1.81-1.3,2.31-1.5,1.26-1.15,1.56-.33,1.23.9.72.23,1.09-.95,2.09-3.21,13.78h0l-16.65-3.98-23.44-6.64v-4.95s.08-1.47.08-1.47l4.26-6.33,5.42-13.24,1.18-5.83,1.16.35,1.58.51,1.05,1.06,1.38.86.55,1.74-.21,1.29.09,1.15,1.14.63,1.27.36,2.28-.22,1.24.08,1.83.84.72.64h1.16s1.39-.29,1.39-.29l2.33.72,2.18-.33,1.18-.33,1.3.66,2.06-.31,10.95,2.5ZM184.09,204.16l17.03,2.92-1.27,7.58,11.54,1.94-4.27,31.32-8.87-1.37-11.75-1.93-9.81-1.69,7.39-38.79ZM204.02,187.59l.14-.23.58-3.94,10.77,1.53,8.53,1.22,9.85,1.04,9.19.97-1.2,15.96-1.33,15.68-5.8-.52-11.69-1.2-5.83-.71-5.83-.77-11.54-1.94,1.27-7.58,3.08-19.31-.18-.18ZM327.34,259.84v.66s-.58,1.13-.58,1.13l-1.06.87-.15,1.29-.93,1.12.2,2.29-.66.77-.08.63-1.09.65v1.17s-.7,2.16-.7,2.16l-.75.48-1.07,1.12-.57,1.67-1.3,2.8-.02,1.9.83,2-.22,1.58h-5.52s-7.07.51-7.07.51l-6.3.16.27-4.48h-1.5s-1.26.12-1.26.12l-.31-.5.07-6.93v-7.66s-1.36-8.34-1.36-8.34l7.52-.05,6.89-.19,6.59-.29,7.14.08.58.95-.7.88-.64.92-.3.79,4.07-.26ZM285.06,202.14h6.2s7.66-.22,7.66-.22l8.24-.27,7.45-.18.07.43.8,1.2-.5.61.14,1.67.25.68.44,1.25,1.9.63.65,1.17.35.6.72.36.32.82.95.6.63.62-.19,2.13-.97,1.85-.34.6-1.32.51-1.98.51-.42,1.37.74.58.34,1.22-.69,1.39-.37,1.22-1.42,1.24-.04,1.46-.85-.62-1.21-1.22-6.39.39-6.78.26-5.26.09-5.31.04-.39-1.42.16-1.42-.11-1.35-.65-2.26-.38-.95-.38-.26-.05-1.82-.37-1.31-1.07-1.5.06-.66-.37-1.31-.26-.77v-.73s-.9-.88-.9-.88l.43-1.27.32-1.27.16-.87-.73-1.02v-1.93s.75,0,.75,0ZM250.26,252.31l.74-11.55.72-12.17h0l10.36.56,7.72.3,13.69.27h8.17s1.39,1.05,1.39,1.05h.77s.23,1.12.23,1.12l-.87,1.47.51.76.74,1.63,1.57.75.07,8.43.07,8.47-5.41.05-11.16-.05-11.16-.22-6.15-.23-6.21-.3-5.8-.34ZM327.34,259.84l-4.07.26.3-.79.64-.92.7-.88-.58-.95-7.14-.08-6.59.29-6.89.19-7.52.05v-3.62s-.05,0-.05,0l-.07-8.47-.07-8.43-1.57-.75-.74-1.63-.51-.76.87-1.47-.23-1.13h-.77s-1.39-1.04-1.39-1.04l-.78-1.67-.94-1.02-.99-1.24-.11-.66,5.31-.04,5.26-.09,6.78-.26,6.39-.39,1.21,1.22.85.62-.46,1.99.66,2.31,1.08,1.59,1.18,1.29,1.45.98.57.3.59,1.5.19,1.31.69.29,1.09-.58,1.25,1.2-.25,1.48-.49,1.16-.31,1.41.92,1.15,1.26,1.02h.74s1.7,1.63,1.7,1.63l.64.18.58,1.86-.15,1.22.88,1.88.67-.27,1.18,1.16-.11.81.2,1.23-.93.73-1.33.9-.12.78-.33,1.16-.33,1.96ZM251.72,228.58l.02-.25.49-7.65-11.67-.87,1.33-15.68,11.08.83,8.5.48,11.42.43,1.46,1.06,2.05.67.54-.35,1.32.06,2.07-.04,1.42,1,1.59.71.26.62.48.4.96.11.26.77.37,1.31-.06.66,1.07,1.5.37,1.31.05,1.82.38.26.38.95.65,2.26.11,1.35-.16,1.42.39,1.42.11.66.99,1.24.94,1.02.78,1.67h-8.17s-13.69-.27-13.69-.27l-7.72-.3-10.36-.56ZM244.29,251.9l5.97.41,5.8.34,6.21.3,6.15.23,11.16.22,11.16.05,5.41-.05h.06s0,3.61,0,3.61l1.35,8.34v7.66s-.06,6.93-.06,6.93l-2.84-1.53-1.81-.82-1.43.56-2.28-.06h-1.38s-1.08.66-1.08.66l-1.08.33-.96-.4-2.16.42-.95-1.32-1.03,1.12-1.73-.53-1.78-1.27-1.99.76-.8-1.91-2.99.11-1.9-.49-2.13-.61-.9-1.67-1.68.45-1.05-.66-1.45-.93.32-7.51.33-7.73-6.25-.3-6.24-.36-6.18-.42.23-3.9ZM284.69,182.4l-.11,1.16-1.22.86-.31,1.05.55,1.23.97.59.63,7.54-.14,7.33h-.74s-.01,1.92-.01,1.92l.73,1.02-.16.87-.32,1.27-.43,1.27.9.88v.73s-.96-.11-.96-.11l-.48-.4-.26-.62-1.59-.71-1.42-1-2.07.04-1.32-.06-.54.35-2.05-.67-1.46-1.06-11.42-.43-8.5-.48-11.08-.83,1.2-15.96.86-7.11,10.4.74,11.12.56,8.85.3,10.38-.27ZM300.29,284.8l6.3-.16,7.07-.51h5.52s.51.41.51.41l-.55,1.19,1.05,1.55-.25,1,.92,1.3-.87.85-.23,1.5-1.23,1.3-.47,1.66-.52,1.95-.76.91.34,1.95,5.91-.05,6.33-.38-.1,1.32-.41,1.33.5.95.93.85.34,1.28.18.75.07.1-1.62,1.23,1.34,1.15,1.61-.4.07.03.02,1.2-1.69,1.27,1.17,1.3,1.54.29.61.57-1.26,1.1-.26-.09-.07-.14-1.56-1.45-2.11-.23-.8,1.39-2.37-.33-2.65,1.56h-.19s-4.94-3.61-4.94-3.61l-1.83-1.4-2.16,1.11-.72.93-1.26.27-1.02-.22-4.28-1.38-.57.09-2.2.24-1.26.32h-.13s-.52-.82-.52-.82l.67-1.17.98-1.04-.04-1.59-.51-.49.58-1.9.42-.84.55-2.88-.59-1.07-.85-1.76-.6-1.8-.4-1.23-1.13-.85-.54-8.39ZM218.05,290.7l-.5-1.08v-.66s5.93.64,5.93.64l11.86,1.1,6.12.48,1.09-14.77,1.52-20.63,6.18.42,6.24.36,6.25.3-.33,7.73-.32,7.51,1.45.93,1.05.66,1.68-.45.9,1.67,2.13.61,1.9.49,2.99-.11.8,1.91,1.99-.76,1.78,1.27,1.73.53,1.03-1.12.95,1.32,2.16-.42.96.4,1.08-.33,1.08-.65h1.38s2.28.06,2.28.06l1.43-.56,1.81.82,2.84,1.53.31.5,1.26-.13h1.5s-.27,4.49-.27,4.49l.54,8.39,1.13.85.4,1.23.6,1.8.85,1.76.59,1.07-.55,2.88-.42.84-.58,1.9.51.49.04,1.59-.98,1.04-.67,1.17.52.82-.19.08-1.26.32-1.07.46-2.45.84-.98-1.98-1.89.46.54,3.25-3.98,3.79-5.75,3.11-.06.04-1.22.61-1.22-.19-2.13,1.17-1.83,2.5-1.62,4.58.07,3.74.42,2.3.44,1.08.11,1.26.96,2.06-1.06.13-4.93-1.06-2.48-.85-3.24-1.7-1.3-.33-1.72-3.47-1.37-5.48-3.58-4.18-.48-.78-1.99-4.35-.53-.89-.9-2.39-1.27-1.33-.46-.89-1.1-.78-1.2-1.26-1.89-1.23-4.06-.8-3.2.58-1.07,1.7-.72,2.01-.49.62-1.56,1.26-4.48-2.28-1.03-.63-.77-.65-2.23-2.12-1.12-3.7.02-.22-1.15-3.85-1.96-1.75-2.43-2.61-.92-.79-1.6-1.96-1.93-2.84-.93-.54ZM416.23,198.24l4.36-.92,5.24-1.15,1.14,4.15-.07,1.03-6.08,2.26-3.44,2.86.24.28-.19.12h0l-.11-.24-.43-.87,1.09-1.05-.64-.56-1.09-5.92ZM425.83,196.18l-5.24,1.15-4.36.92-.03-5.57,4.56-1.02,6.7-1.66.42-.9.98-.83.7-.04.48,1.76-.55,2.86.92-.06,2.9,3.1,1.87.09,1.44-1.05.17,1.39-.71.46-3.01.45-2.19,1.84-.21.06-.47-1.12-1.12-.64-.95-1.9-2.31.72ZM429.56,188.22l-.7.04-.98.83-.42.9-6.7,1.66-.61-.67.16-1.09-.35-2.05.04-.5-.26-1.88.22-1.67.23-.77.2-1.96-.17-1.27-.04-.78.96-.62.97-1.19-.05-1-.68-.98.1-2.24h0l.02-.53,1.61-2.3,4.49,13.7v.83s1.33.85,1.33.85l.54.98.4-.15-.36,1.49.07.25-.02.12ZM426.89,201.36l.07-1.03-1.14-4.15,2.31-.72.95,1.9,1.12.64.47,1.12-.29.19-1.67-1.67.14,2.64-1.19.8-.77.28ZM420.75,191.65l-4.56,1.02-1.34-6.37-.77.15-.17-.26.08-1.22-.99-1.85.17-1.72-.59-1.09-.7-2.22-.04-1.03-.22-1.55,5.82-1.49,4.03-1.04h0l-.1,2.24.68.98.05,1-.97,1.19-.96.62.04.78.17,1.27-.2,1.96-.23.77-.22,1.67.26,1.88-.04.5.35,2.05-.16,1.09.61.67ZM337.36,267.17l7.95-.67,8.12-.76,2.74,9.56,2.44,7.6,1.19,2.35.77,1.34-.94,1.5-.08,2.5.54,1.44-.03,1.39-.04,1.32.54.92.42.9-13.53,1.46-3.8.82-.07.59,1.72,1.77-.24,1.55-.3.9-.8.18-1.58-.08.22-.38-1.4-2.43-1.36,2.55h-1.19s-1.14-11.9-1.14-11.9l.08-12.63.35-10.3-.6-1.49ZM344.78,303.66l.3-.9.24-1.55-1.72-1.77.07-.59,3.8-.82,13.53-1.46,1.23,1.97,6.79-.47,10.93-.29.69,1.25.77-.81-.4-2.69.76-.37,1.44.33,1.38-.06,2.01,5.22.07.03.68,1.91,2.71,4.55,1.38,1.75.64.77,1.58,2.52.6,2.06.15.92.19.33.04.21.35.53,3.36,5.97.84,1.46.45,3.82.31,4.64-.13.42-.51.16-.4,3.26-.87.83-2.87,1.04-1.16-.1-.77-1.87-1.96-2.23-1.65-.72-5.05-6.21-.57.19-.98-1.31-2.81-4.03-1.37-2.32-.17-.3.35-3.07.31-2.41-.08-.1-.02-.11-1.77-4.35-1.43-.13-3.74-3.55-.81-.84-.21-.12-.58-.58-.99-.31-1.29-.71-1.49.26-2.92,2.58-.41.27-3.36,1.12-.28-.22-.69-1.6-2.62-1.39v-.04s-.07,0-.07,0l-1.07-.54-2.72-.74h0l-.59-.2-1.04.25h-1.19s-5.17,1.22-5.17,1.22ZM360.99,296.56l-.42-.9-.54-.92.04-1.32.03-1.39-.54-1.44.08-2.5.94-1.5-.77-1.34-1.19-2.35-2.44-7.6-2.74-9.56,4.88-.48,3.39-.48,7.86-.95-.61.75-.8,1.62,1.88,1.07,1.12.32,1.53,2.33.96,1.26,2.52,1.51.56.91,1.73,1.03,1,1.77,2.33,1.27.69,1.7.55.8-.15.61,1.34.67.89,1.33.17,1.48.65.19,1.21.21-.38.76-1,1.96-.06.41-.94,1.98-.07,3.17-.09.23.03.22-.07,2.03-1.38.06-1.44-.33-.76.37.4,2.69-.77.81-.69-1.25-10.93.29-6.79.47-1.23-1.97ZM319.19,284.12l.22-1.58-.83-2,.02-1.9,1.3-2.8.57-1.67,1.07-1.12.75-.48.71-2.16v-1.17s1.08-.65,1.08-.65l.08-.63,6.25-.41,6.96-.39.6,1.49-.35,10.3-.08,12.63,1.14,11.88-2.89-.03-2.95.91-1.97,1.48-.07-.1-.18-.75-.34-1.28-.93-.85-.5-.95.41-1.33.1-1.32-6.33.38-5.91.05-.34-1.95.76-.91.52-1.95.47-1.66,1.23-1.3.23-1.5.87-.85-.92-1.3.25-1-1.05-1.55.55-1.19-.51-.41ZM387.14,284.66l-1.21-.21-.65-.19-.17-1.48-.89-1.33-1.34-.67.15-.61-.55-.8-.69-1.7-2.33-1.27-1-1.77-1.73-1.03-.56-.91-2.52-1.51-.96-1.26-1.53-2.33-1.12-.32-1.88-1.07.8-1.62.61-.75.56-.3,3.25-1.86,5.78-.79,2.97-.09.17.68.56-.61,1.21,1.17.09.91,7.02-1.1,8.36,6.09-.25.31-.98.66-1.61,2.59-.28,1.53-1.9,2.44-.91,1.49-3.43,3.42-.4.58-1.66,1.93-.8,1.57-.15.21ZM314.64,226.19l.04-1.46,1.42-1.24.37-1.22.69-1.39-.34-1.22-.74-.58.42-1.37,1.98-.51,1.32-.51.34-.6.97-1.85.19-2.13-.63-.62-.95-.6-.32-.82-.72-.36-.35-.6,5.85-.36,5.95-.4,4.41-.29v-.04h0v.04s.23,2.03.23,2.03l1.91,4h0l.81,9.08.82,9.12-.53,2.25.55.54.45,1.32.04,1.06-.46.52-.33,1.35-1.09,1.82-.66,2.22-.1,1.58.11.58-.59,1.18.57.69-1.03.67-1.32.77.36,1.69-.75.72-1.55-.61-1.69-.31-.35.79.32,1.19-1.18-1.16-.67.27-.88-1.88.15-1.22-.58-1.86-.64-.18-1.7-1.65h-.74s-1.26-1.01-1.26-1.01l-.92-1.15.31-1.41.49-1.16.25-1.48-1.25-1.2-1.09.58-.69-.29-.19-1.31-.59-1.5-.57-.3-1.45-.98-1.18-1.29-1.08-1.59-.66-2.31.46-1.99ZM336.21,244.93l.1-1.58.66-2.22,1.09-1.82.33-1.35.46-.52-.04-1.06-.45-1.32-.55-.54.53-2.25-.82-9.12-.81-9.08h0l.58.46,1.93-.21,1.47-1.02h0l6.22-.56,5.4-.68.07.62.84,7.1.85,7.65.64,5.44-.35.41.69,1.54-.15.61-1.06.16-.81.79-1.48-.13.05,1.5-.78.67-.64,1.43-.87.35-1.05,2.5-1.31-.56-.49-.9-.91,1.67-.59.94-1.39-.82-1.34.9-.38.81-1.98-1.03-1.22.99-1.64-.48.02.88-.81-.15ZM328.13,255.94l1.33-.9.93-.73-.2-1.23.11-.81-.32-1.19.35-.79,1.69.31,1.55.61.75-.72-.36-1.69,1.32-.77,1.03-.67-.57-.69.59-1.18-.11-.58.81.15-.02-.88,1.64.48,1.22-.99,1.98,1.03.38-.81,1.34-.9,1.39.82.59-.94.91-1.67.49.9,1.31.56,1.05-2.5.87-.35.64-1.43.78-.67-.05-1.5,1.48.13.81-.79,1.06-.16.15-.61-.69-1.54.35-.41,2.08-.07,1.15.63,1.78,1.58,1.35.38,1.03.49,1.37-.4,1.12.33,1.22-.61,1.15-.31.6,1.06,1.22.57.22.74.18,1.63.91,1.12.45,1.12,1.05.88.76.88,1.15-.02-.54.67-1.56,2-1.75,1.17h0l-.08.67-.51.92-1.48,1.09-.1.09-.05.08-.36.75-.93.46-.27.18-1.78.68-4.1.78-5.49.32-1.77.31-3.59.17-3.63.3-3.34.28-3.84.56-.26-.34-1.21.1.1,1.24-8.84.6ZM369.55,263.83l-7.86.95-.09-1.68,1.29-.64.3-.88.81-1.1,1.2-.34,1.46-.56,1.3-.87.54-.77,1.07-.77-.08-.58,1.41-1.27.62.61,2.04-1.81,1.12-.02.78-1.45,1.15-.54-.23-1.11.02-1-2.38.5,2.38-.5,10.45-1.31,12.19-2.17,6.46-1.35,5.77-1.24.62-.13.43.91.09.13-.34,1.75-2.37,1.44-2.32-.6.38,2.12,5.43-1.37.48.57.58,1.56.06.55-2.07,2.65-1.97.64-.18,1.75,1.84,1-.58,1.28-1.34.84-2.68.81-1.48,1.67h0l-.05.05-.95,1.04-2.9,4.49-1.45.39-.5.28-.51.21-8.36-6.09-7.02,1.1-.09-.91-1.21-1.17-.56.61-.17-.68-2.97.09-5.78.79-3.25,1.86-.56.3ZM354.71,232.86l-.64-5.44-.85-7.65-.84-7.1,2.99-.4,2.62-.33,2.13-.35h0l3.75,1.14h2.95s4.01-1.68,4.01-1.68l3.07-2.69,2.75-1.51,1.71,10.43-.75.53.43.93.02,1.84-.33,2.12-.27,1.78.02.81-1.3,2.06-.66.47-.74.34-.74-.07-1.11,1.57v1.44s-.12.79-.12.79l-.46.36-.24-.85-.8-.07-.58,1.82.14,1.75-.62,1.2-1.48.4-1.22-.57-.6-1.06-1.15.31-1.22.61-1.12-.33-1.37.4-1.03-.49-1.35-.38-1.78-1.58-1.15-.63-2.08.07ZM324.16,267.97l.66-.77-.2-2.29.93-1.12.15-1.29,1.06-.87.57-1.13v-.66s.35-1.96.35-1.96l.33-1.16.12-.78,8.84-.6-.1-1.24,1.21-.1.26.34,3.84-.56,3.34-.28,3.63-.3,3.59-.17,1.77-.31,5.49-.32,4.1-.78,1.78-.68.27-.18-.27.18-1.78.68,9.21-.98.74-.15,2.38-.5-.02,1,.23,1.11-1.15.54-.78,1.45-1.12.02-2.04,1.81-.62-.61-1.41,1.27.08.58-1.07.77-.54.77-1.3.87-1.46.56-1.2.34-.81,1.1-.3.88-1.29.64.09,1.68-3.39.48-4.88.48-8.12.76-7.95.67-6.96.39-6.25.41ZM366.14,250.77l.93-.46.36-.75.05-.08.1-.09,1.48-1.09.51-.92.08-.67h0l1.75-1.17,1.56-2,.54-.67.48,1.26.65.49.14.13,1.06.47,1.26-.89.53-.34h0l.83.46,1.78-.87.38-.17v-.41s0-.3,0-.3l.72.18.65-.66.05-.05h0l.86-.03.86-.77v-.41s0-.3,0-.3l-.27-.92h0l.62-1.47,1-1.24.08-1.2.43-.85.34-.69.32-1.8h0l.88.48.98.38.78-.44.2-.78.38-1.07.32-.76.14-.47h0l.5.24.71-1.13.55-.73.42-.52.18-.26.39-.63.07-1.72.03-.45h0l3.1,1.38.32.16.37-1.6h.17s.75.08.75.08l.89.46h0l-.2.71-.07.2,1.35.22,1.27.64h0l.63.58.03.44h0l.02.67-.18.22-.66.69-.31,1.89.85.24.88-.51.45.8.15.19,4.5,1.61.53,2.24-.66.47,1.25,3.17-1.15.95.7,1.38,1.31-.76,1.84.36,1.02,2.28-.62.13-5.77,1.24-6.46,1.35-12.19,2.17-10.45,1.31-2.38.5-.74.15-9.21.98,1.78-.68.27-.18ZM412.54,231.82l-1.94,6.66-.67-.38.47-3.27.63-1.41-.45-.2.04-.35h0l.56-.64,1.36-.41ZM314.6,201.47l-.2-.9-.15-1.88-.19-.64-1.93-1.07-1.51-1.28-.4-.82-.64-.52-1.85-1.01-.67-.05-1.65-1.46.1-1.74-.07-2.1.34-2-1.17-1.41.71-1.47,1.14-.8,1.33-.92.15.03-.22-4.4,1.38-.49,5.31-1.87,3.39,2.44.05.03.34-.16v.04s.87.2.87.2l.49,1.38,4.82,1.05,3.28,1.17,1.52-.08h1.06s.41,1.26.41,1.26l1.31.4.6,1.04-.3.68-.15,1.28,1.23-.03-.3,1.26.8.87h.05s.11.02.11.02l-.04.08-1.91,3,.85.87,3.59-5.41.81-.08-2.31,6.25-.76,5.57-.72,4.51,1.07,3.78v1.94h0v.04s-4.41.29-4.41.29l-5.95.4-5.85.36-.65-1.17-1.9-.63-.44-1.25-.25-.68-.14-1.67.5-.61-.8-1.2-.07-.43ZM373.49,242.88l-1.15.02-.76-.88-1.05-.88-.45-1.12-.91-1.12-.18-1.63-.22-.74,1.48-.4.62-1.2-.14-1.75.58-1.82.8.07.24.85.46-.36.11-.79v-1.44s1.12-1.57,1.12-1.57l.74.07.74-.34.66-.47,1.3-2.06-.02-.81.27-1.78.33-2.12-.02-1.84-.43-.93.75-.53,1.18,7.17,6.12-1.04.64,3.96.81-.88.83-1.07,1.1-.49.67-.98h1.75s.55-.69.55-.69l1.03-.83,1.92.3.92.94.69.91-.37,1.6-.32-.16-3.1-1.38h0l-.03.45-.07,1.72-.39.63-.18.26-.42.52-.55.73-.71,1.13-.5-.24h0l-.14.47-.32.76-.38,1.07-.2.78-.78.44-.98-.38-.88-.48h0l-.32,1.8-.34.69-.43.85-.08,1.2-1,1.24-.62,1.47h0l.27.92v.3s0,.41,0,.41l-.86.77-.86.03h0l-.05.05-.65.66-.72-.18v.3s0,.41,0,.41l-.38.17-1.78.87-.83-.46h0l-.53.34-1.26.89-1.06-.47-.14-.13-.65-.49-.48-1.26ZM413.73,228.04l-3.91.86-2.57-9.75.3-.7.46-.47,1.34.16-.69.97.49,1.46.3.61-.65-.38,2.65,4.01,1.19.45.27.16.82,2.62ZM401.39,227.91h0l-.03-.44-.63-.58.37-.45.93.63-.63.84ZM412.54,231.82h0l-1.36.41-.56.64h0l-.94-.58-1.18-2.25-.83,1-.4-.25-.39-.48-.6-1.78.06-.27-.97-4.31-1.47.05.63,3.3-.05.57.3.61.1.76,1.03,1.61.87,1.65-4.19-.4-.15-.19-.45-.8-.88.51-.85-.24.31-1.89.66-.69.18-.22-.02-.67.63-.84-.93-.63-.37.45h0l-1.27-.64-1.35-.22.07-.2.2-.71h0l-.89-.46-.75-.08h-.17s-.69-.91-.69-.91l-.92-.94-1.92-.3-1.03.83-.55.7h-1.75s-.67.96-.67.96l-1.1.49-.83,1.07-.81.88-.64-3.96,5.45-.99,1.85-.35,4.13-.83,5-.97,5.14-1.12,2.57,9.75,3.91-.86.06.25v.04s-.02.15-.02.15l-1.23,3.34ZM409.15,220.57l-.49-1.46.69-.97,1.03-.98.32-.59,1.12-1.3.56-1.02-2.27-1.58-.24-.81-.69-.07-.28-1.25.48-1.12-.54-.93.75-.88.62-1.93.61-.51,5.1,2.03.17,1.65-.66,1.24-.53-.1.35.52-.41.88.95-.03.84,1.41v4.38s-2.42,5.84-2.42,5.84l-.75.24-.13-.05-.46-1.02-1.39-.1-2.33-1.51ZM416.23,198.24l1.09,5.92.64.56-1.09,1.05.43.87.11.24h0l-.28.25.56-.25.22.21,7.2-2.87.79-.2.57.27-3.95,3.07-2.47,1.4-.51.24-3.45.86v-1.01s-.18-1.65-.18-1.65l-5.1-2.03-1.02-.33-1.07-.32-.62-1.06-.03-.85-.84-.56-1.53-.93-7.66,1.63-8.26,1.63-8.82,1.6-.37-2.12,3.61-4.96.14-.1v-.04s.25-.38.25-.38l-.24-.73h0l-.94-2.23,2.48-1.38,4.45-.55,4.67-.26,3.64-3.39-1-2.94-.78-.95,4.46-6.56,2.09-1.95,2.95-.68,1.56-.33,3.69-.92.22,1.55.04,1.03.7,2.22.59,1.09-.17,1.72.99,1.85-.08,1.22.17.26.77-.15,1.34,6.37.03,5.57ZM378.37,217.28l-1.71-10.43,3.9-2.98h.05s.37,2.11.37,2.11l8.82-1.6,8.26-1.63,7.66-1.63,1.53.93.84.56.03.85.62,1.06,1.07.32,1.02.33-.61.51-.62,1.93-.75.88.54.93-.48,1.12.28,1.25.69.07.24.81,2.27,1.58-.56,1.02-1.12,1.3-.32.59-1.03.98-1.34-.16-.46.47-.3.7-5.14,1.12-5,.97-4.13.83-1.85.35-5.45.99-6.12,1.04-1.18-7.17ZM429.87,186.36l-.4.15-.54-.98-1.32-.85v-.83s-4.5-13.7-4.5-13.7l.08-.1.38-.36,1.49-1.34.26-1.16.73-2.34-.08-.47-.06-6.2.03-.08,2.32-6.76,2.23,1.45.06.02.25-.22,2.63-1.94,2.99,1.31.06.02.68,2.05,1.78,5.98.46,1.67.07.05.13.41,2.21,1.48.35,1.14,2.49.93.81,1.04.57.77-.04.05-4.02,3.22-.41,1.49-1.36-.57-1.61,1.66-1.45-.14-1.53,4.41-.83.13-1.14,1.72-.04.05-1.6-.08-.84,1.06-1.28,5.85ZM333.97,187.51l-.11-.03h-.05s-.8-.87-.8-.87l.3-1.26-1.23.03.15-1.28.3-.68-.6-1.04-1.31-.4-.41-1.27h-1.06s-1.52.1-1.52.1l-3.28-1.17-4.82-1.05-.49-1.38-.87-.2v-.04s-.34.16-.34.16l-.05-.03.05.03,4.02-2.24,4.09-2.82,4.49-2.92-1.34,4.23,3.12.71,4.06,2.63,4.57-2.2,5.2-1.26,1.34,2.02,1.68.13.26-.79h0l-.26.79,1.48.07h0l3.09,2.74-4.69,1.27h-.21s-4.31-.32-4.31-.32l-4.07,1.99-3.67,1.05-2.74,5.26ZM360.12,211.59h0l-2.13.35-2.62.33-2.99.4-.07-.62-5.4.68-6.22.56h0l1.07-1.17,1.96-4.08-.38-5.19-2.38-4.65-.07-3.31,1.11-3.98,1.06-2.77,1.99-2.11.8,2.57.54-3.96,1.13-.93.42-3.03,4.83.98,4.39,2.49.94,3.49-.04,3.59-2.64,3.53.56,1.91,1.1-.07,3.01-3.88,2.17.47,1.63,4.39.72,3.17h0l-2.02,4.66-.22.73-.71.35-.1,2.07-1.44,3.02ZM151.39,332.25l.1.8-.96.42.21.43-.05.05-.41.3-.44-.09-.58.8h-.01s-.21-.11-.21-.11l-.39-.36-.25-.43-.17-.98.06-.11.68-.5.27.04.39-.51.7-.39.11.02.96.62ZM133.47,323.95l-.07.75-.86.41-.41-.3-.37-.32-.63-.85,1.56-.16.47.2.31.26ZM128.81,313.61l.7-.1.29.35.04.11.56.62.48.18-.03.53-.95.12-.21-.22-.46-.76-.18-.12-.06-.11h-.12s-.37-.26-.37-.26l-.38.16h-.06s-.33-.49-.33-.49l.06-.17.37-.28.42.28.04.04h.02s.16.11.16.11ZM173.3,325.14l.03-.93.98-1.11,1.1,1.16,1.23.8,1.33.66.21.13.66.73,1.03,1,.6.62.94,1.1.62.52h.05s.1.09.1.09l3.01.75h0s-.06.47-.06.47l.62,1.42v.13s-.19.83-.19.83l-.15.26-.98-.56-.15-.29-.37-.27-.43.3-.73-.17-.5-.89.33-1.09-.72.37-.29-.52-.08-.05.06-.08-.34-.39-.78-.44-.29-.43-.86-.07-.8-1.16-.08-.48-.96-.82-.85-.13-1.06-.75.48.97-.66-.17-1.62.89-1.42-.56-1.33-.99-1.5-.45-.84-.35.38-.53-.45-.32-.66.56-.76.03-1.33-.39-.97-.08-.16-.04-.05.02h-.12s-1.11.36-1.11.36l-.42.13h-.2s-.25-.07-.25-.07l-.3-.28-.63-.04-.43-.27-.88-.23.03-.55-1.03.06-.47-.6-.92-.13-.85.81.03.11-.18.08.31,1.29-.06.45-.68.36-1.06-.21-.98,1.47-.31.26-.41.06-.32.35-.87.37-.14.04-.1-.66.64-.51-.77-.48.04-.22.67-1.94.1-.67.43-.32.56-.38.64.23.25-.27-.45-.61h-.73s-.04-.06-.04-.06l-.06.05h-.01s-1.02.74-1.02.74l-.43.71-.1.08-.12.26-.39.63-.59.51-.12.83-1.2,1.21-.57.33-.03.97.67-.1.55.54-.34.5-.67.52-.58,1-.62.29-1.51,1.24-.68.35-.03.1-.24.14.12.22-.19.55-.07.09-1.21.4-.84.82-.23.11h-.37s-.57.74-.57.74l-.21.61-1.36.34-.33-.16-.77.52h0l-1.51.62-.05.02-.4-.06-.61.26-.59.5h-.01s-1.34.09-1.34.09l-.31-.52,1.13-.56.53-.63.66-.47.28-.18h0l.91-.05.74.78.35-.33-.13-.45.05-.08.83-1.02.58-.38,1.58-.88.76-.99.86-.62.31-1.93.15-.48.16-.28.43-.46-.12-.16.17-.36-1.65.72-.43-.65-.51.31.08.31-.42.48h-.01s-.05-.08-.05-.08l-.63-1.38-.1.07-.03-.07-.06.12-.29.2-.38-.33-.13-.46-.24.14h-.01s-1.47.78-1.47.78l-.39-.05.04-1.02-.24-.66.02-.02.5-.67-.64-1.82-.42.48h-.01s-1.61.25-1.61.25l-.07-.02-.92-1.42-.02-.03-.03-.06-.71-.9.74-.6-.07-.63-.45-.22-.22-.28-.36-.61-.12-.42.72-1.42.95-.98.44-.17.07-.58.33-.64.21-.25.77-.04.6.56.22-.1.11.08.24-.24.32-.16.48-.58.73.04.24.09.11-.09h.36s.54-.66.54-.66h0s-.08-1.14-.08-1.14v-.13s-.04-.03-.04-.03l-.25-.42.59-.61-.11-.28.17-.17-.24-.02-.15-.39-1.31.6-.2.17-.11.04-.15.19-.06.07-1.06-.43h-.01s-.05-.02-.05-.02l-.82-.11-.9.14-1.32-.8-.29-1.31.48-.45-.95-.44-.46-.39-.22-.38.14-.25.94-.42.78-.34,2.17-.72.36-.1.13.02.58.17-.38.98.18.21-.02.09h.12s.06.08.06.08l1,.09.9.25.19-.23h.07s-.02-.05-.02-.05l.27-.31.43-.13-.72-1.16.18-.89h-.9s-1.1-.53-1.1-.53l-.03-.72-.21-.62-1.03-1.29-.03-.02-.02-.04-.42-.37-.69-.64.32-.19.35-.89,1.78-.07h.01s0,0,0,0h.19s.75-.44.75-.44l.45-.55v-.02s.02,0,.02,0l.41-1.27h0s.97-1,.97-1l.18-.13.54.15.95-.51.42-.41.42-.24.45.1.74-.12.07.02.05-.03.21-.04.41-.3.81-.97.93.78.4-.2h.02s.65,1.22.65,1.22l.33-.42.38-.06.8.06.36.19-.04.47.6.43.6.06,1.41-.36.84.3.81.29.61.14.44-.06h.75s.85.22.85.22l.18.05.02-.02.2.05.88-.58.21-.02,1.43.51h.04s.67.3.67.3l.41.05,4.96,25.05.68.11.76-.26,1.36.43,1.2.94,1.63,1.47.27-.53.74-.5ZM180.12,329.68l.83.55-.04.05-1.24-.74.45.13ZM176.36,327.1l.17-.19.62.08-.79.13h0ZM175.03,327.19l.22.1.19.04-.8.2.39-.33ZM134.3,338.57l.11.54.26.48-.95.02-1.67.33-.07-.22-.04-.24,1.81-.94.54.03Z"/>
        <g>
          <path class="st22" d="M420.75,191.65l-4.56,1.02-1.34-6.37-.77.15-.17-.26.08-1.22-.99-1.85.17-1.72-.59-1.09-.7-2.22-.04-1.03-.22-1.55,5.82-1.49,4.03-1.04h0l-.1,2.24.68.98.05,1-.97,1.19-.96.62.04.78.17,1.27-.2,1.96-.23.77-.22,1.67.26,1.88-.04.5.35,2.05-.16,1.09.61.67Z"/>
          <path class="st28" d="M425.83,196.18l-5.24,1.15-4.36.92-.03-5.57,4.56-1.02,6.7-1.66.42-.9.98-.83.7-.04.48,1.76-.55,2.86.92-.06,2.9,3.1,1.87.09,1.44-1.05.17,1.39-.71.46-3.01.45-2.19,1.84-.21.06-.47-1.12-1.12-.64-.95-1.9-2.31.72Z"/>
          <path class="st19" d="M413.73,228.04l-3.91.86-2.57-9.75.3-.7.46-.47,1.34.16-.69.97.49,1.46.3.61-.65-.38,2.65,4.01,1.19.45.27.16.82,2.62Z"/>
          <path class="st16" d="M416.23,198.24l4.36-.92,5.24-1.15,1.14,4.15-.07,1.03-6.08,2.26-3.44,2.86.24.28-.19.12h0l-.11-.24-.43-.87,1.09-1.05-.64-.56-1.09-5.92Z"/>
          <path class="st24" d="M409.15,220.57l-.49-1.46.69-.97,1.03-.98.32-.59,1.12-1.3.56-1.02-2.27-1.58-.24-.81-.69-.07-.28-1.25.48-1.12-.54-.93.75-.88.62-1.93.61-.51,5.1,2.03.17,1.65-.66,1.24-.53-.1.35.52-.41.88.95-.03.84,1.41v4.38s-2.42,5.84-2.42,5.84l-.75.24-.13-.05-.46-1.02-1.39-.1-2.33-1.51Z"/>
          <path class="st16" d="M426.89,201.36l.07-1.03-1.14-4.15,2.31-.72.95,1.9,1.12.64.47,1.12-.29.19-1.67-1.67.14,2.64-1.19.8-.77.28Z"/>
          <path class="st21" d="M416.23,198.24l1.09,5.92.64.56-1.09,1.05.43.87.11.24h0l-.28.25.56-.25.22.21,7.2-2.87.79-.2.57.27-3.95,3.07-2.47,1.4-.51.24-3.45.86v-1.01s-.18-1.65-.18-1.65l-5.1-2.03-1.02-.33-1.07-.32-.62-1.06-.03-.85-.84-.56-1.53-.93-7.66,1.63-8.26,1.63-8.82,1.6-.37-2.12,3.61-4.96.14-.1v-.04s.25-.38.25-.38l-.24-.73h0l-.94-2.23,2.48-1.38,4.45-.55,4.67-.26,3.64-3.39-1-2.94-.78-.95,4.46-6.56,2.09-1.95,2.95-.68,1.56-.33,3.69-.92.22,1.55.04,1.03.7,2.22.59,1.09-.17,1.72.99,1.85-.08,1.22.17.26.77-.15,1.34,6.37.03,5.57Z"/>
          <path class="st22" d="M314.64,226.19l.04-1.46,1.42-1.24.37-1.22.69-1.39-.34-1.22-.74-.58.42-1.37,1.98-.51,1.32-.51.34-.6.97-1.85.19-2.13-.63-.62-.95-.6-.32-.82-.72-.36-.35-.6,5.85-.36,5.95-.4,4.41-.29v-.04h0v.04s.23,2.03.23,2.03l1.91,4h0l.81,9.08.82,9.12-.53,2.25.55.54.45,1.32.04,1.06-.46.52-.33,1.35-1.09,1.82-.66,2.22-.1,1.58.11.58-.59,1.18.57.69-1.03.67-1.32.77.36,1.69-.75.72-1.55-.61-1.69-.31-.35.79.32,1.19-1.18-1.16-.67.27-.88-1.88.15-1.22-.58-1.86-.64-.18-1.7-1.65h-.74s-1.26-1.01-1.26-1.01l-.92-1.15.31-1.41.49-1.16.25-1.48-1.25-1.2-1.09.58-.69-.29-.19-1.31-.59-1.5-.57-.3-1.45-.98-1.18-1.29-1.08-1.59-.66-2.31.46-1.99Z"/>
          <path class="st27" d="M251.72,228.58l-.72,12.17-.74,11.55-5.97-.41-7.34-.62-10.48-1-9.72-1.1-9.64-1.25,4.27-31.32,5.83.77,5.83.71,11.69,1.2,5.8.52,11.67.87-.49,7.65-.02.25Z"/>
          <path class="st26" d="M369.55,263.83l-7.86.95-.09-1.68,1.29-.64.3-.88.81-1.1,1.2-.34,1.46-.56,1.3-.87.54-.77,1.07-.77-.08-.58,1.41-1.27.62.61,2.04-1.81,1.12-.02.78-1.45,1.15-.54-.23-1.11.02-1-2.38.5,2.38-.5,10.45-1.31,12.19-2.17,6.46-1.35,5.77-1.24.62-.13.43.91.09.13-.34,1.75-2.37,1.44-2.32-.6.38,2.12,5.43-1.37.48.57.58,1.56.06.55-2.07,2.65-1.97.64-.18,1.75,1.84,1-.58,1.28-1.34.84-2.68.81-1.48,1.67h0l-.05.05-.95,1.04-2.9,4.49-1.45.39-.5.28-.51.21-8.36-6.09-7.02,1.1-.09-.91-1.21-1.17-.56.61-.17-.68-2.97.09-5.78.79-3.25,1.86-.56.3Z"/>
          <path class="st20" d="M324.16,267.97l.66-.77-.2-2.29.93-1.12.15-1.29,1.06-.87.57-1.13v-.66s.35-1.96.35-1.96l.33-1.16.12-.78,8.84-.6-.1-1.24,1.21-.1.26.34,3.84-.56,3.34-.28,3.63-.3,3.59-.17,1.77-.31,5.49-.32,4.1-.78,1.78-.68.27-.18-.27.18-1.78.68,9.21-.98.74-.15,2.38-.5-.02,1,.23,1.11-1.15.54-.78,1.45-1.12.02-2.04,1.81-.62-.61-1.41,1.27.08.58-1.07.77-.54.77-1.3.87-1.46.56-1.2.34-.81,1.1-.3.88-1.29.64.09,1.68-3.39.48-4.88.48-8.12.76-7.95.67-6.96.39-6.25.41Z"/>
          <path class="st17" d="M360.99,296.56l-.42-.9-.54-.92.04-1.32.03-1.39-.54-1.44.08-2.5.94-1.5-.77-1.34-1.19-2.35-2.44-7.6-2.74-9.56,4.88-.48,3.39-.48,7.86-.95-.61.75-.8,1.62,1.88,1.07,1.12.32,1.53,2.33.96,1.26,2.52,1.51.56.91,1.73,1.03,1,1.77,2.33,1.27.69,1.7.55.8-.15.61,1.34.67.89,1.33.17,1.48.65.19,1.21.21-.38.76-1,1.96-.06.41-.94,1.98-.07,3.17-.09.23.03.22-.07,2.03-1.38.06-1.44-.33-.76.37.4,2.69-.77.81-.69-1.25-10.93.29-6.79.47-1.23-1.97Z"/>
          <path class="st23" d="M378.37,217.28l-1.71-10.43,3.9-2.98h.05s.37,2.11.37,2.11l8.82-1.6,8.26-1.63,7.66-1.63,1.53.93.84.56.03.85.62,1.06,1.07.32,1.02.33-.61.51-.62,1.93-.75.88.54.93-.48,1.12.28,1.25.69.07.24.81,2.27,1.58-.56,1.02-1.12,1.3-.32.59-1.03.98-1.34-.16-.46.47-.3.7-5.14,1.12-5,.97-4.13.83-1.85.35-5.45.99-6.12,1.04-1.18-7.17Z"/>
          <path class="st25" d="M184.09,204.16l17.03,2.92-1.27,7.58,11.54,1.94-4.27,31.32-8.87-1.37-11.75-1.93-9.81-1.69,7.39-38.79Z"/>
          <path class="st18" d="M336.21,244.93l.1-1.58.66-2.22,1.09-1.82.33-1.35.46-.52-.04-1.06-.45-1.32-.55-.54.53-2.25-.82-9.12-.81-9.08h0l.58.46,1.93-.21,1.47-1.02h0l6.22-.56,5.4-.68.07.62.84,7.1.85,7.65.64,5.44-.35.41.69,1.54-.15.61-1.06.16-.81.79-1.48-.13.05,1.5-.78.67-.64,1.43-.87.35-1.05,2.5-1.31-.56-.49-.9-.91,1.67-.59.94-1.39-.82-1.34.9-.38.81-1.98-1.03-1.22.99-1.64-.48.02.88-.81-.15Z"/>
        </g>
        <path class="st30" d="M382.13,194.18l2.59-1.91,8.69-1.71,2.34-2.14.67-2.14.33-.44.06.02.86,1.04,1,2.94-3.64,3.39-4.67.26-4.45.55-2.72,1.5-.34.17-.7-1.54ZM384.61,198.38l-.25.38-.49-.91.5-.2.24.73ZM384.21,198.9l-3.66,4.97-3.9,2.98-2.75,1.51-3.07,2.69-4.01,1.66h-2.95s-3.75-1.13-3.75-1.13l1.44-3.02v.07s.79,1.36.79,1.36l2.44,1.1,1.59-.3,5.87-5.04,5.19-2.06,2.17-1.25,4.61-3.55ZM349.09,175.43l-1.68-.13-1.34-2.02-5.2,1.26-4.57,2.2-4.06-2.63-3.12-.71,1.34-4.23-4.49,2.92-4.09,2.82-4.02,2.24-3.44-2.48-5.31,1.87v-1.15s3.48-3.44,3.48-3.44l3.59-3.28,5.1-2.83,2-.21,2.85-2.01,1.57-.63,9.77,4.52,9.89,4.61.51,1.32,1.57.9-.32,1.09ZM394.74,324.99h-1.65s-.17-1.89-.17-1.89h1.58s.24,1.89.24,1.89ZM193.73,211.13v1.59s-.55,2.24-.55,2.24l-2.57-2.67-.11-.32-.32-3.76,1.39,1.76.93.98,1.19-.53.04.71ZM347.93,180.7l.83-1.19h.21s4.69-1.26,4.69-1.26l-3.09-2.74.26-.36.82.52,2,1.75,2.18.66,1.35,2.41,4.34,1.99,4.12,13.25-.57,2.98-.22,1.83-.24.22-.72-3.17-1.63-4.39-2.17-.47-3.01,3.88-1.1.07-.56-1.91,2.64-3.53.04-3.59-.94-3.49-4.39-2.49-4.83-.98ZM348.76,179.51l-.83,1.19-.42,3.03-1.13.93-.54,3.96-.8-2.57-1.99,2.11-1.06,2.77-1.11,3.98.07,3.31,2.38,4.65.38,5.19-1.96,4.08-1.07,1.17-1.47,1.02-1.93.21-.58-.46-1.91-4-.23-2.03v-1.97s-1.08-3.78-1.08-3.78l.72-4.51.76-5.57,2.31-6.25-.81.08-3.59,5.41-.85-.87,1.91-3,2.79-5.34,3.67-1.05,4.07-1.99,4.31.3Z"/>
      </g>
    </g>
  </g>
  <g id="annotations" class="st32">
    <polygon class="st15" points="401.44 232.27 398.15 234.66 399.41 230.79 396.12 228.4 400.19 228.4 401.44 224.53 402.7 228.4 406.77 228.4 403.48 230.79 404.73 234.66 401.44 232.27"/>
    <g id="Washington_to_DC">
      <g>
        <path class="st13" d="M369.6,291.35c.98-1.53,1.92-2.9,2.83-4.13"/>
        <path class="st14" d="M375.12,283.82c10.54-12.31,16.01-7.22,22.09-35.81"/>
        <path class="st13" d="M397.65,245.89c.31-1.54.63-3.18.94-4.91"/>
        <polygon class="st29" points="400.82 243.56 398.33 241.87 395.37 242.49 399.37 236.56 400.82 243.56"/>
      </g>
    </g>
    <g id="Washington_to_DC1" data-name="Washington_to_DC">
      <path class="st0" d="M405.46,236.56"/>
    </g>
    <g id="Washington_to_DC2" data-name="Washington_to_DC">
      <path class="st0" d="M383.87,275.94"/>
    </g>
    <g id="Washington_to_DC3" data-name="Washington_to_DC">
      <g>
        <path class="st13" d="M232.25,234.66c1.29-.58,2.84-1.2,4.64-1.84"/>
        <path class="st7" d="M240.56,231.59c31.39-9.98,113.12-23.77,144.66-8.33"/>
        <path class="st13" d="M386.94,224.16c1.52.85,2.91,1.78,4.14,2.79"/>
        <polygon class="st29" points="387.58 227.51 390.36 226.35 391.46 223.54 394.23 230.13 387.58 227.51"/>
      </g>
    </g>
    <g id="Washington_to_DC4" data-name="Washington_to_DC">
      <g>
        <path class="st13" d="M194.23,232.95c1.19,1.19,2.38,2.36,3.56,3.51"/>
        <path class="st3" d="M200.64,239.19c74.6,70.7,133.47,56.9,193.17,5.03"/>
        <path class="st13" d="M395.3,242.92c1.24-1.09,2.49-2.2,3.73-3.33"/>
        <polygon class="st29" points="399.25 243.01 398.29 240.15 395.57 238.85 402.34 236.56 399.25 243.01"/>
      </g>
    </g>
    <g id="Washington_to_DC5" data-name="Washington_to_DC">
      <path class="st0" d="M409.59,232.95"/>
    </g>
    <g id="Washington_to_DC6" data-name="Washington_to_DC">
      <path class="st0" d="M434.86,167.27"/>
    </g>
    <g id="Washington_to_DC7" data-name="Washington_to_DC">
      <g>
        <path class="st13" d="M417.79,182.58c.86,1.28,1.77,2.69,2.7,4.2"/>
        <path class="st2" d="M422.34,189.89c8.55,14.83,16.62,36.21-3.8,40.24"/>
        <path class="st13" d="M416.76,230.43c-1.52.21-3.18.33-4.99.36"/>
        <polygon class="st29" points="413.91 227.99 412.7 230.75 413.84 233.54 407.29 230.69 413.91 227.99"/>
      </g>
    </g>
    <g id="Washington_to_DC8" data-name="Washington_to_DC">
      <path class="st0" d="M397.84,223.12"/>
    </g>
    <g id="Washington_to_DC9" data-name="Washington_to_DC">
      <path class="st0" d="M166,155.61"/>
    </g>
    <g id="Washington_to_DC10" data-name="Washington_to_DC">
      <g>
        <path class="st13" d="M406.77,191.1c-1.26,1.35-2.26,2.67-3.03,3.97"/>
        <path class="st5" d="M402,199c-1.35,4.58-.33,8.81.73,12.72"/>
        <path class="st13" d="M403.28,213.79c.44,1.7.81,3.33.89,4.91"/>
        <polygon class="st29" points="401.55 216.22 404.14 217.76 407.05 216.96 403.43 223.12 401.55 216.22"/>
      </g>
    </g>
    <g id="Washington_to_DC11" data-name="Washington_to_DC">
      <g>
        <path class="st13" d="M421.48,199.61c.75,1.54,1.36,3.1,1.83,4.65"/>
        <path class="st11" d="M424.07,207.34c1.55,8.06-.46,15.55-4.91,19.12"/>
        <path class="st13" d="M417.85,227.36c-1.41.81-3.01,1.26-4.78,1.29"/>
        <polygon class="st29" points="415.57 226.05 414.01 228.64 414.79 231.55 408.66 227.88 415.57 226.05"/>
      </g>
    </g>
    <g id="Washington_to_DC12" data-name="Washington_to_DC">
      <g>
        <path class="st13" d="M427.9,198.87c.77,1.59,1.29,3.17,1.59,4.73"/>
        <path class="st8" d="M429.8,207.16c-.16,8.06-6.07,14.94-13.24,17.49"/>
        <path class="st13" d="M414.84,225.17c-1.62.41-3.29.59-4.96.51"/>
        <polygon class="st29" points="412.43 223.19 410.81 225.74 411.51 228.67 405.48 224.84 412.43 223.19"/>
      </g>
    </g>
    <g id="Washington_to_DC13" data-name="Washington_to_DC">
      <g>
        <path class="st9" d="M396.12,213.59c1.16,5.58,1.66,4.28,2.86,5.17"/>
        <polygon class="st29" points="395.21 218.9 398.15 218.2 399.69 215.61 401.35 222.56 395.21 218.9"/>
      </g>
    </g>
    <g id="Washington_to_DC14" data-name="Washington_to_DC">
      <g>
        <path class="st13" d="M427.69,192.55c1.18,1.18,2.27,2.44,3.28,3.77"/>
        <path class="st1" d="M433.05,199.34c12.89,20.73,7.6,53.15-17.21,39.78"/>
        <path class="st13" d="M414.24,238.21c-1.33-.8-2.72-1.72-4.16-2.78"/>
        <polygon class="st29" points="413.48 234.48 410.85 235.96 410.08 238.88 406.57 232.66 413.48 234.48"/>
      </g>
    </g>
    <g id="Washington_to_DC15" data-name="Washington_to_DC">
      <g>
        <path class="st13" d="M414.38,216.17c.43,1.73.9,3.34,1.34,4.82"/>
        <path class="st13" d="M417.25,229.01c-.2,1.64-1.11,2.78-3.21,3.4"/>
        <polygon class="st29" points="415.68 229.21 414.93 232.13 416.51 234.7 409.59 232.95 415.68 229.21"/>
      </g>
    </g>
    <g id="Washington_to_DC16" data-name="Washington_to_DC">
      <g>
        <path class="st13" d="M349.09,259.83c.87-1.54,1.72-2.97,2.56-4.3"/>
        <path class="st12" d="M353.72,252.39c8.94-12.88,16.55-14.59,31.46-18.54"/>
        <path class="st13" d="M386.99,233.37c1.53-.41,3.14-.85,4.82-1.32"/>
        <polygon class="st29" points="390.51 235.22 390.91 232.23 389.03 229.87 396.12 230.8 390.51 235.22"/>
      </g>
    </g>
    <g id="Washington_to_DC17" data-name="Washington_to_DC">
      <g>
        <path class="st13" d="M393.34,254.87c.22-1.98.39-3.62.52-4.97"/>
        <path class="st13" d="M394.3,243.93c.03-1.91-.27-.19.83-4.9"/>
        <polygon class="st29" points="397.35 241.7 394.91 239.93 391.93 240.45 396.12 234.66 397.35 241.7"/>
      </g>
    </g>
    <g id="Washington_to_DC18" data-name="Washington_to_DC">
      <g>
        <path class="st13" d="M328.31,227.21c.95-1.28,2.05-2.54,3.29-3.76"/>
        <path class="st6" d="M334.85,220.57c13.7-10.96,37.75-17,54.6-4.29"/>
        <path class="st13" d="M391.15,217.64c1.23,1.06,2.42,2.22,3.56,3.51"/>
        <polygon class="st29" points="391.18 221.3 394.08 220.47 395.5 217.8 397.49 224.66 391.18 221.3"/>
      </g>
    </g>
    <g id="Washington_to_DC19" data-name="Washington_to_DC">
      <g>
        <path class="st13" d="M347.45,227.65c.94-1.49,1.88-2.86,2.82-4.13"/>
        <path class="st10" d="M352.62,220.64c8.23-9.17,17.54-9.89,33.67-.69"/>
        <path class="st13" d="M387.9,220.89c1.37.81,2.78,1.69,4.25,2.64"/>
        <polygon class="st29" points="388.85 224.7 391.37 223.04 391.92 220.07 395.88 226.02 388.85 224.7"/>
      </g>
    </g>
  </g>
</svg>