<?xml version="1.0" encoding="UTF-8"?>
<svg id="Layer_1" xmlns="http://www.w3.org/2000/svg" xmlns:xlink="http://www.w3.org/1999/xlink" version="1.1" viewBox="0 0 1200.98 857.84">
  <!-- Generator: Adobe Illustrator 30.6.0, SVG Export Plug-In . SVG Version: 2.1.4 Build 109)  -->
  <defs>
    <style>
      .st0, .st1, .st2, .st3, .st4, .st5, .st6, .st7, .st8, .st9, .st10, .st11, .st12, .st13, .st14 {
        fill: none;
      }

      .st1 {
        stroke-dasharray: 9.05 3.62;
      }

      .st1, .st2, .st4, .st15, .st5, .st6, .st7, .st8, .st9, .st10, .st11, .st12, .st13, .st14 {
        stroke-width: .75px;
      }

      .st1, .st2, .st4, .st5, .st6, .st7, .st8, .st9, .st10, .st11, .st12, .st13, .st14 {
        stroke: #ffce38;
        stroke-linecap: round;
        stroke-linejoin: round;
      }

      .st16 {
        fill: #445dc3;
      }

      .st16, .st17, .st18, .st19, .st20, .st21, .st22, .st23, .st24, .st25, .st26, .st27, .st28 {
        stroke: #444;
      }

      .st17 {
        fill: #b53453;
      }

      .st18 {
        fill: #b32942;
      }

      .st2 {
        stroke-dasharray: 10.76 4.3;
      }

      .st19 {
        fill: #475ec4;
      }

      .st3 {
        stroke: #fff;
        stroke-miterlimit: 2;
      }

      .st20 {
        fill: #b12237;
      }

      .st21 {
        fill: #405bc2;
      }

      .st4 {
        stroke-dasharray: 9.3 3.72;
      }

      .st22 {
        fill: #415bc3;
      }

      .st23 {
        fill: #b6385a;
      }

      .st24 {
        fill: #425cc3;
      }

      .st15 {
        stroke: #000;
        stroke-miterlimit: 10;
      }

      .st15, .st29 {
        fill: #ffce38;
      }

      .st5 {
        stroke-dasharray: 8.95 3.58;
      }

      .st30 {
        fill: #fff;
      }

      .st6 {
        stroke-dasharray: 9.67 3.87;
      }

      .st7 {
        stroke-dasharray: 10.87 4.35;
      }

      .st8 {
        stroke-dasharray: 10.85 4.34;
      }

      .st9 {
        stroke-dasharray: 6.27;
      }

      .st25 {
        fill: #b73e62;
      }

      .st10 {
        stroke-dasharray: 9.17 3.67;
      }

      .st26 {
        fill: #b53656;
      }

      .st11 {
        stroke-dasharray: 9.86 3.95;
      }

      .st12 {
        stroke-dasharray: 9.41 3.76;
      }

      .st27 {
        fill: #5362c7;
      }

      .st31 {
        fill: #e5ecf6;
      }

      .st28 {
        fill: #3958c1;
      }

      .st14 {
        stroke-dasharray: 7.95 3.18;
      }

      .st32 {
        clip-path: url(#clippath);
      }
    </style>
    <clipPath id="clippath">
      <rect class="st0" x="137.25" y="228.68" width="700" height="366.16"/>
    </clipPath>
  </defs>
  <g id="Layer_11" data-name="Layer_1">
    <rect class="st30" x="137.25" y="161.76" width="700" height="500"/>
    <g class="st32">
      <g>
        <rect class="st30" width="1200.98" height="857.84"/>
        <path class="st31" d="M381.4,585.38l-1.32-6.93,2.33-4.53-.26-3.83,8.13,3.96,4.99,5.9-1.99,2.3-7.53,4.44-4.38-1.34.02.02ZM374.84,565.8l-3.29-3.88,1.17-1.97,4.46,1.29,3.05,1.9-1.51,2.16-3.88.5ZM370.14,559.38l-6.45-.31.82-1.66,5.63,1.97ZM356.93,554.08l.93,2.66-4.44-.69-1.97-3.4,3.74-1.77,1.75,3.21v-.02ZM335.16,543.96l2.45-.03.67,3.52-3.4.82-2.32-1.68,2.59-2.61v-.02ZM670.08,588.67l-1.1-1.08,3.43-2.62.81,2.16-3.14,1.53v.02ZM257.73,253.8l-2.75-4.12,1.78-1.97.96,6.09h0ZM258,239.84l45.28,7.05,45.24,7.62,45.14,8.18,44.99,8.72,62.37,1.75.21-4.91,2.49.58,2.44,8,5.51.94,1.53,1.25,4.89-1.48,5.13,1.18,3.64,3.24,4.15.87,2.95,1.9,2.33-.43,3.76-2.28,1.77,1.68,4.27-.31,3.19,1.27,5.37-.55,4.89-3.45,2.69-1.08,16.76,7.75,16.97,7.91.88,2.26,6.54,3.81,3.43,3,3.74,1.13,2.32,4.13,7.45,3.41,7.07,22.73-.98,5.11-.7,6.54-3.31,5.88-1.82.94-.15,3.67,1.34,2.33,4.19,1.89,2.73-.51,10.07-8.65,8.9-3.53,3.72-2.14,8.17-6.26-3.83-7.93,4.44-3.28,14.91-2.93,4.01-3.67,1.15-3.67,8.7-12.3,3.64-3.11,7.45-1.46,22.44-5.78,3.72-5.16,3.05-2.81,1.85-6.11-.72-5.85.55-5.75,4.01-11.8,1.75-.05,2.14,2.78,4.63-3.83,5.52,2.38,3.76,11.72,1.24,4.94,3.5,1.32,1.24,3.98,4.37,1.63,2.28,3.12-6.98,5.56-.7,2.56-2.33-.98-2.76,2.85-2.49-.24-2.62,7.57-1.42.22-2.01,3.11-2.76-.19-1.44,1.82-2.81,12.61,1.01,2.69-1.06,5.85,1.58-.1,4.98,5.32,3.21.15,2.47-1.8.36,3.02-6.47.94-4.44,3.79-3.02-3.07.29,5.1-13.85,5.15-5.9,4.91.93,1.06,12.35-4.92,3.53-.84-9.59,7.46-8.73,3.84-2.75-.58,3.16,5.23.43,6.4-1.27,4.6-3.05,5.9-1.73.58-8-4.2,4.55,6.88,2.47.93,1.53,5.04-.75,5.56-2.75,7.98-.91,4.62-2.32-1.42.36-4.38,1.63-3.55-1.78-.89-2.54-4.91-1.58,1.87-2.45-2.75.33-2.18-1.66-7.39-2.52.09,1.68,8.99,3.07,4.74,1.61,6.76-1.13.81,2.14,5.44-1.97,1.63,1.2,2.37,2.25-1.3,3.16.62,2.62,5.64-.57,3.07-4.07,2.47-3.98-1.03.65,3.64,9.32-2.35,1.46,1.54.45,3.04-3.55,4.55-3.38,1.1-.31,3,3.16,1.72-1.36,2.97-6.54,2.04-4.25,4.74-4.98,7.7-2.49.67-3.83,2.49-2.76,4.44-.48,2.62-3.26,4.19-3.21,5.3-3.67,2.71-4.1,4.72-4,7.7-1.99,9.95.84,5.47,3.84,10.65,4.65,7.81,3.33,4.17,2.85,4.5,1.66,6.06,2.37,3.43,5.82,11.1.93,14.33-1.1.31-.69,5.59-1.49,1.42-6.55,2.42-1.68-4.01-3.36-3.83-2.83-1.24-8.66-10.65-1.08.34-6.4-9.18-2.64-4.43.96-9.81-3.04-7.46-3.23-.31-7.02-7.45-5.28-2.95-2.56.45-5.4,4.79-6.3,2.11-1.44-3.21-6.43-3.36-4.67-1.27-4.86.1-13.42,3.16.84-1.56-2.4-4.17-2.33,4.37-7.02-.07-5.06,1.56-6.16,4.65,2.3,1.97,3.31-.79.43,1.6-3.72,2.8,2.01,2.23,3.86.72,1.77,3.29-3.47,2.04-1.2-3.09-2.68-2.49-3.62-.39-1.37,2.38-4.07-.57-4.96,2.95-3.24-1.39-2.21-2.87-6.07-4.63-3.71,1.9-1.75,2.37-4.15-.77-6.79-2.21-4.53.5-4.86,1.24-5.82,2.64-1.9-3.83-3.24.79.93,5.7-5.52,5.63-11.19,6.09-1.66,1.17-2.64-.39-3.65,2.01-3.14,4.29-2.78,7.86.12,6.42.72,3.95,3.17,7.43-2.38.34-8.46-1.82-4.25-1.46-5.56-2.92-2.47-.57-4.43-8.48-.26-5.2-1.56-3.02-2.99-3.02-5.2-7.65-3.5-9.59-6.91-7.33-3.24-2.11-6.97-1.37-5.49,1-1.84,2.92-1.37,3.95-3.6,2.85-2.02-.65-7.7-4.79-5.04-4.74-1.42-3.43-.05-2.93-1.97-6.61-6.71-6.09-5.15-6.11-3.31-4.87-1.6-.93-17.5-2.09-1.53.24-.82,5.61-32.56-4.84-21-12.06-16.28-9.9.29-3.57-26.99-3.19-.31-6.66-1.46-4.82-4.8-6.25-3.35-3.29-8.01-6.54-3.09-3.67-9.04-2.99-1.06-1.58,1.36-6.31-2.45-6.88-5.42-12.06.65-10.09-1.54-.7-1.78-3.83.36-5.18h3.86l-1.2-3.67-3.29-.87-1.9-3.55-1.13-5.82-3.26-6.66.53-4.43,1.39-4.29.19-3.28-1.29-4.25-1.94-3.35.27-2.47,4.96-6.26,2.57-7.79.65-17.12,5.88-8.63,2.16-4.29,6.43-15.34,1.82-5.42,2.62-10.47,1.66-4.27,2.04-2.93-2.4-1.51.39-10-1.22-3.47,1.05-5.34,6.83,5.18,7.26,2.99,2.11.29-.14,3.48,1.12,1.92-1.58,3.65-3.79,3.33,1.3.7,3.91-2.21v-3.14l3.23-5.42-.43-6.13.79-1.89-2.02-4.99.77-.6.03.1ZM187.37,586.23l-.03-1.46.89.77-.88.69h.02ZM191.71,587.31l-1.66.03.84-1.15.72-.24.1,1.36h0ZM196.69,587.57l1.75-.7-.14.79s-1.61-.09-1.61-.09ZM215.13,587.67l-.65-.55,1.66-1.36.6-.21.63.88s-2.25,1.24-2.25,1.24ZM221.15,584.84l1.06.24-.34.88-1.13.53-2.4.6-.5-.55,1.77-.33,1.56-1.39-.02.02ZM229.42,582.66l-2.92.6-.14-.88,1.2-1.08,1.82-.48,1.03.07.19.93.45.82-1.63.03v-.02ZM309.87,569.42l.75-.03,1.08.62,1.06,1.06,1.87,2.99-.91.58-1.56-1.44-.93.19-.79-.48.38-.67-1.24-.77.03-.84-1.1-.93-.41-1.22.79-.14.96,1.06v.02ZM309.03,565.63l1.42.94-.5.62-1.51.67-1.32-.27.51,2.32-.77.03-1.25-3.36.67-.33.09-.91,1.58-.07,1.08.33v.03ZM305.77,569.75l-.75-.15-.74-.98-1.1-.69-.09-1.27-.39-.88-.82-.38.09-.41-.09-.27,1.51-.03.48.5,1.37,2.68.53,1.89h0ZM259.74,570.04l.17,1.37-1.65.72.39.81-.72.55-.86-.17-1,1.39-.86-.5-1.17-2.06.43-1.08.94-.67.63.07.86-1.12.94-.55,1.9,1.24h-.03ZM302.58,561.2l.29-.33,1.39.17.12,1.08,1.24,1.03.46.94-1.03,2.04-.58-.6-.21-1.34-1.7-3h.02ZM300.67,561.53l1.92.38.1.74.74,1.25-.41.69-1.44-.58.33.94-.27.51-.75-.29-.94-1.17-1-.45-.21-.88,1.56-1.34.38.17v.02ZM259.07,568.73l-1.48-.1,1.29-1.24.19-.74.72-.15.98.77-1.72,1.46h.02ZM271.16,559.38l.05-1.12.75-1.41.45.26-1.24,2.26h-.02ZM228.99,555.8l-.12,1.29-1.48.7-1.9-1.39-.53-1.13,3.02-.29,1.01.82h0ZM219.92,537.32l1.08.74,1.44-.19.31.82.96,1.06.82.31-.05.91-1.75.21-1.01-1.68-1.24-.84-.72.31-.69-1,.82-.63.02-.02ZM277.43,512.01l8.51,42.98,1.17.19,1.56-.55.22-.38,1.39-.39v1.29l1,.51,3.59,2.47.51,1.06,1.96-1.34.05-2.08,1.66-1.48,1.32.77,1.25,1.34,4.08,2.68,1.13,1.25,2.44,2.35,1.96,2.3,1.06.89,2.95.26,1.9.38.57.82-.1.77,1.06,2.44-.09,1.22-.81,1.39-.63-.12-1.01-1.85-.63-.46-1.01.7-1.68-.7-.34-.63.75-2.54-1.24.63.45.86-1.7-.21.07-1.08.63-.67-.58-.67-1.34-.75-.5-.74-1.48-.12-1.37-1.99-.14-.82-1.65-1.41-1.46-.22-1.82-1.29.82,1.66-1.13-.29-2.78,1.53-2.44-.96-2.28-1.7-2.57-.77-1.44-.6.65-.91-.77-.55-1.13.96-1.3.05-2.28-.67-2.21-.17-2.5.82-.74.05-.67-.63-1.08-.07-.74-.46-1.51-.39.05-.94-1.77.1-.81-1.03-1.58-.22-1.46,1.39.39,1.53-.21,1.78-1.17.62-1.82-.36-1.97,2.93-.94.14-.81.86-1.53.45-.36-.94,1.34-1.08-1.37-.86,1.27-3.67.17-1.15,1.63-1.24,1.17.41.43-.46-.77-1.05h-1.44l-1.75,1.27-1.78,2.9-1.01.88-.26,1.68-.43.84-2.57,1.54-.05,1.66,1.15-.17.94.94-.39.7-1.34,1.03-1,1.72-1.06.5-2.69,2.2-1.53.94.36.69-.6.79-2.08.69-1.65,1.61h-.82l-.98,1.25-.36,1.05-2.33.58-.57-.27-1.73,1.17-2.25.82-.69-.1-1.05.45-1.03.86-2.3.15-.53-.89,1.94-.96,1.03-1.22,1.51-.98,1.39-.26,1.44,1.51.6-.57-.22-.77.72-1.32,1.36-1,3.16-1.73,1.3-1.7,1.48-1.06.53-3.31.38-1.17.89-.94-.45-.55-2.26.94-.75-1.17-.87.53.31,1.13-.91.24-1.17-2.52-.84.57-1.29-1.12-3.19,1.7.07-2.18-.39-1.15.87-1.17-1.1-3.12-.72.82-1.32.45-1.3.05-.96-.36v-.58l-1-1.73-1.22-1.54,1.27-1.03-.12-1.08-.77-.38-.89-1.13-.33-1.12,1.32-2.59,1.36-1.46.93-.36.19-1.51,1.06-1.29.81-.1,1.34,1.27,1.53-.72.82-1,2.47.09.93-1.17-.17-2.11-.48-.82,1.01-1.05-.57-1.48-2.25,1.03-.89.79-1.92-.77-1.41-.19-1.66.26-2.06-.98-.58-2.66.82-.77-1.63-.75-1.3-1.12.41-.74,4.31-1.85,2.99-.79,1.17.33-.65,1.68.58.63,1.72.15,1.54.43.89-1.01.74-.22-1.24-1.99.31-1.53h-1.54l-1.89-.91-.05-1.24-.36-1.06-1.77-2.21-1.99-1.84.55-.33.6-1.53,3.41-.15,1.29-.74.77-.94.7-2.21.94-1.17,1.06-.79.93.26,1.63-.88,1.18-1.15,1.03.21,1.84-.31.7-.51,1.39-1.66,1.6,1.34.7-.36.77.74.12.79,2.28-.39,1.17.6-.07.81,1.03.74,1.03.1,2.52-.63,2.73,1.01,1.05.24,1.51-.21,2.71.62,1.51-1,.89-.09,3.14,1.44.7.09-.05.03Z"/>
        <path class="st3" d="M530.3,302.9l-2.37.84.38,7.55-.26-.05-2.28,1.58-1.96,1.37-1.22,2.52,2.01,2.42-.58,3.43.12,3.6-.17,2.99,2.83,2.5,1.15.09,3.17,1.73,1.1.89.69,1.41,2.59,2.2,3.31,1.84.33,1.1.26,3.23.34,1.54-12.78.31-14.14.46-13.14.38h-10.64l.24-12.58-1.08-12.94-1.66-1.01-.94-2.11.53-1.8,2.09-1.48.19-1.99v-2.42l-.58-2.04-.75-2.18-.41-2.73-.07-3.04-.34-.74-.31-3.89-.07-1.85-.15-1.54-.39-2.71-1.06-2.78-1.06-2.42-.14-2.45-.05-2.57.36-1.72v-1.53l-.79-1.9-.07-1.29,18.48.03.21-4.91,2.49.58,1.9,6.28v.12h0l.51,1.6,2.01.34.34.24,2.85.31.34.05,1.53,1.25,2.49-.74,8.32,1.65,1.01.46,1.82,1.6,3.98.82.34.17,2.78,1.78,2.33-.43,3.76-2.28,1.77,1.68,4.27-.31,3.19,1.27,1.92-.19-8.75,4.86-6.16,5.63-5.97,5.9v1.97l.03.03ZM316.03,254.42l17.71,3.59,43.85,5.8,43.78,6.31-1.9,24.28-.94,16.25-1.48,12.2-15.77-1.66-16.9-1.78-14.63-2.09-18.48-2.62-1,6.76-.24.39-.93-.91-.58-1.99-1-.53-1.75,2.42-2.26.07-5.2-1.7-.48,1.24-2.97-1.03-2.08,1.53-1.05-3.72-.77-2.16-1.85-.65-.43-1.1.12-3.52-1.34-1.96-.33-4.43-.77-2.04-1.05-.51-1.29,1.65-2.11,1.24-1.37-1.66.57-3.36,1.18-.65-.1-3.55,1.61-3.28,1.49-2.73-2.68-.65-1.99-2.35-1.7-4.56-1.1-2.3-1.73-1.68-1.22-2.45.48-2.3-1.65-4,2.26-13.78.03.02ZM482.54,273.12l.07,1.29.81,1.9v1.53l-.38,1.72.05,2.57.14,2.45,1.06,2.42,1.06,2.78.39,2.71.15,1.54.07,1.85.31,3.89.34.74.07,3.04.41,2.73.75,2.18.6,2.04v2.42l-17.83.46-15.18-.51-19.08-.96-17.84-1.27.94-16.25,1.9-24.28,17.28,1.3,43.89,1.7ZM380.06,578.44l2.33-4.53-.26-3.77.24.07,7.91,3.84,4.39,5.1.6.86-1.41,1.61-3.76,2.2-4,2.13-.58.69-4.13-1.29-.12-.55.1-2.3-.96-2.4-.36-1.66v.02ZM374.84,565.8l-.82-.98-1.29-1.54-.24-.24-.94-1.12.94-1.73,4.46,1.29,3.05,1.9-1.29,1.85-.7.12-3.17.45h0ZM370.14,559.38l-4.44-.19-1.99-.12.82-1.66h0l5.63,1.97h-.02ZM351.44,552.64l3.52-1.65.7.55,1.27,2.52.81,2.59h0l-1.53-.19-2.81-.45-1.17-1.97-.46-.93-.12-.19-.24-.31.03.02ZM335.16,543.96l1.63-.05.82.07.45,2.21.1.93-.58.48-1.65.41-3.02-1.75,2.25-2.32v.02ZM316.03,254.42l-2.26,13.78,1.65,4-.48,2.3,1.22,2.45,1.73,1.68,1.1,2.3,1.7,4.56,1.99,2.35,2.68.65-1.49,2.73-1.61,3.28.1,3.55-1.18.65-.57,3.36,1.37,1.66,2.11-1.24,1.29-1.65,1.05.51.77,2.04.33,4.43,1.34,1.96-.12,3.52.43,1.1,1.85.65.77,2.16,1.05,3.72,2.08-1.53,2.97,1.03.48-1.24,5.2,1.7,2.26-.07,1.75-2.42,1,.53.58,1.99.93.91.31.31-5.28,33.13-29.22-5.01-29.01-6.11,5.51-23.64,1.63-3.59-.39-1.87-1.54-1.24.57-2.11,1.97-2.68,2.57-2.16,2.23-3.96,2.02-3.11,1.3-1.49-.07-2.11-1.3-1.37-1.65-3.04.6-2.28-.39-2.18,3.84-18.25,3.72-16.54,8.58,1.89-.03-.02ZM307.45,252.53l-3.72,16.54-3.84,18.25.39,2.18-.6,2.28-18.79-4.29-3.53.53-2.23-1.13-2.02.57-3.74.57-4-1.24-2.38.51h-1.99l-1.24-1.13-3.14-1.44-2.13-.14-3.91.38-2.18-.62-1.96-1.08-.15-1.97.36-2.21-.94-2.99-2.37-1.48-1.8-1.82-2.71-.87-1.99-.6.12-.41.14-.74,1.66-4.27,2.04-2.93-2.33-1.42.48-9.66-.65-6.71,1.48-1.66,5.7,4.31,2.75,1.08,3.11,2.26.91,10.79-1.78,1.54,1.3.7.63-.33.05.72,2.38-2.14.84-.46.03-.75.46-3.19,2.71-4.6-.43-6.13.79-1.89-1.96-4.91-.07-.09.7-.63,23.75,6.5,25.79,6.23.02-.02ZM257.73,253.8l-.81-1.18.22-1.73.05-.5.51,3.41h.02ZM355.35,425.35l-10.47,75.78-13.04-1.82-9.44-1.46-23.81-13.71-14.14-8.8.21-3.21h-.1l1.53.34,1.66-2.47-1.58-2.16.1-2.08-.14-2.45,2.75-2.64,2.11-5.88,3.74-2.08-1.51-2.97-.91-2.8-.45-2.45-.24-1.96.03-1.2,1.22-2.5-.09-2.69.31-2.62.57-2.83-.51-2.02,1.01-1.53,2.25.45,1.77,1.37,1.37.77,1.08-1.9.57-.34,1.96-10.72,16.83,2.9,20.16,3.31,15.22,2.35-.02.03ZM291.65,441.36l-.03,1.2.24,1.96.45,2.45.91,2.8,1.51,2.97-3.74,2.08-2.11,5.88-2.75,2.64.14,2.45-.1,2.08,1.58,2.16-1.66,2.47-1.53-.36-2.81-.31-22.51-2.64-1.56-.22-.31-6.66-.05-.21-.03-.33-.15-.29-1.22-4-4.8-6.25-3.35-3.29-.53-.45-.12-1.7-3.59-1.32-3.77-3.05-.07-.15-1.36-2.14-.69-.24-.98-1.15-8.17-2.69-1.78-2.42,1.22-5.76-2.45-6.88-4.07-9.09-.74-1.84-.48-2.73.53-8.51-1.54-.7-.86-1.68-.74-4.96.17-2.37h3.86l-1.2-3.67-3.11-.82-2.01-3.59-.26-.53-.96-5.32-2.64-5.35-.58-1.75.34-3.16.22-1.05,1.32-4.05.19-3.28-1.29-4.25-1.61-2.78-.33-.89.1-.96,1.75-3.12,3.38-4.32,2.57-7.79.12-4.2.39-1.32,40.22,11.39-10.24,39.31,14.7,22.49,14.62,21.69,14.29,20.55.05.03ZM431.87,392.17l-1.24,20.88-1.27,19.82-10.24-.7-12.59-1.06-17.98-1.72-16.68-1.89-16.54-2.14,7.33-53.74,10,1.32,10,1.22,20.06,2.06,9.95.89,20.02,1.49-.84,13.12-.03.43.05.02ZM286.83,344.15l29.01,6.11-12.68,66.55-1.96,10.72-.57.34-1.08,1.9-1.37-.77-1.77-1.37-2.25-.45-1.01,1.53.51,2.02-.57,2.83-.31,2.62.09,2.69-1.22,2.5-14.29-20.55-14.62-21.69-14.7-22.49,10.24-39.31,28.57,6.83-.03-.03ZM344.89,501.13l10.47-75.78,16.54,2.14,16.68,1.89,17.98,1.72,12.59,1.06-.39,6.69-2.61,35.39-1.87,25.34-10.5-.82-20.35-1.89-10.16-1.1v1.13l.84,1.85-17.5-2.09-1.3.27-.53-.07-.7,5.49-9.16-1.22-.02-.02ZM299.68,291.79l1.65,3.04,1.3,1.37.07,2.11-1.3,1.49-2.02,3.11-2.23,3.96-2.57,2.16-1.97,2.68-.57,2.11,1.54,1.24.39,1.87-1.63,3.59-5.51,23.64h0l-28.57-6.83-40.22-11.39v-8.49l.14-2.52,7.31-10.86,9.3-22.72,2.02-10,1.99.6,2.71.87,1.8,1.82,2.37,1.48.94,2.99-.36,2.21.15,1.97,1.96,1.08,2.18.62,3.91-.38,2.13.14,3.14,1.44,1.24,1.1h1.99l2.38-.5,4,1.24,3.74-.57,2.02-.57,2.23,1.13,3.53-.53,18.79,4.29.02.02ZM315.84,350.27l29.22,5.01-2.18,13,19.8,3.33-7.33,53.74-15.22-2.35-20.16-3.31-16.83-2.9,12.68-66.55.02.03ZM350.03,321.85l.24-.39,1-6.76,18.48,2.62,14.63,2.09,16.9,1.78,15.77,1.66-2.06,27.38-2.28,26.9-9.95-.89-20.06-2.06-10-1.22-10-1.32-19.8-3.33,2.18-13,5.28-33.13-.31-.31-.02-.03ZM561.61,445.8v1.13l-1,1.94-1.82,1.49-.26,2.21-1.6,1.92.34,3.93-1.13,1.32-.14,1.08-1.87,1.12v2.01l-1.2,3.71-1.29.82-1.84,1.92-.98,2.87-2.23,4.8-.03,3.26,1.42,3.43-.38,2.71h-9.47l-12.13.88-10.81.27.46-7.69h-2.57l-2.16.21-.53-.86.12-11.89v-13.14l-2.33-14.31,12.9-.09,11.82-.33,11.31-.5,12.25.14,1,1.63-1.2,1.51-1.1,1.58-.51,1.36,6.98-.45h-.03ZM489.07,346.81h10.64l13.14-.38,14.14-.46,12.78-.31.12.74,1.37,2.06-.86,1.05.24,2.87.43,1.17.75,2.14,3.26,1.08,1.12,2.01.6,1.03,1.24.62.55,1.41,1.63,1.03,1.08,1.06-.33,3.65-1.66,3.17-.58,1.03-2.26.87-3.4.87-.72,2.35,1.27,1,.58,2.09-1.18,2.38-.63,2.09-2.44,2.13-.07,2.5-1.46-1.06-2.08-2.09-10.96.67-11.63.45-9.02.15-9.11.07-.67-2.44.27-2.44-.19-2.32-1.12-3.88-.65-1.63-.65-.45-.09-3.12-.63-2.25-1.84-2.57.1-1.13-.63-2.25-.45-1.32v-1.25l-1.54-1.51.74-2.18.55-2.18.27-1.49-1.25-1.75v-3.31h1.29l-.05.02ZM429.37,432.88l1.27-19.82,1.24-20.88h0l17.77.96,13.25.51,23.49.46h14.02l2.38,1.8h1.32l.39,1.92-1.49,2.52.88,1.3,1.27,2.8,2.69,1.29.12,14.46.12,14.53-9.28.09-19.15-.09-19.15-.38-10.55-.39-10.65-.51-9.95-.58h.02ZM561.61,445.8l-6.98.45.51-1.36,1.1-1.58,1.2-1.51-1-1.63-12.25-.14-11.31.5-11.82.33-12.9.09v-6.21h-.09l-.12-14.53-.12-14.46-2.69-1.29-1.27-2.8-.88-1.3,1.49-2.52-.39-1.94h-1.32l-2.38-1.78-1.34-2.87-1.61-1.75-1.7-2.13-.19-1.13,9.11-.07,9.02-.15,11.63-.45,10.96-.67,2.08,2.09,1.46,1.06-.79,3.41,1.13,3.96,1.85,2.73,2.02,2.21,2.49,1.68.98.51,1.01,2.57.33,2.25,1.18.5,1.87-1,2.14,2.06-.43,2.54-.84,1.99-.53,2.42,1.58,1.97,2.16,1.75h1.27l2.92,2.8,1.1.31,1,3.19-.26,2.09,1.51,3.23,1.15-.46,2.02,1.99-.19,1.39.34,2.11-1.6,1.25-2.28,1.54-.21,1.34-.57,1.99-.57,3.36-.02.05ZM431.87,392.17l.03-.43.84-13.12-20.02-1.49,2.28-26.9,19.01,1.42,14.58.82,19.59.74,2.5,1.82,3.52,1.15.93-.6,2.26.1,3.55-.07,2.44,1.72,2.73,1.22.45,1.06.82.69,1.65.19.45,1.32.63,2.25-.1,1.13,1.84,2.57.63,2.25.09,3.12.65.45.65,1.63,1.12,3.88.19,2.32-.27,2.44.67,2.44.19,1.13,1.7,2.13,1.61,1.75,1.34,2.87h-14.02l-23.49-.46-13.25-.51-17.77-.96-.02-.03ZM419.12,432.18l10.24.7,9.95.58,10.65.51,10.55.39,19.15.38,19.15.09,9.28-.09h.1v6.19l2.32,14.31v13.14l-.1,11.89-4.87-2.62-3.11-1.41-2.45.96-3.91-.1h-2.37l-1.85,1.13-1.85.57-1.65-.69-3.71.72-1.63-2.26-1.77,1.92-2.97-.91-3.05-2.18-3.41,1.3-1.37-3.28-5.13.19-3.26-.84-3.65-1.05-1.54-2.87-2.88.77-1.8-1.13-2.49-1.6.55-12.88.57-13.26-10.72-.51-10.71-.62-10.6-.72.39-6.69-.03-.05ZM488.44,312.94l-.19,1.99-2.09,1.48-.53,1.8.94,2.11,1.66,1.01,1.08,12.94-.24,12.58h-1.27l-.02,3.29,1.25,1.75-.27,1.49-.55,2.18-.74,2.18,1.54,1.51v1.25l-1.65-.19-.82-.69-.45-1.06-2.73-1.22-2.44-1.72-3.55.07-2.26-.1-.93.6-3.52-1.15-2.5-1.82-19.59-.74-14.58-.82-19.01-1.42,2.06-27.38,1.48-12.2,17.84,1.27,19.08.96,15.18.51,17.81-.46h0ZM515.2,488.63l10.81-.27,12.13-.88h9.47l.88.7-.94,2.04,1.8,2.66-.43,1.72,1.58,2.23-1.49,1.46-.39,2.57-2.11,2.23-.81,2.85-.89,3.35-1.3,1.56.58,3.35,10.14-.09,10.86-.65-.17,2.26-.7,2.28.86,1.63,1.6,1.46.58,2.2.31,1.29.12.17-2.78,2.11,2.3,1.97,2.76-.69.12.05.03,2.06-2.9,2.18,2.01,2.23,2.64.5,1.05.98-2.16,1.89-.45-.15-.12-.24-2.68-2.49-3.62-.39-1.37,2.38-4.07-.57-4.55,2.68h-.33l-8.48-6.19-3.14-2.4-3.71,1.9-1.24,1.6-2.16.46-1.75-.38-7.34-2.37-.98.15-3.77.41-2.16.55h-.22l-.89-1.41,1.15-2.01,1.68-1.78-.07-2.73-.88-.84,1-3.26.72-1.44.94-4.94-1.01-1.84-1.46-3.02-1.03-3.09-.69-2.11-1.94-1.46-.93-14.39-.02-.03ZM374.11,498.75l-.86-1.85v-1.13l10.17,1.1,20.35,1.89,10.5.82,1.87-25.34,2.61-35.39,10.6.72,10.71.62,10.72.51-.57,13.26-.55,12.88,2.49,1.6,1.8,1.13,2.88-.77,1.54,2.87,3.65,1.05,3.26.84,5.13-.19,1.37,3.28,3.41-1.3,3.05,2.18,2.97.91,1.77-1.92,1.63,2.26,3.71-.72,1.65.69,1.85-.57,1.85-1.12h2.37l3.91.1,2.45-.96,3.11,1.41,4.87,2.62.53.86,2.16-.22h2.57l-.46,7.7.93,14.39,1.94,1.46.69,2.11,1.03,3.09,1.46,3.02,1.01,1.84-.94,4.94-.72,1.44-1,3.26.88.84.07,2.73-1.68,1.78-1.15,2.01.89,1.41-.33.14-2.16.55-1.84.79-4.2,1.44-1.68-3.4-3.24.79.93,5.58-6.83,6.5-9.87,5.34-.1.07-2.09,1.05-2.09-.33-3.65,2.01-3.14,4.29-2.78,7.86.12,6.42.72,3.95.75,1.85.19,2.16,1.65,3.53-1.82.22-8.46-1.82-4.25-1.46-5.56-2.92-2.23-.57-2.95-5.95-2.35-9.4-6.14-7.17-.82-1.34-3.41-7.46-.91-1.53-1.54-4.1-2.18-2.28-.79-1.53-1.89-1.34-2.06-2.16-3.24-2.11-6.97-1.37-5.49,1-1.84,2.92-1.24,3.45-.84,1.06-2.68,2.16-7.69-3.91-1.77-1.08-1.32-1.12-3.83-3.64-1.92-6.35.03-.38-1.97-6.61-3.36-3-4.17-4.48-1.58-1.36-2.75-3.36-3.31-4.87-1.6-.93.03.07ZM714.12,340.12l7.48-1.58,8.99-1.97,1.96,7.12-.12,1.77-10.43,3.88-5.9,4.91.41.48-.33.21h0l-.19-.41-.74-1.49,1.87-1.8-1.1-.96-1.87-10.16-.03.02ZM730.59,336.58l-8.99,1.97-7.48,1.58-.05-9.56,7.82-1.75,11.5-2.85.72-1.54,1.68-1.42,1.2-.07.82,3.02-.94,4.91,1.58-.1,4.98,5.32,3.21.15,2.47-1.8.29,2.38-1.22.79-5.16.77-3.76,3.16-.36.1-.81-1.92-1.92-1.1-1.63-3.26-3.96,1.24.02-.02ZM736.99,322.93l-1.2.07-1.68,1.42-.72,1.54-11.5,2.85-1.05-1.15.27-1.87-.6-3.52.07-.86-.45-3.23.38-2.87.39-1.32.34-3.36-.29-2.18-.07-1.34,1.65-1.06,1.66-2.04-.09-1.72-1.17-1.68.17-3.84h0l.03-.91,2.76-3.95,7.7,23.5v1.42l2.28,1.46.93,1.68.69-.26-.62,2.56.12.43-.03.21h0ZM732.41,345.47l.12-1.77-1.96-7.12,3.96-1.24,1.63,3.26,1.92,1.1.81,1.92-.5.33-2.87-2.87.24,4.53-2.04,1.37-1.32.48ZM721.88,328.81l-7.82,1.75-2.3-10.93-1.32.26-.29-.45.14-2.09-1.7-3.17.29-2.95-1.01-1.87-1.2-3.81-.07-1.77-.38-2.66,9.99-2.56,6.91-1.78h0l-.17,3.84,1.17,1.68.09,1.72-1.66,2.04-1.65,1.06.07,1.34.29,2.18-.34,3.36-.39,1.32-.38,2.87.45,3.23-.07.86.6,3.52-.27,1.87,1.05,1.15h0ZM578.8,458.38l13.64-1.15,13.93-1.3,4.7,16.4,4.19,13.04,2.04,4.03,1.32,2.3-1.61,2.57-.14,4.29.93,2.47-.05,2.38-.07,2.26.93,1.58.72,1.54-23.21,2.5-6.52,1.41-.12,1.01,2.95,3.04-.41,2.66-.51,1.54-1.37.31-2.71-.14.38-.65-2.4-4.17-2.33,4.37h-2.04l-1.96-20.42.14-21.67.6-17.67-1.03-2.56h.03ZM591.53,520.99l.51-1.54.41-2.66-2.95-3.04.12-1.01,6.52-1.41,23.21-2.5,2.11,3.38,11.65-.81,18.75-.5,1.18,2.14,1.32-1.39-.69-4.62,1.3-.63,2.47.57,2.37-.1,3.45,8.96.12.05,1.17,3.28,4.65,7.81,2.37,3,1.1,1.32,2.71,4.32,1.03,3.53.26,1.58.33.57.07.36.6.91,5.76,10.24,1.44,2.5.77,6.55.53,7.96-.22.72-.88.27-.69,5.59-1.49,1.42-4.92,1.78-1.99-.17-1.32-3.21-3.36-3.83-2.83-1.24-8.66-10.65-.98.33-1.68-2.25-4.82-6.91-2.35-3.98-.29-.51.6-5.27.53-4.13-.14-.17-.03-.19-3.04-7.46-2.45-.22-6.42-6.09-1.39-1.44-.36-.21-1-1-1.7-.53-2.21-1.22-2.56.45-5.01,4.43-.7.46-5.76,1.92-.48-.38-1.18-2.75-4.5-2.38v-.07h-.12l-1.84-.93-4.67-1.27h0l-1.01-.34-1.78.43h-2.04l-8.87,2.09-.03.07ZM619.35,508.8l-.72-1.54-.93-1.58.07-2.26.05-2.38-.93-2.47.14-4.29,1.61-2.57-1.32-2.3-2.04-4.03-4.19-13.04-4.7-16.4,8.37-.82,5.82-.82,13.49-1.63-1.05,1.29-1.37,2.78,3.23,1.84,1.92.55,2.62,4,1.65,2.16,4.32,2.59.96,1.56,2.97,1.77,1.72,3.04,4,2.18,1.18,2.92.94,1.37-.26,1.05,2.3,1.15,1.53,2.28.29,2.54,1.12.33,2.08.36-.65,1.3-1.72,3.36-.1.7-1.61,3.4-.12,5.44-.15.39.05.38-.12,3.48-2.37.1-2.47-.57-1.3.63.69,4.62-1.32,1.39-1.18-2.14-18.75.5-11.65.81-2.11-3.38h.03ZM547.63,487.46l.38-2.71-1.42-3.43.03-3.26,2.23-4.8.98-2.87,1.84-1.92,1.29-.82,1.22-3.71v-2.01l1.85-1.12.14-1.08,10.72-.7,11.94-.67,1.03,2.56-.6,17.67-.14,21.67,1.96,20.38-4.96-.05-5.06,1.56-3.38,2.54-.12-.17-.31-1.29-.58-2.2-1.6-1.46-.86-1.63.7-2.28.17-2.26-10.86.65-10.14.09-.58-3.35,1.3-1.56.89-3.35.81-2.85,2.11-2.23.39-2.57,1.49-1.46-1.58-2.23.43-1.72-1.8-2.66.94-2.04-.88-.7.02.03ZM664.21,488.39l-2.08-.36-1.12-.33-.29-2.54-1.53-2.28-2.3-1.15.26-1.05-.94-1.37-1.18-2.92-4-2.18-1.72-3.04-2.97-1.77-.96-1.56-4.32-2.59-1.65-2.16-2.62-4-1.92-.55-3.23-1.84,1.37-2.78,1.05-1.29.96-.51,5.58-3.19,9.92-1.36,5.1-.15.29,1.17.96-1.05,2.08,2.01.15,1.56,12.04-1.89,14.34,10.45-.43.53-1.68,1.13-2.76,4.44-.48,2.62-3.26,4.19-1.56,2.56-5.88,5.87-.69,1-2.85,3.31-1.37,2.69-.26.36h-.05ZM539.82,388.07l.07-2.5,2.44-2.13.63-2.09,1.18-2.38-.58-2.09-1.27-1,.72-2.35,3.4-.87,2.26-.87.58-1.03,1.66-3.17.33-3.65-1.08-1.06-1.63-1.03-.55-1.41-1.24-.62-.6-1.03,10.04-.62,10.21-.69,7.57-.5v-.07h0v.07l.39,3.48,3.28,6.86h0l1.39,15.58,1.41,15.65-.91,3.86.94.93.77,2.26.07,1.82-.79.89-.57,2.32-1.87,3.12-1.13,3.81-.17,2.71.19,1-1.01,2.02.98,1.18-1.77,1.15-2.26,1.32.62,2.9-1.29,1.24-2.66-1.05-2.9-.53-.6,1.36.55,2.04-2.02-1.99-1.15.46-1.51-3.23.26-2.09-1-3.19-1.1-.31-2.92-2.83h-1.27l-2.16-1.73-1.58-1.97.53-2.42.84-1.99.43-2.54-2.14-2.06-1.87,1-1.18-.5-.33-2.25-1.01-2.57-.98-.51-2.49-1.68-2.02-2.21-1.85-2.73-1.13-3.96.79-3.41.07-.09ZM576.83,420.22l.17-2.71,1.13-3.81,1.87-3.12.57-2.32.79-.89-.07-1.82-.77-2.26-.94-.93.91-3.86-1.41-15.65-1.39-15.58h0l1,.79,3.31-.36,2.52-1.75h0l10.67-.96,9.26-1.17.12,1.06,1.44,12.18,1.46,13.12,1.1,9.33-.6.7,1.18,2.64-.26,1.05-1.82.27-1.39,1.36-2.54-.22.09,2.57-1.34,1.15-1.1,2.45-1.49.6-1.8,4.29-2.25-.96-.84-1.54-1.56,2.87-1.01,1.61-2.38-1.41-2.3,1.54-.65,1.39-3.4-1.77-2.09,1.7-2.81-.82.03,1.51-1.39-.26-.02-.03ZM562.97,439.11l2.28-1.54,1.6-1.25-.34-2.11.19-1.39-.55-2.04.6-1.36,2.9.53,2.66,1.05,1.29-1.24-.62-2.9,2.26-1.32,1.77-1.15-.98-1.18,1.01-2.02-.19-1,1.39.26-.03-1.51,2.81.82,2.09-1.7,3.4,1.77.65-1.39,2.3-1.54,2.38,1.41,1.01-1.61,1.56-2.87.84,1.54,2.25.96,1.8-4.29,1.49-.6,1.1-2.45,1.34-1.15-.09-2.57,2.54.22,1.39-1.36,1.82-.27.26-1.05-1.18-2.64.6-.7,3.57-.12,1.97,1.08,3.05,2.71,2.32.65,1.77.84,2.35-.69,1.92.57,2.09-1.05,1.97-.53,1.03,1.82,2.09.98.38,1.27.31,2.8,1.56,1.92.77,1.92,1.8,1.51,1.3,1.51,1.97-.03-.93,1.15-2.68,3.43-3,2.01h0l-.14,1.15-.88,1.58-2.54,1.87-.17.15-.09.14-.62,1.29-1.6.79-.46.31-3.05,1.17-7.03,1.34-9.42.55-3.04.53-6.16.29-6.23.51-5.73.48-6.59.96-.45-.58-2.08.17.17,2.13-15.17,1.03.02.05ZM634.03,452.65l-13.49,1.63-.15-2.88,2.21-1.1.51-1.51,1.39-1.89,2.06-.58,2.5-.96,2.23-1.49.93-1.32,1.84-1.32-.14-1,2.42-2.18,1.06,1.05,3.5-3.11,1.92-.03,1.34-2.49,1.97-.93-.39-1.9.03-1.72-4.08.86,4.08-.86,17.93-2.25,20.91-3.72,11.08-2.32,9.9-2.13,1.06-.22.74,1.56.15.22-.58,3-4.07,2.47-3.98-1.03.65,3.64,9.32-2.35.82.98,1,2.68.1.94-3.55,4.55-3.38,1.1-.31,3,3.16,1.72-1,2.2-2.3,1.44-4.6,1.39-2.54,2.87h0l-.09.09-1.63,1.78-4.98,7.7-2.49.67-.86.48-.88.36-14.34-10.45-12.04,1.89-.15-1.56-2.08-2.01-.96,1.05-.29-1.17-5.1.15-9.92,1.36-5.58,3.19-.96.51.05-.05ZM608.57,399.51l-1.1-9.33-1.46-13.12-1.44-12.18,5.13-.69,4.5-.57,3.65-.6h0l6.43,1.96h5.06l6.88-2.88,5.27-4.62,4.72-2.59,2.93,17.89-1.29.91.74,1.6.03,3.16-.57,3.64-.46,3.05.03,1.39-2.23,3.53-1.13.81-1.27.58-1.27-.12-1.9,2.69v2.47l-.21,1.36-.79.62-.41-1.46-1.37-.12-1,3.12.24,3-1.06,2.06-2.54.69-2.09-.98-1.03-1.82-1.97.53-2.09,1.05-1.92-.57-2.35.69-1.77-.84-2.32-.65-3.05-2.71-1.97-1.08-3.57.12.02.02ZM556.16,459.75l1.13-1.32-.34-3.93,1.6-1.92.26-2.21,1.82-1.49.98-1.94v-1.13l.6-3.36.57-1.99.21-1.34,15.17-1.03-.17-2.13,2.08-.17.45.58,6.59-.96,5.73-.48,6.23-.51,6.16-.29,3.04-.53,9.42-.55,7.03-1.34,3.05-1.17.46-.31-.46.31-3.05,1.17,15.8-1.68,1.27-.26,4.08-.86-.03,1.72.39,1.9-1.97.93-1.34,2.49-1.92.03-3.5,3.11-1.06-1.05-2.42,2.18.14,1-1.84,1.32-.93,1.32-2.23,1.49-2.5.96-2.06.58-1.39,1.89-.51,1.51-2.21,1.1.15,2.88-5.82.82-8.37.82-13.93,1.3-13.64,1.15-11.94.67-10.72.7-.02.02ZM628.18,430.24l1.6-.79.62-1.29.09-.14.17-.15,2.54-1.87.88-1.58.14-1.15h0l3-2.01,2.68-3.43.93-1.15.82,2.16,1.12.84.24.22,1.82.81,2.16-1.53.91-.58h0l1.42.79,3.05-1.49.65-.29v-1.22l1.24.31,1.12-1.13.09-.09h0l1.48-.05,1.48-1.32v-1.22l-.46-1.58h0l1.06-2.52,1.72-2.13.14-2.06.74-1.46.58-1.18.55-3.09h0l1.51.82,1.68.65,1.34-.75.34-1.34.65-1.84.55-1.3.24-.81h0l.86.41,1.22-1.94.94-1.25.72-.89.31-.45.67-1.08.12-2.95.05-.77h0l5.32,2.37.55.27.63-2.75h.29l1.29.14,1.53.79h0l-.34,1.22-.12.34,2.32.38,2.18,1.1h0l1.08,1,.05.75h0l.03,1.15-.31.38-1.13,1.18-.53,3.24,1.46.41,1.51-.87.77,1.37.26.33,7.72,2.76.91,3.84-1.13.81,2.14,5.44-1.97,1.63,1.2,2.37,2.25-1.3,3.16.62,1.75,3.91-1.06.22-9.9,2.13-11.08,2.32-20.91,3.72-17.93,2.25-4.08.86-1.27.26-15.8,1.68,3.05-1.17.46-.31-.07.02ZM707.79,397.73l-3.33,11.43-1.15-.65.81-5.61,1.08-2.42-.77-.34.07-.6h0l.96-1.1,2.33-.7h0ZM539.75,345.66l-.34-1.54-.26-3.23-.33-1.1-3.31-1.84-2.59-2.2-.69-1.41-1.1-.89-3.17-1.73-1.15-.09-2.83-2.5.17-2.99-.12-3.6.58-3.43-2.01-2.42,1.22-2.52,1.96-1.37,2.28-1.58.26.05-.38-7.55,2.37-.84,9.11-3.21,5.82,4.19.09.05.58-.27v.07l1.49.34.84,2.37,8.27,1.8,5.63,2.01,2.61-.14h1.82l.7,2.16,2.25.69,1.03,1.78-.51,1.17-.26,2.2,2.11-.05-.51,2.16,1.37,1.49h.09l.19.03-.07.14-3.28,5.15,1.46,1.49,6.16-9.28,1.39-.14-3.96,10.72-1.3,9.56-1.24,7.74,1.84,6.49v3.33h0v.07l-7.57.5-10.21.69-10.04.62-1.12-2.01-3.26-1.08-.75-2.14-.43-1.17-.24-2.87.86-1.05-1.37-2.06-.12-.74-.02-.02ZM640.79,416.71l-1.97.03-1.3-1.51-1.8-1.51-.77-1.92-1.56-1.92-.31-2.8-.38-1.27,2.54-.69,1.06-2.06-.24-3,1-3.12,1.37.12.41,1.46.79-.62.19-1.36v-2.47l1.92-2.69,1.27.12,1.27-.58,1.13-.81,2.23-3.53-.03-1.39.46-3.05.57-3.64-.03-3.16-.74-1.6,1.29-.91,2.02,12.3,10.5-1.78,1.1,6.79,1.39-1.51,1.42-1.84,1.89-.84,1.15-1.68h3l.94-1.18,1.77-1.42,3.29.51,1.58,1.61,1.18,1.56-.63,2.75-.55-.27-5.32-2.37h0l-.05.77-.12,2.95-.67,1.08-.31.45-.72.89-.94,1.25-1.22,1.94-.86-.41h0l-.24.81-.55,1.3-.65,1.84-.34,1.34-1.34.75-1.68-.65-1.51-.82h0l-.55,3.09-.58,1.18-.74,1.46-.14,2.06-1.72,2.13-1.06,2.52h0l.46,1.58v1.22l-1.48,1.32-1.48.05h0l-.09.09-1.12,1.13-1.24-.31v1.22l-.65.29-3.05,1.49-1.42-.79h0l-.91.58-2.16,1.53-1.82-.81-.24-.22-1.12-.84-.82-2.16.02-.05ZM709.83,391.25l-6.71,1.48-4.41-16.73.51-1.2.79-.81,2.3.27-1.18,1.66.84,2.5.51,1.05-1.12-.65,4.55,6.88,2.04.77.46.27,1.41,4.5h0ZM688.66,391.02h0l-.05-.75-1.08-1,.63-.77,1.6,1.08-1.08,1.44h-.02ZM707.79,397.73h0l-2.33.7-.96,1.1h0l-1.61-1-2.02-3.86-1.42,1.72-.69-.43-.67-.82-1.03-3.05.1-.46-1.66-7.39-2.52.09,1.08,5.66-.09.98.51,1.05.17,1.3,1.77,2.76,1.49,2.83-7.19-.69-.26-.33-.77-1.37-1.51.87-1.46-.41.53-3.24,1.13-1.18.31-.38-.03-1.15,1.08-1.44-1.6-1.08-.63.77h0l-2.18-1.1-2.32-.38.12-.34.34-1.22h0l-1.53-.79-1.29-.14h-.29l-1.18-1.56-1.58-1.61-3.29-.51-1.77,1.42-.94,1.2h-3l-1.15,1.65-1.89.84-1.42,1.84-1.39,1.51-1.1-6.79,9.35-1.7,3.17-.6,7.09-1.42,8.58-1.66,8.82-1.92,4.41,16.73,6.71-1.48.1.43v.07l-.03.26-2.11,5.73.05.02ZM701.97,378.43l-.84-2.5,1.18-1.66,1.77-1.68.55-1.01,1.92-2.23.96-1.75-3.89-2.71-.41-1.39-1.18-.12-.48-2.14.82-1.92-.93-1.6,1.29-1.51,1.06-3.31,1.05-.87,8.75,3.48.29,2.83-1.13,2.13-.91-.17.6.89-.7,1.51,1.63-.05,1.44,2.42v7.51l-4.15,10.02-1.29.41-.22-.09-.79-1.75-2.38-.17-4-2.59v.03ZM714.12,340.12l1.87,10.16,1.1.96-1.87,1.8.74,1.49.19.41h0l-.48.43.96-.43.38.36,12.35-4.92,1.36-.34.98.46-6.78,5.27-4.24,2.4-.88.41-5.92,1.48v-1.73l-.31-2.83-8.75-3.48-1.75-.57-1.84-.55-1.06-1.82-.05-1.46-1.44-.96-2.62-1.6-13.14,2.8-14.17,2.8-15.13,2.75-.63-3.64,6.19-8.51.24-.17v-.07l.43-.65-.41-1.25h0l-1.61-3.83,4.25-2.37,7.63-.94,8.01-.45,6.25-5.82-1.72-5.04-1.34-1.63,7.65-11.25,3.59-3.35,5.06-1.17,2.68-.57,6.33-1.58.38,2.66.07,1.77,1.2,3.81,1.01,1.87-.29,2.95,1.7,3.17-.14,2.09.29.45,1.32-.26,2.3,10.93.05,9.56h.02ZM649.16,372.78l-2.93-17.89,6.69-5.11h.09l.63,3.62,15.13-2.75,14.17-2.8,13.14-2.8,2.62,1.6,1.44.96.05,1.46,1.06,1.82,1.84.55,1.75.57-1.05.87-1.06,3.31-1.29,1.51.93,1.6-.82,1.92.48,2.14,1.18.12.41,1.39,3.89,2.71-.96,1.75-1.92,2.23-.55,1.01-1.77,1.68-2.3-.27-.79.81-.51,1.2-8.82,1.92-8.58,1.66-7.09,1.42-3.17.6-9.35,1.7-10.5,1.78-2.02-12.3h-.03ZM737.52,319.74l-.69.26-.93-1.68-2.26-1.46v-1.42l-7.72-23.5.14-.17.65-.62,2.56-2.3.45-1.99,1.25-4.01-.14-.81-.1-10.64.05-.14,3.98-11.6,3.83,2.49.1.03.43-.38,4.51-3.33,5.13,2.25.1.03,1.17,3.52,3.05,10.26.79,2.87.12.09.22.7,3.79,2.54.6,1.96,4.27,1.6,1.39,1.78.98,1.32-.07.09-6.9,5.52-.7,2.56-2.33-.98-2.76,2.85-2.49-.24-2.62,7.57-1.42.22-1.96,2.95-.07.09-2.75-.14-1.44,1.82-2.2,10.04-.02.02ZM572.99,321.71l-.19-.05h-.09l-1.37-1.49.51-2.16-2.11.05.26-2.2.51-1.17-1.03-1.78-2.25-.69-.7-2.18h-1.82l-2.61.17-5.63-2.01-8.27-1.8-.84-2.37-1.49-.34v-.07l-.58.27-.09-.05.09.05,6.9-3.84,7.02-4.84,7.7-5.01-2.3,7.26,5.35,1.22,6.97,4.51,7.84-3.77,8.92-2.16,2.3,3.47,2.88.22.45-1.36h0l-.45,1.36,2.54.12h0l5.3,4.7-8.05,2.18h-.36l-7.39-.55-6.98,3.41-6.3,1.8-4.7,9.02.05.07ZM617.85,363.02h0l-3.65.6-4.5.57-5.13.69-.12-1.06-9.26,1.17-10.67.96h0l1.84-2.01,3.36-7-.65-8.9-4.08-7.98-.12-5.68,1.9-6.83,1.82-4.75,3.41-3.62,1.37,4.41.93-6.79,1.94-1.6.72-5.2,8.29,1.68,7.53,4.27,1.61,5.99-.07,6.16-4.53,6.06.96,3.28,1.89-.12,5.16-6.66,3.72.81,2.8,7.53,1.24,5.44h0l-3.47,8-.38,1.25-1.22.6-.17,3.55-2.47,5.18v.02ZM259.74,570.04l.17,1.37-1.65.72.36.74-.09.09-.7.51-.75-.15-1,1.37h-.02l-.36-.19-.67-.62-.43-.74-.29-1.68.1-.19,1.17-.86.46.07.67-.88,1.2-.67.19.03,1.65,1.06h-.02ZM228.99,555.8l-.12,1.29-1.48.7-.7-.51-.63-.55-1.08-1.46,2.68-.27.81.34.53.45v.02ZM221,538.06l1.2-.17.5.6.07.19.96,1.06.82.31-.05.91-1.63.21-.36-.38-.79-1.3-.31-.21-.1-.19h-.21l-.63-.45-.65.27h-.1l-.57-.84.1-.29.63-.48.72.48.07.07h.03l.27.19.02.02ZM297.33,557.84l.05-1.6,1.68-1.9,1.89,1.99,2.11,1.37,2.28,1.13.36.22,1.13,1.25,1.77,1.72,1.03,1.06,1.61,1.89,1.06.89h.09l.17.15,5.16,1.29h0l-.1.81,1.06,2.44v.22l-.33,1.42-.26.45-1.68-.96-.26-.5-.63-.46-.74.51-1.25-.29-.86-1.53.57-1.87-1.24.63-.5-.89-.14-.09.1-.14-.58-.67-1.34-.75-.5-.74-1.48-.12-1.37-1.99-.14-.82-1.65-1.41-1.46-.22-1.82-1.29.82,1.66-1.13-.29-2.78,1.53-2.44-.96-2.28-1.7-2.57-.77-1.44-.6.65-.91-.77-.55-1.13.96-1.3.05-2.28-.67-1.66-.14-.27-.07-.09.03h-.21l-1.9.62-.72.22h-.34l-.43-.12-.51-.48-1.08-.07-.74-.46-1.51-.39.05-.94-1.77.1-.81-1.03-1.58-.22-1.46,1.39.05.19-.31.14.53,2.21-.1.77-1.17.62-1.82-.36-1.68,2.52-.53.45-.7.1-.55.6-1.49.63-.24.07-.17-1.13,1.1-.88-1.32-.82.07-.38,1.15-3.33.17-1.15.74-.55.96-.65,1.1.39.43-.46-.77-1.05h-1.25l-.07-.1-.1.09h-.02l-1.75,1.27-.74,1.22-.17.14-.21.45-.67,1.08-1.01.88-.21,1.42-2.06,2.08-.98.57-.05,1.66,1.15-.17.94.93-.58.86-1.15.89-1,1.72-1.06.5-2.59,2.13-1.17.6-.05.17-.41.24.21.38-.33.94-.12.15-2.08.69-1.44,1.41-.39.19h-.63l-.98,1.27-.36,1.05-2.33.58-.57-.27-1.32.89h0l-2.59,1.06-.09.03-.69-.1-1.05.45-1.01.86h-.02l-2.3.15-.53-.89,1.94-.96.91-1.08,1.13-.81.48-.31h0l1.56-.09,1.27,1.34.6-.57-.22-.77.09-.14,1.42-1.75,1-.65,2.71-1.51,1.3-1.7,1.48-1.06.53-3.31.26-.82.27-.48.74-.79-.21-.27.29-.62-2.83,1.24-.74-1.12-.87.53.14.53-.72.82h-.02l-.09-.14-1.08-2.37-.17.12-.05-.12-.1.21-.5.34-.65-.57-.22-.79-.41.24h-.02l-2.52,1.34-.67-.09.07-1.75-.41-1.13.03-.03.86-1.15-1.1-3.12-.72.82h-.02l-2.76.43-.12-.03-1.58-2.44-.03-.05-.05-.1-1.22-1.54,1.27-1.03-.12-1.08-.77-.38-.38-.48-.62-1.05-.21-.72,1.24-2.44,1.63-1.68.75-.29.12-1,.57-1.1.36-.43,1.32-.07,1.03.96.38-.17.19.14.41-.41.55-.27.82-1,1.25.07.41.15.19-.15h.62l.93-1.13h0l-.14-1.96v-.22l-.07-.05-.43-.72,1.01-1.05-.19-.48.29-.29-.41-.03-.26-.67-2.25,1.03-.34.29-.19.07-.26.33-.1.12-1.82-.74h-.02l-.09-.03-1.41-.19-1.54.24-2.26-1.37-.5-2.25.82-.77-1.63-.75-.79-.67-.38-.65.24-.43,1.61-.72,1.34-.58,3.72-1.24.62-.17.22.03,1,.29-.65,1.68.31.36-.03.15h.21l.1.14,1.72.15,1.54.43.33-.39h.12l-.03-.09.46-.53.74-.22-1.24-1.99.31-1.53h-1.54l-1.89-.91-.05-1.24-.36-1.06-1.77-2.21-.05-.03-.03-.07-.72-.63-1.18-1.1.55-.33.6-1.53,3.05-.12h.34l1.29-.75.77-.94v-.03h.03l.7-2.18h0l1.66-1.72.31-.22.93.26,1.63-.88.72-.7.72-.41.77.17,1.27-.21.12.03.09-.05.36-.07.7-.51,1.39-1.66,1.6,1.34.69-.34h.03l1.12,2.09.57-.72.65-.1,1.37.1.62.33-.07.81,1.03.74,1.03.1,2.42-.62,1.44.51,1.39.5,1.05.24.75-.1h1.29l1.46.38.31.09.03-.03.34.09,1.51-1,.36-.03,2.45.88h.07l1.15.51.7.09,8.51,42.98,1.17.19,1.3-.45,2.33.74,2.06,1.61,2.8,2.52.46-.91,1.27-.86-.03-.03ZM309.03,565.63l1.42.94-.07.09-2.13-1.27.77.22v.02ZM302.58,561.2l.29-.33,1.06.14-1.36.22h0v-.03ZM300.3,561.36l.38.17.33.07-1.37.34.67-.57v-.02ZM230.42,580.88l.19.93.45.82-1.63.03-2.87.57-.12-.38-.07-.41,3.11-1.61.93.05h.02Z"/>
        <g>
          <path class="st22" d="M721.88,328.81l-7.82,1.75-2.3-10.93-1.32.26-.29-.45.14-2.09-1.7-3.17.29-2.95-1.01-1.87-1.2-3.81-.07-1.77-.38-2.66,9.99-2.56,6.91-1.78h0l-.17,3.84,1.17,1.68.09,1.72-1.66,2.04-1.65,1.06.07,1.34.29,2.18-.34,3.36-.39,1.32-.38,2.87.45,3.23-.07.86.6,3.52-.27,1.87,1.05,1.15h0Z"/>
          <path class="st28" d="M730.59,336.58l-8.99,1.97-7.48,1.58-.05-9.56,7.82-1.75,11.5-2.85.72-1.54,1.68-1.42,1.2-.07.82,3.02-.94,4.91,1.58-.1,4.98,5.32,3.21.15,2.47-1.8.29,2.38-1.22.79-5.16.77-3.76,3.16-.36.1-.81-1.92-1.92-1.1-1.63-3.26-3.96,1.24.02-.02Z"/>
          <path class="st19" d="M709.83,391.25l-6.71,1.48-4.41-16.73.51-1.2.79-.81,2.3.27-1.18,1.66.84,2.5.51,1.05-1.12-.65,4.55,6.88,2.04.77.46.27,1.41,4.5h0Z"/>
          <path class="st16" d="M714.12,340.12l7.48-1.58,8.99-1.97,1.96,7.12-.12,1.77-10.43,3.88-5.9,4.91.41.48-.33.21h0l-.19-.41-.74-1.49,1.87-1.8-1.1-.96-1.87-10.16-.03.02Z"/>
          <path class="st24" d="M701.97,378.43l-.84-2.5,1.18-1.66,1.77-1.68.55-1.01,1.92-2.23.96-1.75-3.89-2.71-.41-1.39-1.18-.12-.48-2.14.82-1.92-.93-1.6,1.29-1.51,1.06-3.31,1.05-.87,8.75,3.48.29,2.83-1.13,2.13-.91-.17.6.89-.7,1.51,1.63-.05,1.44,2.42v7.51l-4.15,10.02-1.29.41-.22-.09-.79-1.75-2.38-.17-4-2.59v.03Z"/>
          <path class="st16" d="M732.41,345.47l.12-1.77-1.96-7.12,3.96-1.24,1.63,3.26,1.92,1.1.81,1.92-.5.33-2.87-2.87.24,4.53-2.04,1.37-1.32.48Z"/>
          <path class="st21" d="M714.12,340.12l1.87,10.16,1.1.96-1.87,1.8.74,1.49.19.41h0l-.48.43.96-.43.38.36,12.35-4.92,1.36-.34.98.46-6.78,5.27-4.24,2.4-.88.41-5.92,1.48v-1.73l-.31-2.83-8.75-3.48-1.75-.57-1.84-.55-1.06-1.82-.05-1.46-1.44-.96-2.62-1.6-13.14,2.8-14.17,2.8-15.13,2.75-.63-3.64,6.19-8.51.24-.17v-.07l.43-.65-.41-1.25h0l-1.61-3.83,4.25-2.37,7.63-.94,8.01-.45,6.25-5.82-1.72-5.04-1.34-1.63,7.65-11.25,3.59-3.35,5.06-1.17,2.68-.57,6.33-1.58.38,2.66.07,1.77,1.2,3.81,1.01,1.87-.29,2.95,1.7,3.17-.14,2.09.29.45,1.32-.26,2.3,10.93.05,9.56h.02Z"/>
          <path class="st22" d="M539.82,388.07l.07-2.5,2.44-2.13.63-2.09,1.18-2.38-.58-2.09-1.27-1,.72-2.35,3.4-.87,2.26-.87.58-1.03,1.66-3.17.33-3.65-1.08-1.06-1.63-1.03-.55-1.41-1.24-.62-.6-1.03,10.04-.62,10.21-.69,7.57-.5v-.07h0v.07l.39,3.48,3.28,6.86h0l1.39,15.58,1.41,15.65-.91,3.86.94.93.77,2.26.07,1.82-.79.89-.57,2.32-1.87,3.12-1.13,3.81-.17,2.71.19,1-1.01,2.02.98,1.18-1.77,1.15-2.26,1.32.62,2.9-1.29,1.24-2.66-1.05-2.9-.53-.6,1.36.55,2.04-2.02-1.99-1.15.46-1.51-3.23.26-2.09-1-3.19-1.1-.31-2.92-2.83h-1.27l-2.16-1.73-1.58-1.97.53-2.42.84-1.99.43-2.54-2.14-2.06-1.87,1-1.18-.5-.33-2.25-1.01-2.57-.98-.51-2.49-1.68-2.02-2.21-1.85-2.73-1.13-3.96.79-3.41.07-.09Z"/>
          <path class="st27" d="M431.87,392.17l-1.24,20.88-1.27,19.82-10.24-.7-12.59-1.06-17.98-1.72-16.68-1.89-16.54-2.14,7.33-53.74,10,1.32,10,1.22,20.06,2.06,9.95.89,20.02,1.49-.84,13.12-.03.43.05.02Z"/>
          <path class="st26" d="M634.03,452.65l-13.49,1.63-.15-2.88,2.21-1.1.51-1.51,1.39-1.89,2.06-.58,2.5-.96,2.23-1.49.93-1.32,1.84-1.32-.14-1,2.42-2.18,1.06,1.05,3.5-3.11,1.92-.03,1.34-2.49,1.97-.93-.39-1.9.03-1.72-4.08.86,4.08-.86,17.93-2.25,20.91-3.72,11.08-2.32,9.9-2.13,1.06-.22.74,1.56.15.22-.58,3-4.07,2.47-3.98-1.03.65,3.64,9.32-2.35.82.98,1,2.68.1.94-3.55,4.55-3.38,1.1-.31,3,3.16,1.72-1,2.2-2.3,1.44-4.6,1.39-2.54,2.87h0l-.09.09-1.63,1.78-4.98,7.7-2.49.67-.86.48-.88.36-14.34-10.45-12.04,1.89-.15-1.56-2.08-2.01-.96,1.05-.29-1.17-5.1.15-9.92,1.36-5.58,3.19-.96.51.05-.05Z"/>
          <path class="st20" d="M556.16,459.75l1.13-1.32-.34-3.93,1.6-1.92.26-2.21,1.82-1.49.98-1.94v-1.13l.6-3.36.57-1.99.21-1.34,15.17-1.03-.17-2.13,2.08-.17.45.58,6.59-.96,5.73-.48,6.23-.51,6.16-.29,3.04-.53,9.42-.55,7.03-1.34,3.05-1.17.46-.31-.46.31-3.05,1.17,15.8-1.68,1.27-.26,4.08-.86-.03,1.72.39,1.9-1.97.93-1.34,2.49-1.92.03-3.5,3.11-1.06-1.05-2.42,2.18.14,1-1.84,1.32-.93,1.32-2.23,1.49-2.5.96-2.06.58-1.39,1.89-.51,1.51-2.21,1.1.15,2.88-5.82.82-8.37.82-13.93,1.3-13.64,1.15-11.94.67-10.72.7-.02.02Z"/>
          <path class="st17" d="M619.35,508.8l-.72-1.54-.93-1.58.07-2.26.05-2.38-.93-2.47.14-4.29,1.61-2.57-1.32-2.3-2.04-4.03-4.19-13.04-4.7-16.4,8.37-.82,5.82-.82,13.49-1.63-1.05,1.29-1.37,2.78,3.23,1.84,1.92.55,2.62,4,1.65,2.16,4.32,2.59.96,1.56,2.97,1.77,1.72,3.04,4,2.18,1.18,2.92.94,1.37-.26,1.05,2.3,1.15,1.53,2.28.29,2.54,1.12.33,2.08.36-.65,1.3-1.72,3.36-.1.7-1.61,3.4-.12,5.44-.15.39.05.38-.12,3.48-2.37.1-2.47-.57-1.3.63.69,4.62-1.32,1.39-1.18-2.14-18.75.5-11.65.81-2.11-3.38h.03Z"/>
          <path class="st23" d="M649.16,372.78l-2.93-17.89,6.69-5.11h.09l.63,3.62,15.13-2.75,14.17-2.8,13.14-2.8,2.62,1.6,1.44.96.05,1.46,1.06,1.82,1.84.55,1.75.57-1.05.87-1.06,3.31-1.29,1.51.93,1.6-.82,1.92.48,2.14,1.18.12.41,1.39,3.89,2.71-.96,1.75-1.92,2.23-.55,1.01-1.77,1.68-2.3-.27-.79.81-.51,1.2-8.82,1.92-8.58,1.66-7.09,1.42-3.17.6-9.35,1.7-10.5,1.78-2.02-12.3h-.03Z"/>
          <path class="st25" d="M315.84,350.27l29.22,5.01-2.18,13,19.8,3.33-7.33,53.74-15.22-2.35-20.16-3.31-16.83-2.9,12.68-66.55.02.03Z"/>
          <path class="st18" d="M576.83,420.22l.17-2.71,1.13-3.81,1.87-3.12.57-2.32.79-.89-.07-1.82-.77-2.26-.94-.93.91-3.86-1.41-15.65-1.39-15.58h0l1,.79,3.31-.36,2.52-1.75h0l10.67-.96,9.26-1.17.12,1.06,1.44,12.18,1.46,13.12,1.1,9.33-.6.7,1.18,2.64-.26,1.05-1.82.27-1.39,1.36-2.54-.22.09,2.57-1.34,1.15-1.1,2.45-1.49.6-1.8,4.29-2.25-.96-.84-1.54-1.56,2.87-1.01,1.61-2.38-1.41-2.3,1.54-.65,1.39-3.4-1.77-2.09,1.7-2.81-.82.03,1.51-1.39-.26-.02-.03Z"/>
        </g>
        <path class="st30" d="M655.62,333.15l4.44-3.28,14.91-2.93,4.01-3.67,1.15-3.67.57-.75.1.03,1.48,1.78,1.72,5.04-6.25,5.82-8.01.45-7.63.94-4.67,2.57-.58.29-1.2-2.64-.03.02ZM659.87,340.36l-.43.65-.84-1.56.86-.34.41,1.25ZM659.18,341.25l-6.28,8.53-6.69,5.11-4.72,2.59-5.27,4.62-6.88,2.85h-5.06l-6.43-1.94,2.47-5.18v.12l1.36,2.33,4.19,1.89,2.73-.51,10.07-8.65,8.9-3.53,3.72-2.14,7.91-6.09-.02.02ZM598.93,300.98l-2.88-.22-2.3-3.47-8.92,2.16-7.84,3.77-6.97-4.51-5.35-1.22,2.3-7.26-7.7,5.01-7.02,4.84-6.9,3.84-5.9-4.25-9.11,3.21v-1.97l5.97-5.9,6.16-5.63,8.75-4.86,3.43-.36,4.89-3.45,2.69-1.08,16.76,7.75,16.97,7.91.88,2.26,2.69,1.54-.55,1.87h-.05ZM677.25,557.58h-2.83l-.29-3.24h2.71l.41,3.24h0ZM332.38,362.23v2.73l-.94,3.84-4.41-4.58-.19-.55-.55-6.45,2.38,3.02,1.6,1.68,2.04-.91.07,1.22h0ZM596.94,310.02l1.42-2.04h.36l8.05-2.16-5.3-4.7.45-.62,1.41.89,3.43,3,3.74,1.13,2.32,4.13,7.45,3.41,7.07,22.73-.98,5.11-.38,3.14-.41.38-1.24-5.44-2.8-7.53-3.72-.81-5.16,6.66-1.89.12-.96-3.28,4.53-6.06.07-6.16-1.61-5.99-7.53-4.27-8.29-1.68-.02.02ZM598.36,307.98l-1.42,2.04-.72,5.2-1.94,1.6-.93,6.79-1.37-4.41-3.41,3.62-1.82,4.75-1.9,6.83.12,5.68,4.08,7.98.65,8.9-3.36,7-1.84,2.01-2.52,1.75-3.31.36-1-.79-3.28-6.86-.39-3.48v-3.38l-1.85-6.49,1.24-7.74,1.3-9.56,3.96-10.72-1.39.14-6.16,9.28-1.46-1.49,3.28-5.15,4.79-9.16,6.3-1.8,6.98-3.41,7.39.51h-.02Z"/>
      </g>
    </g>
  </g>
  <g id="annotations">
    <polygon class="st15" points="688.75 398.5 683.1 402.6 685.26 395.96 679.62 391.86 686.6 391.86 688.75 385.22 690.91 391.86 697.89 391.86 692.25 395.96 694.39 402.6 688.75 398.5"/>
    <g id="Washington_to_DC">
      <g>
        <path class="st13" d="M634.12,499.87c1.68-2.62,3.29-4.98,4.86-7.09"/>
        <path class="st8" d="M643.59,486.95c18.08-21.12,27.47-12.39,37.9-61.44"/>
        <path class="st13" d="M682.24,421.87c.53-2.64,1.08-5.46,1.61-8.42"/>
        <polygon class="st29" points="687.68 417.87 683.41 414.97 678.33 416.04 685.19 405.86 687.68 417.87"/>
      </g>
    </g>
    <g id="Washington_to_DC1">
      <path class="st0" d="M695.64,405.86"/>
    </g>
    <g id="Washington_to_DC2">
      <path class="st0" d="M658.6,473.43"/>
    </g>
    <g id="Washington_to_DC3">
      <g>
        <path class="st13" d="M398.47,402.6c2.21-1,4.87-2.06,7.96-3.16"/>
        <path class="st6" d="M412.73,397.34c53.86-17.12,194.08-40.78,248.19-14.29"/>
        <path class="st13" d="M663.87,384.59c2.61,1.46,4.99,3.05,7.1,4.79"/>
        <polygon class="st29" points="664.97 390.34 669.74 388.35 671.62 383.52 676.38 394.83 664.97 390.34"/>
      </g>
    </g>
    <g id="Washington_to_DC4">
      <g>
        <path class="st13" d="M333.24,399.67c2.04,2.04,4.08,4.05,6.11,6.02"/>
        <path class="st11" d="M344.24,410.38c127.99,121.3,228.99,97.62,331.42,8.63"/>
        <path class="st13" d="M678.21,416.77c2.13-1.87,4.27-3.77,6.4-5.71"/>
        <polygon class="st29" points="684.99 416.93 683.34 412.02 678.67 409.79 690.29 405.86 684.99 416.93"/>
      </g>
    </g>
    <g id="Washington_to_DC5">
      <path class="st0" d="M702.73,399.67"/>
    </g>
    <g id="Washington_to_DC6">
      <path class="st0" d="M746.08,286.98"/>
    </g>
    <g id="Washington_to_DC7">
      <g>
        <path class="st13" d="M716.8,313.25c1.48,2.2,3.04,4.62,4.63,7.21"/>
        <path class="st1" d="M724.6,325.79c14.67,25.44,28.51,62.13-6.52,69.04"/>
        <path class="st13" d="M715.03,395.35c-2.61.36-5.46.57-8.56.62"/>
        <polygon class="st29" points="710.14 391.16 708.06 395.89 710.02 400.68 698.78 395.79 710.14 391.16"/>
      </g>
    </g>
    <g id="Washington_to_DC8">
      <path class="st0" d="M682.57,382.8"/>
    </g>
    <g id="Washington_to_DC9">
      <path class="st0" d="M284.8,266.98"/>
    </g>
    <g id="Washington_to_DC10">
      <g>
        <path class="st13" d="M697.89,327.87c-2.16,2.32-3.88,4.58-5.2,6.81"/>
        <path class="st2" d="M689.71,341.42c-2.32,7.86-.57,15.12,1.25,21.82"/>
        <path class="st13" d="M691.9,366.8c.75,2.92,1.39,5.71,1.53,8.42"/>
        <polygon class="st29" points="688.93 370.97 693.38 373.61 698.37 372.24 692.16 382.8 688.93 370.97"/>
      </g>
    </g>
    <g id="Washington_to_DC11">
      <g>
        <path class="st13" d="M723.13,342.47c1.29,2.64,2.33,5.32,3.14,7.98"/>
        <path class="st14" d="M727.57,355.73c2.66,13.83-.79,26.68-8.42,32.8"/>
        <path class="st13" d="M716.9,390.08c-2.42,1.39-5.16,2.16-8.2,2.21"/>
        <polygon class="st29" points="712.99 387.83 710.31 392.27 711.65 397.27 701.13 390.97 712.99 387.83"/>
      </g>
    </g>
    <g id="Washington_to_DC12">
      <g>
        <path class="st13" d="M734.14,341.2c1.32,2.73,2.21,5.44,2.73,8.12"/>
        <path class="st5" d="M737.4,355.42c-.27,13.83-10.41,25.63-22.72,30.01"/>
        <path class="st13" d="M711.74,386.32c-2.78.7-5.64,1.01-8.51.87"/>
        <polygon class="st29" points="707.6 382.92 704.82 387.3 706.02 392.33 695.68 385.75 707.6 382.92"/>
      </g>
    </g>
    <g id="Washington_to_DC13">
      <g>
        <path class="st9" d="M679.62,366.45c1.99,9.57,2.85,7.34,4.91,8.87"/>
        <polygon class="st29" points="678.06 375.56 683.1 374.36 685.74 369.92 688.59 381.84 678.06 375.56"/>
      </g>
    </g>
    <g id="Washington_to_DC14">
      <g>
        <path class="st13" d="M733.78,330.36c2.02,2.02,3.89,4.19,5.63,6.47"/>
        <path class="st10" d="M742.98,342c22.12,35.57,13.04,91.19-29.53,68.25"/>
        <path class="st13" d="M710.71,408.69c-2.28-1.37-4.67-2.95-7.14-4.77"/>
        <polygon class="st29" points="709.4 402.29 704.89 404.83 703.57 409.84 697.55 399.17 709.4 402.29"/>
      </g>
    </g>
    <g id="Washington_to_DC15">
      <g>
        <path class="st13" d="M710.95,370.88c.74,2.97,1.54,5.73,2.3,8.27"/>
        <path class="st13" d="M715.87,392.91c-.34,2.81-1.9,4.77-5.51,5.83"/>
        <polygon class="st29" points="713.18 393.25 711.89 398.26 714.6 402.67 702.73 399.67 713.18 393.25"/>
      </g>
    </g>
    <g id="Washington_to_DC16">
      <g>
        <path class="st13" d="M598.93,445.79c1.49-2.64,2.95-5.1,4.39-7.38"/>
        <path class="st12" d="M606.87,433.02c15.34-22.1,28.39-25.03,53.98-31.81"/>
        <path class="st13" d="M663.95,400.39c2.62-.7,5.39-1.46,8.27-2.26"/>
        <polygon class="st29" points="669.99 403.56 670.68 398.43 667.45 394.38 679.62 395.98 669.99 403.56"/>
      </g>
    </g>
    <g id="Washington_to_DC18">
      <g>
        <path class="st13" d="M563.28,389.82c1.63-2.2,3.52-4.36,5.64-6.45"/>
        <path class="st7" d="M574.5,378.43c23.5-18.8,64.77-29.17,93.68-7.36"/>
        <path class="st13" d="M671.09,373.4c2.11,1.82,4.15,3.81,6.11,6.02"/>
        <polygon class="st29" points="671.14 379.68 676.12 378.26 678.55 373.68 681.97 385.45 671.14 379.68"/>
      </g>
    </g>
    <g id="Washington_to_DC19">
      <g>
        <path class="st13" d="M596.12,390.58c1.61-2.56,3.23-4.91,4.84-7.09"/>
        <path class="st4" d="M604.99,378.55c14.12-15.73,30.09-16.97,57.77-1.18"/>
        <path class="st13" d="M665.51,378.98c2.35,1.39,4.77,2.9,7.29,4.53"/>
        <polygon class="st29" points="667.14 385.51 671.47 382.67 672.41 377.57 679.21 387.78 667.14 385.51"/>
      </g>
    </g>
  </g>
</svg>