<?xml version="1.0" encoding="UTF-8"?>
<svg id="Layer_1" xmlns="http://www.w3.org/2000/svg" xmlns:xlink="http://www.w3.org/1999/xlink" version="1.1" viewBox="0 0 1200.98 857.84">
  <!-- Generator: Adobe Illustrator 30.6.0, SVG Export Plug-In . SVG Version: 2.1.4 Build 109)  -->
  <defs>
    <style>
      .st0, .st1 {
        fill: none;
      }

      .st2 {
        fill: #445dc3;
      }

      .st2, .st3, .st4, .st5, .st6, .st7, .st8, .st9, .st10, .st11, .st12, .st13, .st14 {
        stroke: #444;
      }

      .st3 {
        fill: #b53453;
      }

      .st4 {
        fill: #b32942;
      }

      .st5 {
        fill: #475ec4;
      }

      .st1 {
        stroke: #fff;
        stroke-miterlimit: 2;
      }

      .st6 {
        fill: #b12237;
      }

      .st7 {
        fill: #405bc2;
      }

      .st8 {
        fill: #415bc3;
      }

      .st9 {
        fill: #b6385a;
      }

      .st10 {
        fill: #425cc3;
      }

      .st15 {
        fill: #ffce38;
        stroke: #000;
        stroke-miterlimit: 10;
        stroke-width: .75px;
      }

      .st16 {
        fill: #fff;
      }

      .st11 {
        fill: #b73e62;
      }

      .st12 {
        fill: #b53656;
      }

      .st13 {
        fill: #5362c7;
      }

      .st17 {
        fill: #e5ecf6;
      }

      .st14 {
        fill: #3958c1;
      }

      .st18 {
        clip-path: url(#clippath);
      }
    </style>
    <clipPath id="clippath">
      <rect class="st0" y="114.81" width="1200.98" height="628.21"/>
    </clipPath>
  </defs>
  <g id="Layer_11">
    <rect class="st16" width="1200.98" height="857.84"/>
    <g class="st18">
      <g>
        <rect class="st16" x="-235.48" y="-277.53" width="2060.5" height="1471.78"/>
        <path class="st17" d="M418.87,726.78l-2.26-11.89,4-7.77-.45-6.57,13.95,6.79,8.56,10.12-3.41,3.95-12.92,7.62-7.51-2.3.03.03h0l.02.02ZM407.63,693.19l-5.64-6.66,2.01-3.38,7.65,2.21,5.23,3.26-2.59,3.71-6.66.86h0ZM399.56,682.19l-11.07-.53,1.41-2.85,9.66,3.38h0ZM376.9,673.1l1.6,4.56-7.62-1.18-3.38-5.83,6.42-3.04,3,5.51v-.03h0l-.02.02ZM339.53,655.72l4.2-.05,1.15,6.04-5.83,1.41-3.98-2.88,4.44-4.48v-.03h.02,0ZM914.15,732.42l-1.89-1.85,5.88-4.5,1.39,3.71-5.39,2.63v.03h0v-.02ZM206.71,157.91l-4.72-7.07,3.05-3.38,1.65,10.45h.02ZM207.17,133.94l77.69,12.1,77.62,13.07,77.45,14.03,77.19,14.96,107.01,3,.36-8.42,4.27,1,4.19,13.73,9.45,1.61,2.62,2.14,8.39-2.54,8.8,2.02,6.25,5.56,7.12,1.49,5.06,3.26,4-.74,6.45-3.91,3.04,2.88,7.33-.53,5.47,2.18,9.21-.94,8.39-5.92,4.62-1.85,28.75,13.3,29.12,13.57,1.51,3.88,11.22,6.54,5.88,5.15,6.42,1.94,3.98,7.09,12.78,5.85,12.13,39-1.68,8.77-1.2,11.22-5.68,10.09-3.12,1.61-.26,6.3,2.3,4,7.19,3.24,4.68-.88,17.28-14.84,15.27-6.06,6.38-3.67,14.02-10.74-6.57-13.61,7.62-5.63,25.58-5.03,6.88-6.3,1.97-6.3,14.93-21.1,6.25-5.34,12.78-2.5,38.5-9.92,6.38-8.85,5.23-4.82,3.17-10.48-1.24-10.04.94-9.87,6.88-20.25,3-.09,3.67,4.77,7.94-6.57,9.47,4.08,6.45,20.11,2.13,8.48,6,2.26,2.13,6.83,7.5,2.8,3.91,5.35-11.98,9.54-1.2,4.39-4-1.68-4.74,4.89-4.27-.41-4.5,12.99-2.44.38-3.45,5.34-4.74-.33-2.47,3.12-4.82,21.63,1.73,4.62-1.82,10.04,2.71-.17,8.54,9.13,5.51.26,4.24-3.09.62,5.18-11.1,1.61-7.62,6.5-5.18-5.27.5,8.75-23.76,8.84-10.12,8.42,1.6,1.82,21.19-8.44,6.06-1.44-16.45,12.8-14.98,6.59-4.72-1,5.42,8.97.74,10.98-2.18,7.89-5.23,10.12-2.97,1-13.73-7.21,7.81,11.8,4.24,1.6,2.63,8.65-1.29,9.54-4.72,13.69-1.56,7.93-3.98-2.44.62-7.51,2.8-6.09-3.05-1.53-4.36-8.42-2.71,3.21-4.2-4.72.57-3.74-2.85-12.68-4.32.15,2.88,15.42,5.27,8.13,2.76,11.6-1.94,1.39,3.67,9.33-3.38,2.8,2.06,4.07,3.86-2.23,5.42,1.06,4.5,9.68-.98,5.27-6.98,4.24-6.83-1.77,1.12,6.25,15.99-4.03,2.5,2.64.77,5.22-6.09,7.81-5.8,1.89-.53,5.15,5.42,2.95-2.33,5.1-11.22,3.5-7.29,8.13-8.54,13.21-4.27,1.15-6.57,4.27-4.74,7.62-.82,4.5-5.59,7.19-5.51,9.09-6.3,4.65-7.03,8.1-6.86,13.21-3.41,17.07,1.44,9.38,6.59,18.27,7.98,13.4,5.71,7.15,4.89,7.72,2.85,10.4,4.07,5.88,9.99,19.04,1.6,24.59-1.89.53-1.18,9.59-2.56,2.44-11.24,4.15-2.88-6.88-5.76-6.57-4.86-2.13-14.86-18.27-1.85.58-10.98-15.75-4.53-7.6,1.65-16.83-5.22-12.8-5.54-.53-12.04-12.78-9.06-5.06-4.39.77-9.26,8.22-10.81,3.62-2.47-5.51-11.03-5.76-8.01-2.18-8.34.17-23.02,5.42,1.44-2.68-4.12-7.15-4,7.5-12.04-.12-8.68,2.68-10.57,7.98,3.95,3.38,5.68-1.36.74,2.75-6.38,4.8,3.45,3.83,6.62,1.24,3.04,5.64-5.95,3.5-2.06-5.3-4.6-4.27-6.21-.67-2.35,4.08-6.98-.98-8.51,5.06-5.56-2.38-3.79-4.92-10.41-7.94-6.37,3.26-3,4.07-7.12-1.32-11.65-3.79-7.77.86-8.34,2.13-9.99,4.53-3.26-6.57-5.56,1.36,1.6,9.78-9.47,9.66-19.2,10.45-2.85,2.01-4.53-.67-6.26,3.45-5.39,7.36-4.77,13.49.21,11.01,1.24,6.78,5.44,12.75-4.08.58-14.51-3.12-7.29-2.5-9.54-5.01-4.24-.98-7.6-14.55-.45-8.92-2.68-5.18-5.13-5.18-8.92-13.12-6-16.45-11.86-12.58-5.56-3.62-11.96-2.35-9.42,1.72-3.16,5.01-2.35,6.78-6.18,4.89-3.47-1.12-13.21-8.22-8.65-8.13-2.44-5.88-.09-5.03-3.38-11.34-11.51-10.45-8.84-10.48-5.68-8.36-2.75-1.6-30.02-3.59-2.62.41-1.41,9.62-55.86-8.3-36.03-20.69-27.93-16.99.5-6.12-46.31-5.47-.53-11.43-2.5-8.27-8.24-10.72-5.75-5.64-13.74-11.22-5.3-6.3-15.51-5.13-1.82-2.71,2.33-10.83-4.2-11.8-9.3-20.69,1.12-17.31-2.64-1.2-3.05-6.57.62-8.89h6.62l-2.06-6.3-5.64-1.49-3.26-6.09-1.94-9.99-5.59-11.43.91-7.6,2.38-7.36.33-5.63-2.21-7.29-3.33-5.75.46-4.24,8.51-10.74,4.41-13.37,1.12-29.37,10.09-14.81,3.71-7.36,11.03-26.32,3.12-9.3,4.5-17.96,2.85-7.33,3.5-5.03-4.12-2.59.67-17.16-2.09-5.95,1.8-9.16,11.72,8.89,12.46,5.13,3.62.5-.24,5.97,1.92,3.29-2.71,6.26-6.5,5.71,2.23,1.2,6.71-3.79v-5.39l5.54-9.3-.74-10.52,1.36-3.24-3.47-8.56,1.32-1.03.05.17-.15.07h0ZM85.99,728.25l-.05-2.5,1.53,1.32-1.51,1.18h.03ZM93.44,730.11l-2.85.05,1.44-1.97,1.24-.41.17,2.33h0ZM101.96,730.55l3-1.2-.24,1.36-2.76-.15h0ZM133.6,730.73l-1.12-.94,2.85-2.33,1.03-.36,1.08,1.51-3.86,2.13h.02,0ZM143.95,725.87l1.82.41-.58,1.51-1.94.91-4.12,1.03-.86-.94,3.04-.57,2.68-2.38-.03.03ZM158.13,722.13l-5.01,1.03-.24-1.51,2.06-1.85,3.12-.82,1.77.12.33,1.6.77,1.41-2.8.05v-.03h0v.02ZM296.16,699.4l1.29-.05,1.85,1.06,1.82,1.82,3.21,5.13-1.56,1-2.68-2.47-1.6.33-1.36-.82.65-1.15-2.13-1.32.05-1.44-1.89-1.6-.7-2.09,1.36-.24,1.65,1.82v.03h.03ZM294.7,692.89l2.44,1.61-.86,1.06-2.59,1.15-2.26-.46.88,3.98-1.32.05-2.14-5.76,1.15-.57.15-1.56,2.71-.12,1.85.57v.05h0ZM289.11,699.96l-1.29-.26-1.27-1.68-1.89-1.18-.15-2.18-.67-1.51-1.41-.65.15-.7-.15-.46,2.59-.05.82.86,2.35,4.6.91,3.24h0v-.02ZM210.14,700.46l.29,2.35-2.83,1.24.67,1.39-1.24.94-1.48-.29-1.72,2.38-1.48-.86-2.01-3.53.74-1.85,1.61-1.15,1.08.12,1.48-1.92,1.61-.94,3.26,2.13h-.05.05,0ZM283.64,685.31l.5-.57,2.38.29.21,1.85,2.13,1.77.79,1.61-1.77,3.5-1-1.03-.36-2.3-2.92-5.15h.03v.02ZM280.38,685.86l3.29.65.17,1.27,1.27,2.14-.7,1.18-2.47-1,.57,1.61-.46.88-1.29-.5-1.61-2.01-1.72-.77-.36-1.51,2.68-2.3.65.29v.03h0l-.02.02ZM208.99,698.23l-2.54-.17,2.21-2.13.33-1.27,1.24-.26,1.68,1.32-2.95,2.5h.03ZM229.75,682.19l.09-1.92,1.29-2.42.77.45-2.13,3.88h-.03.02v.02ZM157.4,676.03l-.21,2.21-2.54,1.2-3.26-2.38-.91-1.94,5.18-.5,1.73,1.41h0ZM141.82,644.32l1.85,1.27,2.47-.33.53,1.41,1.65,1.82,1.41.53-.09,1.56-3,.36-1.73-2.88-2.13-1.44-1.24.53-1.18-1.72,1.41-1.08.03-.03h.02,0ZM240.49,600.92l14.6,73.74,2.01.33,2.68-.94.38-.65,2.38-.67v2.21l1.72.88,6.16,4.24.88,1.82,3.36-2.3.09-3.57,2.85-2.54,2.26,1.32,2.14,2.3,7,4.6,1.94,2.14,4.19,4.03,3.36,3.95,1.82,1.53,5.06.45,3.26.65.98,1.41-.17,1.32,1.82,4.19-.15,2.09-1.39,2.38-1.08-.21-1.73-3.17-1.08-.79-1.73,1.2-2.88-1.2-.58-1.08,1.29-4.36-2.13,1.08.77,1.48-2.92-.36.12-1.85,1.08-1.15-1-1.15-2.3-1.29-.86-1.27-2.54-.21-2.35-3.41-.24-1.41-2.83-2.42-2.5-.38-3.12-2.21,1.41,2.85-1.94-.5-4.77,2.63-4.19-1.65-3.91-2.92-4.41-1.32-2.47-1.03,1.12-1.56-1.32-.94-1.94,1.65-2.23.09-3.91-1.15-3.79-.29-4.29,1.41-1.27.09-1.15-1.08-1.85-.12-1.27-.79-2.59-.67.09-1.61-3.04.17-1.39-1.77-2.71-.38-2.5,2.38.67,2.63-.36,3.05-2.01,1.06-3.12-.62-3.38,5.03-1.61.24-1.39,1.48-2.62.77-.62-1.61,2.3-1.85-2.35-1.48,2.18-6.3.29-1.97,2.8-2.13,2.01.7.74-.79-1.32-1.8h-2.47l-3,2.18-3.05,4.98-1.73,1.51-.45,2.88-.74,1.44-4.41,2.64-.09,2.85,1.97-.29,1.61,1.61-.67,1.2-2.3,1.77-1.72,2.95-1.82.86-4.62,3.77-2.62,1.61.62,1.18-1.03,1.36-3.57,1.18-2.83,2.76h-1.41l-1.68,2.14-.62,1.8-4,1-.98-.46-2.97,2.01-3.86,1.41-1.18-.17-1.8.77-1.77,1.48-3.95.26-.91-1.53,3.33-1.65,1.77-2.09,2.59-1.68,2.38-.45,2.47,2.59,1.03-.98-.38-1.32,1.24-2.26,2.33-1.72,5.42-2.97,2.23-2.92,2.54-1.82.91-5.68.65-2.01,1.53-1.61-.77-.94-3.88,1.61-1.29-2.01-1.49.91.53,1.94-1.56.41-2.01-4.32-1.44.98-2.21-1.92-5.47,2.92.12-3.74-.67-1.97,1.49-2.01-1.89-5.35-1.24,1.41-2.26.77-2.23.09-1.65-.62v-1l-1.72-2.97-2.09-2.64,2.18-1.77-.21-1.85-1.32-.65-1.53-1.94-.57-1.92,2.26-4.44,2.33-2.5,1.6-.62.33-2.59,1.82-2.21,1.39-.17,2.3,2.18,2.62-1.24,1.41-1.72,4.24.15,1.6-2.01-.29-3.62-.82-1.41,1.73-1.8-.98-2.54-3.86,1.77-1.53,1.36-3.29-1.32-2.42-.33-2.85.45-3.53-1.68-1-4.56,1.41-1.32-2.8-1.29-2.23-1.92.7-1.27,7.39-3.17,5.13-1.36,2.01.57-1.12,2.88,1,1.08,2.95.26,2.64.74,1.53-1.73,1.27-.38-2.13-3.41.53-2.63h-2.64l-3.24-1.56-.09-2.13-.62-1.82-3.04-3.79-3.41-3.16.94-.57,1.03-2.63,5.85-.26,2.21-1.27,1.32-1.61,1.2-3.79,1.61-2.01,1.82-1.36,1.6.45,2.8-1.51,2.02-1.97,1.77.36,3.16-.53,1.2-.88,2.38-2.85,2.75,2.3,1.2-.62,1.32,1.27.21,1.36,3.91-.67,2.01,1.03-.12,1.39,1.77,1.27,1.77.17,4.32-1.08,4.68,1.73,1.8.41,2.59-.36,4.65,1.06,2.59-1.72,1.53-.15,5.39,2.47,1.2.15-.09.05h0v-.02Z"/>
        <path class="st1" d="M674.35,242.15l-4.07,1.44.65,12.95-.45-.09-3.91,2.71-3.36,2.35-2.09,4.32,3.45,4.15-1,5.88.21,6.18-.29,5.13,4.86,4.29,1.97.15,5.44,2.97,1.89,1.53,1.18,2.42,4.44,3.77,5.68,3.16.57,1.89.45,5.54.58,2.64-21.93.53-24.26.79-22.54.65h-18.25l.41-21.58-1.85-22.2-2.85-1.73-1.61-3.62.91-3.09,3.59-2.54.33-3.41v-4.15l-1-3.5-1.29-3.74-.7-4.68-.12-5.22-.58-1.27-.53-6.67-.12-3.17-.26-2.64-.67-4.65-1.82-4.77-1.82-4.15-.24-4.2-.09-4.41.62-2.95v-2.62l-1.36-3.26-.12-2.21,31.71.05.36-8.42,4.27,1,3.26,10.77v.21h0l.88,2.75,3.45.58.58.41,4.89.53.58.09,2.62,2.14,4.27-1.27,14.27,2.83,1.73.79,3.12,2.75,6.83,1.41.58.29,4.77,3.05,4-.74,6.45-3.91,3.04,2.88,7.33-.53,5.47,2.18,3.29-.33-15.01,8.34-10.57,9.66-10.24,10.12v3.38l.05.05-.03.03h0ZM306.71,158.96l30.38,6.16,75.23,9.95,75.11,10.83-3.26,41.66-1.61,27.88-2.54,20.93-27.06-2.85-28.99-3.05-25.1-3.59-31.71-4.5-1.72,11.6-.41.67-1.6-1.56-1-3.41-1.72-.91-3,4.15-3.88.12-8.92-2.92-.82,2.13-5.1-1.77-3.57,2.62-1.8-6.38-1.32-3.71-3.17-1.12-.74-1.89.21-6.04-2.3-3.36-.57-7.6-1.32-3.5-1.8-.88-2.21,2.83-3.62,2.13-2.35-2.85.98-5.76,2.02-1.12-.17-6.09,2.76-5.63,2.56-4.68-4.6-1.12-3.41-4.03-2.92-7.82-1.89-3.95-2.97-2.88-2.09-4.2.82-3.95-2.83-6.86,3.88-23.64.05.03.07-.09h0ZM592.39,191.06l.12,2.21,1.39,3.26v2.62l-.65,2.95.09,4.41.24,4.2,1.82,4.15,1.82,4.77.67,4.65.26,2.64.12,3.17.53,6.67.58,1.27.12,5.22.7,4.68,1.29,3.74,1.03,3.5v4.15l-30.59.79-26.04-.88-32.74-1.65-30.61-2.18,1.61-27.88,3.26-41.66,29.65,2.23,75.3,2.92h.03v.02ZM416.57,714.89l4-7.77-.45-6.47.41.12,13.57,6.59,7.53,8.75,1.03,1.48-2.42,2.76-6.45,3.77-6.86,3.65-1,1.18-7.09-2.21-.21-.94.17-3.95-1.65-4.12-.62-2.85v.03-.03h.02ZM407.63,693.19l-1.41-1.68-2.21-2.64-.41-.41-1.61-1.92,1.61-2.97,7.65,2.21,5.23,3.26-2.21,3.17-1.2.21-5.44.77h0ZM399.56,682.19l-7.62-.33-3.41-.21,1.41-2.85h0l9.66,3.38h-.03ZM367.48,670.63l6.04-2.83,1.2.94,2.18,4.32,1.39,4.44h0l-2.62-.33-4.82-.77-2.01-3.38-.79-1.6-.21-.33-.41-.53.05.03h0v.02ZM339.53,655.72l2.8-.09,1.41.12.77,3.79.17,1.6-1,.82-2.83.7-5.18-3,3.86-3.98v.03h0ZM306.71,158.96l-3.88,23.64,2.83,6.86-.82,3.95,2.09,4.2,2.97,2.88,1.89,3.95,2.92,7.82,3.41,4.03,4.6,1.12-2.56,4.68-2.76,5.63.17,6.09-2.02,1.12-.98,5.76,2.35,2.85,3.62-2.13,2.21-2.83,1.8.88,1.32,3.5.57,7.6,2.3,3.36-.21,6.04.74,1.89,3.17,1.12,1.32,3.71,1.8,6.38,3.57-2.62,5.1,1.77.82-2.13,8.92,2.92,3.88-.12,3-4.15,1.72.91,1,3.41,1.6,1.56.53.53-9.06,56.84-50.13-8.6-49.77-10.48,9.45-40.56,2.8-6.16-.67-3.21-2.64-2.13.98-3.62,3.38-4.6,4.41-3.71,3.83-6.79,3.47-5.34,2.23-2.56-.12-3.62-2.23-2.35-2.83-5.22,1.03-3.91-.67-3.74,6.59-31.31,6.38-28.38,14.72,3.24-.05-.03-.07.05h0ZM292.01,155.73l-6.38,28.38-6.59,31.31.67,3.74-1.03,3.91-32.24-7.36-6.06.91-3.83-1.94-3.47.98-6.42.98-6.86-2.13-4.08.88h-3.41l-2.13-1.94-5.39-2.47-3.65-.24-6.71.65-3.74-1.06-3.36-1.85-.26-3.38.62-3.79-1.61-5.13-4.07-2.54-3.09-3.12-4.65-1.49-3.41-1.03.21-.7.24-1.27,2.85-7.33,3.5-5.03-4-2.44.82-16.57-1.12-11.51,2.54-2.85,9.78,7.39,4.72,1.85,5.34,3.88,1.56,18.51-3.05,2.64,2.23,1.2,1.08-.57.09,1.24,4.08-3.67,1.44-.79.05-1.29.79-5.47,4.65-7.89-.74-10.52,1.36-3.24-3.36-8.42-.12-.15,1.2-1.08,40.75,11.15,44.25,10.69.03-.03h-.02v.02ZM206.71,157.91l-1.39-2.02.38-2.97.09-.86.88,5.85h.05ZM374.19,452.24l-17.96,130.01-22.37-3.12-16.2-2.5-40.85-23.52-24.26-15.1.36-5.51h-.17l2.62.58,2.85-4.24-2.71-3.71.17-3.57-.24-4.2,4.72-4.53,3.62-10.09,6.42-3.57-2.59-5.1-1.56-4.8-.77-4.2-.41-3.36.05-2.06,2.09-4.29-.15-4.62.53-4.5.98-4.86-.88-3.47,1.73-2.62,3.86.77,3.04,2.35,2.35,1.32,1.85-3.26.98-.58,3.36-18.39,28.87,4.98,34.59,5.68,26.11,4.03-.03.05h0v-.02ZM264.88,479.7l-.05,2.06.41,3.36.77,4.2,1.56,4.8,2.59,5.1-6.42,3.57-3.62,10.09-4.72,4.53.24,4.2-.17,3.57,2.71,3.71-2.85,4.24-2.62-.62-4.82-.53-38.62-4.53-2.68-.38-.53-11.43-.09-.36-.05-.57-.26-.5-2.09-6.86-8.24-10.72-5.75-5.64-.91-.77-.21-2.92-6.16-2.26-6.47-5.23-.12-.26-2.33-3.67-1.18-.41-1.68-1.97-14.02-4.62-3.05-4.15,2.09-9.88-4.2-11.8-6.98-15.6-1.27-3.16-.82-4.68.91-14.6-2.64-1.2-1.48-2.88-1.27-8.51.29-4.07h6.62l-2.06-6.3-5.34-1.41-3.45-6.16-.45-.91-1.65-9.13-4.53-9.18-1-3,.58-5.42.38-1.8,2.26-6.95.33-5.63-2.21-7.29-2.76-4.77-.57-1.53.17-1.65,3-5.35,5.8-7.41,4.41-13.37.21-7.21.67-2.26,69,19.54-17.57,67.44,25.22,38.59,25.08,37.21,24.52,35.26.09.05h.02v-.02ZM505.47,395.31l-2.13,35.82-2.18,34-17.57-1.2-21.6-1.82-30.85-2.95-28.62-3.24-28.38-3.67,12.58-92.2,17.16,2.26,17.16,2.09,34.42,3.53,17.07,1.53,34.35,2.56-1.44,22.51-.05.74.09.03h0ZM256.61,312.91l49.77,10.48-21.75,114.18-3.36,18.39-.98.58-1.85,3.26-2.35-1.32-3.04-2.35-3.86-.77-1.73,2.62.88,3.47-.98,4.86-.53,4.5.15,4.62-2.09,4.29-24.52-35.26-25.08-37.21-25.22-38.59,17.57-67.44,49.02,11.72-.05-.05v.03h.02ZM356.23,582.25l17.96-130.01,28.38,3.67,28.62,3.24,30.85,2.95,21.6,1.82-.67,11.48-4.48,60.72-3.21,43.48-18.01-1.41-34.91-3.24-17.43-1.89v1.94l1.44,3.17-30.02-3.59-2.23.46-.91-.12-1.2,9.42-15.72-2.09-.03-.03v.03h-.02ZM278.66,223.07l2.83,5.22,2.23,2.35.12,3.62-2.23,2.56-3.47,5.34-3.83,6.79-4.41,3.71-3.38,4.6-.98,3.62,2.64,2.13.67,3.21-2.8,6.16-9.45,40.56h0l-49.02-11.72-69-19.54v-14.57l.24-4.32,12.54-18.63,15.96-38.98,3.47-17.16,3.41,1.03,4.65,1.49,3.09,3.12,4.07,2.54,1.61,5.13-.62,3.79.26,3.38,3.36,1.85,3.74,1.06,6.71-.65,3.65.24,5.39,2.47,2.13,1.89h3.41l4.08-.86,6.86,2.13,6.42-.98,3.47-.98,3.83,1.94,6.06-.91,32.24,7.36.03.03h.02v-.02ZM306.4,323.42l50.13,8.6-3.74,22.3,33.97,5.71-12.58,92.2-26.11-4.03-34.59-5.68-28.87-4.98,21.75-114.18.03.05h0ZM365.06,274.65l.41-.67,1.72-11.6,31.71,4.5,25.1,3.59,28.99,3.05,27.06,2.85-3.53,46.98-3.91,46.15-17.07-1.53-34.42-3.53-17.16-2.09-17.16-2.26-33.97-5.71,3.74-22.3,9.06-56.84-.53-.53-.03-.05h0v.02ZM728.07,487.32v1.94l-1.72,3.33-3.12,2.56-.45,3.79-2.75,3.29.58,6.74-1.94,2.26-.24,1.85-3.21,1.92v3.45l-2.06,6.37-2.21,1.41-3.16,3.29-1.68,4.92-3.83,8.24-.05,5.59,2.44,5.88-.65,4.65h-16.25l-20.81,1.51-18.55.46.79-13.19h-4.41l-3.71.36-.91-1.48.21-20.4v-22.54l-4-24.55,22.13-.15,20.28-.57,19.4-.86,21.02.24,1.72,2.8-2.06,2.59-1.89,2.71-.88,2.33,11.98-.77h-.05.02v.02ZM603.61,317.47h18.25l22.54-.65,24.26-.79,21.93-.53.21,1.27,2.35,3.53-1.48,1.8.41,4.92.74,2.01,1.29,3.67,5.59,1.85,1.92,3.45,1.03,1.77,2.13,1.06.94,2.42,2.8,1.77,1.85,1.82-.57,6.26-2.85,5.44-1,1.77-3.88,1.49-5.83,1.49-1.24,4.03,2.18,1.72,1,3.59-2.02,4.08-1.08,3.59-4.19,3.65-.12,4.29-2.5-1.82-3.57-3.59-18.8,1.15-19.95.77-15.48.26-15.63.12-1.15-4.19.46-4.19-.33-3.98-1.92-6.66-1.12-2.8-1.12-.77-.15-5.35-1.08-3.86-3.16-4.41.17-1.94-1.08-3.86-.77-2.26v-2.14l-2.64-2.59,1.27-3.74.94-3.74.46-2.56-2.14-3v-5.68h2.21l-.09.03h-.02v.02ZM501.17,465.16l2.18-34,2.13-35.82h0l30.49,1.65,22.73.88,40.3.79h24.05l4.08,3.09h2.26l.67,3.29-2.56,4.32,1.51,2.23,2.18,4.8,4.62,2.21.21,24.81.21,24.93-15.92.15-32.86-.15-32.86-.65-18.1-.67-18.27-.88-17.07-1h.03l-.02.02ZM728.07,487.32l-11.98.77.88-2.33,1.89-2.71,2.06-2.59-1.72-2.8-21.02-.24-19.4.86-20.28.57-22.13.15v-10.65h-.15l-.21-24.93-.21-24.81-4.62-2.21-2.18-4.8-1.51-2.23,2.56-4.32-.67-3.33h-2.26l-4.08-3.05-2.3-4.92-2.76-3-2.92-3.65-.33-1.94,15.63-.12,15.48-.26,19.95-.77,18.8-1.15,3.57,3.59,2.5,1.82-1.36,5.85,1.94,6.79,3.17,4.68,3.47,3.79,4.27,2.88,1.68.88,1.73,4.41.57,3.86,2.02.86,3.21-1.72,3.67,3.53-.74,4.36-1.44,3.41-.91,4.15,2.71,3.38,3.71,3h2.18l5.01,4.8,1.89.53,1.72,5.47-.45,3.59,2.59,5.54,1.97-.79,3.47,3.41-.33,2.38.58,3.62-2.75,2.14-3.91,2.64-.36,2.3-.98,3.41-.98,5.76-.03.09.07.03h0ZM505.47,395.31l.05-.74,1.44-22.51-34.35-2.56,3.91-46.15,32.62,2.44,25.01,1.41,33.61,1.27,4.29,3.12,6.04,1.97,1.6-1.03,3.88.17,6.09-.12,4.19,2.95,4.68,2.09.77,1.82,1.41,1.18,2.83.33.77,2.26,1.08,3.86-.17,1.94,3.16,4.41,1.08,3.86.15,5.35,1.12.77,1.12,2.8,1.92,6.66.33,3.98-.46,4.19,1.15,4.19.33,1.94,2.92,3.65,2.76,3,2.3,4.92h-24.05l-40.3-.79-22.73-.88-30.49-1.65-.03-.05v-.07h0ZM483.6,463.95l17.57,1.2,17.07,1,18.27.88,18.1.67,32.86.65,32.86.15,15.92-.15h.17v10.62l3.98,24.55v22.54l-.17,20.4-8.36-4.5-5.34-2.42-4.2,1.65-6.71-.17h-4.07l-3.17,1.94-3.17.98-2.83-1.18-6.37,1.24-2.8-3.88-3.04,3.29-5.1-1.56-5.23-3.74-5.85,2.23-2.35-5.63-8.8.33-5.59-1.44-6.26-1.8-2.64-4.92-4.94,1.32-3.09-1.94-4.27-2.75.94-22.1.98-22.75-18.39-.88-18.37-1.06-18.19-1.24.67-11.48-.05-.09-.03.03h0ZM602.51,259.38l-.33,3.41-3.59,2.54-.91,3.09,1.61,3.62,2.85,1.73,1.85,22.2-.41,21.58h-2.18l-.03,5.64,2.14,3-.46,2.56-.94,3.74-1.27,3.74,2.64,2.59v2.14l-2.83-.33-1.41-1.18-.77-1.82-4.68-2.09-4.19-2.95-6.09.12-3.88-.17-1.6,1.03-6.04-1.97-4.29-3.12-33.61-1.27-25.01-1.41-32.62-2.44,3.53-46.98,2.54-20.93,30.61,2.18,32.74,1.65,26.04.88,30.56-.79h.02ZM648.44,560.79l18.55-.46,20.81-1.51h16.25l1.51,1.2-1.61,3.5,3.09,4.56-.74,2.95,2.71,3.83-2.56,2.5-.67,4.41-3.62,3.83-1.39,4.89-1.53,5.75-2.23,2.68,1,5.75,17.4-.15,18.63-1.12-.29,3.88-1.2,3.91,1.48,2.8,2.75,2.5,1,3.77.53,2.21.21.29-4.77,3.62,3.95,3.38,4.74-1.18.21.09.05,3.53-4.98,3.74,3.45,3.83,4.53.86,1.8,1.68-3.71,3.24-.77-.26-.21-.41-4.6-4.27-6.21-.67-2.35,4.08-6.98-.98-7.81,4.6h-.57l-14.55-10.62-5.39-4.12-6.37,3.26-2.13,2.75-3.71.79-3-.65-12.59-4.07-1.68.26-6.47.7-3.71.94h-.38l-1.53-2.42,1.97-3.45,2.88-3.05-.12-4.68-1.51-1.44,1.72-5.59,1.24-2.47,1.61-8.48-1.73-3.16-2.5-5.18-1.77-5.3-1.18-3.62-3.33-2.5-1.6-24.69-.03-.05h.02ZM406.36,578.17l-1.48-3.17v-1.94l17.45,1.89,34.91,3.24,18.01,1.41,3.21-43.48,4.48-60.72,18.19,1.24,18.37,1.06,18.39.88-.98,22.75-.94,22.1,4.27,2.75,3.09,1.94,4.94-1.32,2.64,4.92,6.26,1.8,5.59,1.44,8.8-.33,2.35,5.63,5.85-2.23,5.23,3.74,5.1,1.56,3.04-3.29,2.8,3.88,6.37-1.24,2.83,1.18,3.17-.98,3.17-1.92h4.07l6.71.17,4.2-1.65,5.34,2.42,8.36,4.5.91,1.48,3.71-.38h4.41l-.79,13.21,1.6,24.69,3.33,2.5,1.18,3.62,1.77,5.3,2.5,5.18,1.73,3.16-1.61,8.48-1.24,2.47-1.72,5.59,1.51,1.44.12,4.68-2.88,3.05-1.97,3.45,1.53,2.42-.57.24-3.71.94-3.16,1.36-7.21,2.47-2.88-5.83-5.56,1.36,1.6,9.57-11.72,11.15-16.93,9.16-.17.12-3.59,1.8-3.59-.57-6.26,3.45-5.39,7.36-4.77,13.49.21,11.01,1.24,6.78,1.29,3.17.33,3.71,2.83,6.06-3.12.38-14.51-3.12-7.29-2.5-9.54-5.01-3.83-.98-5.06-10.21-4.03-16.13-10.53-12.3-1.41-2.3-5.85-12.8-1.56-2.63-2.64-7.03-3.74-3.91-1.36-2.63-3.24-2.3-3.53-3.71-5.56-3.62-11.96-2.35-9.42,1.72-3.16,5.01-2.13,5.92-1.44,1.82-4.6,3.71-13.19-6.71-3.04-1.85-2.26-1.92-6.57-6.25-3.29-10.89.05-.65-3.38-11.34-5.76-5.15-7.15-7.69-2.71-2.33-4.72-5.76-5.68-8.36-2.75-1.6.05.12h.05v-.02ZM989.72,305.99l12.83-2.71,15.42-3.38,3.36,12.22-.21,3.04-17.89,6.66-10.12,8.42.7.82-.57.36h0l-.33-.7-1.27-2.56,3.21-3.09-1.89-1.65-3.21-17.43-.05.03v-.03h0ZM1017.98,299.94l-15.42,3.38-12.83,2.71-.09-16.4,13.42-3,19.73-4.89,1.24-2.64,2.88-2.44,2.06-.12,1.41,5.18-1.61,8.42,2.71-.17,8.54,9.13,5.51.26,4.24-3.09.5,4.08-2.09,1.36-8.85,1.32-6.45,5.42-.62.17-1.39-3.29-3.29-1.89-2.8-5.59-6.79,2.13.03-.03h-.02ZM1028.96,276.5l-2.06.12-2.88,2.44-1.24,2.64-19.73,4.89-1.8-1.97.46-3.21-1.03-6.04.12-1.48-.77-5.54.65-4.92.67-2.26.58-5.76-.5-3.74-.12-2.3,2.83-1.82,2.85-3.5-.15-2.95-2.01-2.88.29-6.59h0l.05-1.56,4.74-6.78,13.21,40.32v2.44l3.91,2.5,1.6,2.88,1.18-.45-1.06,4.39.21.74-.05.36h0l.05.03h0ZM1021.09,315.19l.21-3.04-3.36-12.22,6.79-2.13,2.8,5.59,3.29,1.89,1.39,3.29-.86.57-4.92-4.92.41,7.77-3.5,2.35-2.26.82h.02v.02ZM1003.02,286.6l-13.42,3-3.95-18.75-2.26.45-.5-.77.24-3.59-2.92-5.44.5-5.06-1.73-3.21-2.06-6.54-.12-3.04-.65-4.56,17.14-4.39,11.86-3.05h0l-.29,6.59,2.01,2.88.15,2.95-2.85,3.5-2.83,1.82.12,2.3.5,3.74-.58,5.76-.67,2.26-.65,4.92.77,5.54-.12,1.48,1.03,6.04-.46,3.21,1.8,1.97h-.05v-.02ZM757.56,508.91l23.4-1.97,23.9-2.23,8.06,28.14,7.19,22.37,3.5,6.91,2.26,3.95-2.76,4.41-.24,7.36,1.6,4.24-.09,4.08-.12,3.88,1.6,2.71,1.24,2.64-39.82,4.29-11.19,2.42-.21,1.73,5.06,5.22-.7,4.56-.88,2.64-2.35.53-4.65-.24.65-1.12-4.12-7.15-4,7.5h-3.5l-3.36-35.03.24-37.18,1.03-30.32-1.77-4.39h.05l-.03.05h0ZM779.4,616.31l.88-2.64.7-4.56-5.06-5.22.21-1.73,11.19-2.42,39.82-4.29,3.62,5.8,19.99-1.39,32.17-.86,2.02,3.67,2.26-2.38-1.18-7.93,2.23-1.08,4.24.98,4.07-.17,5.92,15.37.21.09,2.01,5.63,7.98,13.4,4.07,5.15,1.89,2.26,4.65,7.41,1.77,6.06.45,2.71.57.98.12.62,1.03,1.56,9.88,17.57,2.47,4.29,1.32,11.24.91,13.66-.38,1.24-1.51.46-1.18,9.59-2.56,2.44-8.44,3.05-3.41-.29-2.26-5.51-5.76-6.57-4.86-2.13-14.86-18.27-1.68.57-2.88-3.86-8.27-11.86-4.03-6.83-.5-.88,1.03-9.04.91-7.09-.24-.29-.05-.33-5.22-12.8-4.2-.38-11.01-10.45-2.38-2.47-.62-.36-1.72-1.72-2.92-.91-3.79-2.09-4.39.77-8.6,7.6-1.2.79-9.88,3.29-.82-.65-2.02-4.72-7.72-4.08v-.12h-.21l-3.16-1.6-8.01-2.18h0l-1.73-.58-3.05.74h-3.5l-15.22,3.59-.05.12v.03h0ZM827.11,595.41l-1.24-2.64-1.6-2.71.12-3.88.09-4.08-1.6-4.24.24-7.36,2.76-4.41-2.26-3.95-3.5-6.91-7.19-22.37-8.06-28.14,14.36-1.41,9.99-1.41,23.14-2.8-1.8,2.21-2.35,4.77,5.54,3.16,3.29.94,4.5,6.86,2.83,3.71,7.41,4.44,1.65,2.68,5.1,3.04,2.95,5.22,6.86,3.74,2.02,5.01,1.61,2.35-.45,1.8,3.95,1.97,2.63,3.91.5,4.36,1.92.57,3.57.62-1.12,2.23-2.95,5.76-.17,1.2-2.76,5.83-.21,9.33-.26.67.09.65-.21,5.97-4.07.17-4.24-.98-2.23,1.08,1.18,7.93-2.26,2.38-2.02-3.67-32.17.86-19.99,1.39-3.62-5.8h.05l-.03-.07h0ZM704.08,558.8l.65-4.65-2.44-5.88.05-5.59,3.83-8.24,1.68-4.92,3.16-3.29,2.21-1.41,2.09-6.37v-3.45l3.17-1.92.24-1.85,18.39-1.2,20.49-1.15,1.77,4.39-1.03,30.32-.24,37.18,3.36,34.97-8.51-.09-8.68,2.68-5.8,4.36-.21-.29-.53-2.21-1-3.77-2.75-2.5-1.48-2.8,1.2-3.91.29-3.88-18.63,1.12-17.4.15-1-5.75,2.23-2.68,1.53-5.75,1.39-4.89,3.62-3.83.67-4.41,2.56-2.5-2.71-3.83.74-2.95-3.09-4.56,1.61-3.5-1.51-1.2.03.05h0l.02.02ZM904.09,560.38l-3.57-.62-1.92-.57-.5-4.36-2.63-3.91-3.95-1.97.45-1.8-1.61-2.35-2.02-5.01-6.86-3.74-2.95-5.22-5.1-3.04-1.65-2.68-7.41-4.44-2.83-3.71-4.5-6.86-3.29-.94-5.54-3.16,2.35-4.77,1.8-2.21,1.65-.88,9.57-5.47,17.02-2.33,8.75-.26.5,2.01,1.65-1.8,3.57,3.45.26,2.68,20.66-3.24,24.6,17.93-.74.91-2.88,1.94-4.74,7.62-.82,4.5-5.59,7.19-2.68,4.39-10.09,10.07-1.18,1.72-4.89,5.68-2.35,4.62-.45.62h-.09v.03h0ZM690.68,388.28l.12-4.29,4.19-3.65,1.08-3.59,2.02-4.08-1-3.59-2.18-1.72,1.24-4.03,5.83-1.49,3.88-1.49,1-1.77,2.85-5.44.57-6.26-1.85-1.82-2.8-1.77-.94-2.42-2.13-1.06-1.03-1.77,17.23-1.06,17.52-1.18,12.99-.86v-.12h0v.12l.67,5.97,5.63,11.77h0l2.38,26.73,2.42,26.85-1.56,6.62,1.61,1.6,1.32,3.88.12,3.12-1.36,1.53-.98,3.98-3.21,5.35-1.94,6.54-.29,4.65.33,1.72-1.73,3.47,1.68,2.02-3.04,1.97-3.88,2.26,1.06,4.98-2.21,2.13-4.56-1.8-4.98-.91-1.03,2.33.94,3.5-3.47-3.41-1.97.79-2.59-5.54.45-3.59-1.72-5.47-1.89-.53-5.01-4.86h-2.18l-3.71-2.97-2.71-3.38.91-4.15,1.44-3.41.74-4.36-3.67-3.53-3.21,1.72-2.02-.86-.57-3.86-1.73-4.41-1.68-.88-4.27-2.88-3.47-3.79-3.17-4.68-1.94-6.79,1.36-5.85.12-.15v-.05h-.02ZM754.18,443.43l.29-4.65,1.94-6.54,3.21-5.35.98-3.98,1.36-1.53-.12-3.12-1.32-3.88-1.61-1.6,1.56-6.62-2.42-26.85-2.38-26.73h0l1.72,1.36,5.68-.62,4.32-3h0l18.31-1.65,15.89-2.01.21,1.82,2.47,20.9,2.5,22.51,1.89,16.01-1.03,1.2,2.02,4.53-.45,1.8-3.12.46-2.38,2.33-4.36-.38.15,4.41-2.3,1.97-1.89,4.2-2.56,1.03-3.09,7.36-3.86-1.65-1.44-2.64-2.68,4.92-1.73,2.76-4.08-2.42-3.95,2.64-1.12,2.38-5.83-3.04-3.59,2.92-4.82-1.41.05,2.59-2.38-.45-.03-.05v.03h0ZM730.38,475.84l3.91-2.64,2.75-2.14-.58-3.62.33-2.38-.94-3.5,1.03-2.33,4.98.91,4.56,1.8,2.21-2.13-1.06-4.98,3.88-2.26,3.04-1.97-1.68-2.02,1.73-3.47-.33-1.72,2.38.45-.05-2.59,4.82,1.41,3.59-2.92,5.83,3.04,1.12-2.38,3.95-2.64,4.08,2.42,1.73-2.76,2.68-4.92,1.44,2.64,3.86,1.65,3.09-7.36,2.56-1.03,1.89-4.2,2.3-1.97-.15-4.41,4.36.38,2.38-2.33,3.12-.46.45-1.8-2.02-4.53,1.03-1.2,6.12-.21,3.38,1.85,5.23,4.65,3.98,1.12,3.04,1.44,4.03-1.18,3.29.98,3.59-1.8,3.38-.91,1.77,3.12,3.59,1.68.65,2.18.53,4.8,2.68,3.29,1.32,3.29,3.09,2.59,2.23,2.59,3.38-.05-1.6,1.97-4.6,5.88-5.15,3.45h0l-.24,1.97-1.51,2.71-4.36,3.21-.29.26-.15.24-1.06,2.21-2.75,1.36-.79.53-5.23,2.01-12.06,2.3-16.16.94-5.22.91-10.57.5-10.69.88-9.83.82-11.31,1.65-.77-1-3.57.29.29,3.65-26.03,1.77.03.09.09-.03h0ZM852.32,499.06l-23.14,2.8-.26-4.94,3.79-1.89.88-2.59,2.38-3.24,3.53-1,4.29-1.65,3.83-2.56,1.6-2.26,3.16-2.26-.24-1.72,4.15-3.74,1.82,1.8,6-5.34,3.29-.05,2.3-4.27,3.38-1.6-.67-3.26.05-2.95-7,1.48,7-1.48,30.76-3.86,35.87-6.38,19.01-3.98,16.99-3.65,1.82-.38,1.27,2.68.26.38-1,5.15-6.98,4.24-6.83-1.77,1.12,6.25,15.99-4.03,1.41,1.68,1.72,4.6.17,1.61-6.09,7.81-5.8,1.89-.53,5.15,5.42,2.95-1.72,3.77-3.95,2.47-7.89,2.38-4.36,4.92h0l-.15.15-2.8,3.05-8.54,13.21-4.27,1.15-1.48.82-1.51.62-24.6-17.93-20.66,3.24-.26-2.68-3.57-3.45-1.65,1.8-.5-2.01-8.75.26-17.02,2.33-9.57,5.47-1.65.88.09-.09h.09ZM808.63,407.9l-1.89-16.01-2.5-22.51-2.47-20.9,8.8-1.18,7.72-.98,6.26-1.03h0l11.03,3.36h8.68l11.8-4.94,9.04-7.93,8.1-4.44,5.03,30.69-2.21,1.56,1.27,2.75.05,5.42-.98,6.25-.79,5.23.05,2.38-3.83,6.06-1.94,1.39-2.18,1-2.18-.21-3.26,4.62v4.24l-.36,2.33-1.36,1.06-.7-2.5-2.35-.21-1.72,5.35.41,5.15-1.82,3.53-4.36,1.18-3.59-1.68-1.77-3.12-3.38.91-3.59,1.8-3.29-.98-4.03,1.18-3.04-1.44-3.98-1.12-5.23-4.65-3.38-1.85-6.12.21.03.03h0v-.02ZM718.7,511.26l1.94-2.26-.58-6.74,2.75-3.29.45-3.79,3.12-2.56,1.68-3.33v-1.94l1.03-5.76.98-3.41.36-2.3,26.03-1.77-.29-3.65,3.57-.29.77,1,11.31-1.65,9.83-.82,10.69-.88,10.57-.5,5.22-.91,16.16-.94,12.06-2.3,5.23-2.01.79-.53-.79.53-5.23,2.01,27.11-2.88,2.18-.45,7-1.48-.05,2.95.67,3.26-3.38,1.6-2.3,4.27-3.29.05-6,5.34-1.82-1.8-4.15,3.74.24,1.72-3.16,2.26-1.6,2.26-3.83,2.56-4.29,1.65-3.53,1-2.38,3.24-.88,2.59-3.79,1.89.26,4.94-9.99,1.41-14.36,1.41-23.9,2.23-23.4,1.97-20.49,1.15-18.39,1.2-.03.03h-.07ZM842.28,460.63l2.75-1.36,1.06-2.21.15-.24.29-.26,4.36-3.21,1.51-2.71.24-1.97h0l5.15-3.45,4.6-5.88,1.6-1.97,1.41,3.71,1.92,1.44.41.38,3.12,1.39,3.71-2.62,1.56-1h0l2.44,1.36,5.23-2.56,1.12-.5v-2.09l2.13.53,1.92-1.94.15-.15h0l2.54-.09,2.54-2.26v-2.09l-.79-2.71h0l1.82-4.32,2.95-3.65.24-3.53,1.27-2.5,1-2.02.94-5.3h0l2.59,1.41,2.88,1.12,2.3-1.29.58-2.3,1.12-3.16.94-2.23.41-1.39h0l1.48.7,2.09-3.33,1.61-2.14,1.24-1.53.53-.77,1.15-1.85.21-5.06.09-1.32h0l9.13,4.07.94.46,1.08-4.72h.5l2.21.24,2.63,1.36h0l-.58,2.09-.21.58,3.98.65,3.74,1.89h0l1.85,1.72.09,1.29h0l.05,1.97-.53.65-1.94,2.02-.91,5.56,2.5.7,2.59-1.49,1.32,2.35.45.57,13.24,4.74,1.56,6.59-1.94,1.39,3.67,9.33-3.38,2.8,2.06,4.07,3.86-2.23,5.42,1.06,3,6.71-1.82.38-16.99,3.65-19.01,3.98-35.87,6.38-30.76,3.86-7,1.48-2.18.45-27.11,2.88,5.23-2.01.79-.53-.12.03h-.1,0ZM978.85,404.85l-5.71,19.61-1.97-1.12,1.39-9.62,1.85-4.15-1.32-.58.12-1.03h0l1.65-1.89,4-1.2h0v-.02ZM690.56,315.5l-.58-2.64-.45-5.54-.57-1.89-5.68-3.16-4.44-3.77-1.18-2.42-1.89-1.53-5.44-2.97-1.97-.15-4.86-4.29.29-5.13-.21-6.18,1-5.88-3.45-4.15,2.09-4.32,3.36-2.35,3.91-2.71.45.09-.65-12.95,4.07-1.44,15.63-5.51,9.99,7.19.15.09,1-.46v.12l2.56.58,1.44,4.07,14.19,3.09,9.66,3.45,4.48-.24h3.12l1.2,3.71,3.86,1.18,1.77,3.05-.88,2.01-.45,3.77,3.62-.09-.88,3.71,2.35,2.56h.15l.33.05-.12.24-5.63,8.84,2.5,2.56,10.57-15.92,2.38-.24-6.79,18.39-2.23,16.4-2.13,13.28,3.16,11.13v5.71h0v.12l-12.99.86-17.52,1.18-17.23,1.06-1.92-3.45-5.59-1.85-1.29-3.67-.74-2.01-.41-4.92,1.48-1.8-2.35-3.53-.21-1.27-.03-.03h-.02ZM863.91,437.4l-3.38.05-2.23-2.59-3.09-2.59-1.32-3.29-2.68-3.29-.53-4.8-.65-2.18,4.36-1.18,1.82-3.53-.41-5.15,1.72-5.35,2.35.21.7,2.5,1.36-1.06.33-2.33v-4.24l3.29-4.62,2.18.21,2.18-1,1.94-1.39,3.83-6.06-.05-2.38.79-5.23.98-6.25-.05-5.42-1.27-2.75,2.21-1.56,3.47,21.1,18.01-3.05,1.89,11.65,2.38-2.59,2.44-3.16,3.24-1.44,1.97-2.88h5.15l1.61-2.02,3.04-2.44,5.64.88,2.71,2.76,2.02,2.68-1.08,4.72-.94-.46-9.13-4.07h0l-.09,1.32-.21,5.06-1.15,1.85-.53.77-1.24,1.53-1.61,2.14-2.09,3.33-1.48-.7h0l-.41,1.39-.94,2.23-1.12,3.16-.58,2.3-2.3,1.29-2.88-1.12-2.59-1.41h0l-.94,5.3-1,2.02-1.27,2.5-.24,3.53-2.95,3.65-1.82,4.32h0l.79,2.71v2.09l-2.54,2.26-2.54.09h0l-.15.15-1.92,1.94-2.13-.53v2.09l-1.12.5-5.23,2.56-2.44-1.36h0l-1.56,1-3.71,2.62-3.12-1.39-.41-.38-1.92-1.44-1.41-3.71.03-.09h.02ZM982.36,393.71l-11.51,2.54-7.57-28.7.88-2.06,1.36-1.39,3.95.46-2.02,2.85,1.44,4.29.88,1.8-1.92-1.12,7.81,11.8,3.5,1.32.79.46,2.42,7.72h.02v.02ZM946.03,393.34h0l-.09-1.29-1.85-1.72,1.08-1.32,2.75,1.85-1.85,2.47h-.03,0ZM978.85,404.85h0l-4,1.2-1.65,1.89h0l-2.76-1.72-3.47-6.62-2.44,2.95-1.18-.74-1.15-1.41-1.77-5.23.17-.79-2.85-12.68-4.32.15,1.85,9.71-.15,1.68.88,1.8.29,2.23,3.04,4.74,2.56,4.86-12.34-1.18-.45-.57-1.32-2.35-2.59,1.49-2.5-.7.91-5.56,1.94-2.02.53-.65-.05-1.97,1.85-2.47-2.75-1.85-1.08,1.32h0l-3.74-1.89-3.98-.65.21-.58.58-2.09h0l-2.63-1.36-2.21-.24h-.5l-2.02-2.68-2.71-2.76-5.64-.88-3.04,2.44-1.61,2.06h-5.15l-1.97,2.83-3.24,1.44-2.44,3.16-2.38,2.59-1.89-11.65,16.04-2.92,5.44-1.03,12.16-2.44,14.72-2.85,15.13-3.29,7.57,28.7,11.51-2.54.17.74v.12l-.05.45-3.62,9.83.09.03v-.05h0ZM968.88,371.72l-1.44-4.29,2.02-2.85,3.04-2.88.94-1.73,3.29-3.83,1.65-3-6.67-4.65-.7-2.38-2.02-.21-.82-3.67,1.41-3.29-1.6-2.75,2.21-2.59,1.82-5.68,1.8-1.49,15.01,5.97.5,4.86-1.94,3.65-1.56-.29,1.03,1.53-1.2,2.59,2.8-.09,2.47,4.15v12.88l-7.12,17.19-2.21.7-.38-.15-1.36-3-4.08-.29-6.86-4.44v.05h-.02v-.02ZM989.72,305.99l3.21,17.43,1.89,1.65-3.21,3.09,1.27,2.56.33.7h0l-.82.74,1.65-.74.65.62,21.19-8.44,2.33-.58,1.68.79-11.63,9.04-7.27,4.12-1.51.7-10.16,2.54v-2.97l-.53-4.86-15.01-5.97-3-.98-3.16-.94-1.82-3.12-.09-2.5-2.47-1.65-4.5-2.75-22.54,4.8-24.31,4.8-25.96,4.72-1.08-6.25,10.62-14.6.41-.29v-.12l.74-1.12-.7-2.14h0l-2.76-6.57,7.29-4.07,13.09-1.61,13.74-.77,10.72-9.99-2.95-8.65-2.3-2.8,13.12-19.3,6.16-5.75,8.68-2.01,4.6-.98,10.86-2.71.65,4.56.12,3.04,2.06,6.54,1.73,3.21-.5,5.06,2.92,5.44-.24,3.59.5.77,2.26-.45,3.95,18.75.09,16.4h.03-.02ZM878.27,362.04l-5.03-30.69,11.48-8.77h.15l1.08,6.21,25.96-4.72,24.31-4.8,22.54-4.8,4.5,2.75,2.47,1.65.09,2.5,1.82,3.12,3.16.94,3,.98-1.8,1.49-1.82,5.68-2.21,2.59,1.6,2.75-1.41,3.29.82,3.67,2.02.21.7,2.38,6.67,4.65-1.65,3-3.29,3.83-.94,1.73-3.04,2.88-3.95-.46-1.36,1.39-.88,2.06-15.13,3.29-14.72,2.85-12.16,2.44-5.44,1.03-16.04,2.92-18.01,3.05-3.47-21.1h-.05l.02.02ZM1029.87,271.03l-1.18.45-1.6-2.88-3.88-2.5v-2.44l-13.24-40.32.24-.29,1.12-1.06,4.39-3.95.77-3.41,2.14-6.88-.24-1.39-.17-18.25.09-.24,6.83-19.9,6.57,4.27.17.05.74-.65,7.74-5.71,8.8,3.86.17.05,2.01,6.04,5.23,17.6,1.36,4.92.21.15.38,1.2,6.5,4.36,1.03,3.36,7.33,2.75,2.38,3.05,1.68,2.26-.12.15-11.84,9.47-1.2,4.39-4-1.68-4.74,4.89-4.27-.41-4.5,12.99-2.44.38-3.36,5.06-.12.15-4.72-.24-2.47,3.12-3.77,17.23-.03.03v-.03h.02ZM747.57,274.41l-.33-.09h-.15l-2.35-2.56.88-3.71-3.62.09.45-3.77.88-2.01-1.77-3.05-3.86-1.18-1.2-3.74h-3.12l-4.48.29-9.66-3.45-14.19-3.09-1.44-4.07-2.56-.58v-.12l-1,.46-.15-.09.15.09,11.84-6.59,12.04-8.3,13.21-8.6-3.95,12.46,9.18,2.09,11.96,7.74,13.45-6.47,15.3-3.71,3.95,5.95,4.94.38.77-2.33h0l-.77,2.33,4.36.21h0l9.09,8.06-13.81,3.74h-.62l-12.68-.94-11.98,5.85-10.81,3.09-8.06,15.48.09.12h0l.02.02ZM824.56,345.3h0l-6.26,1.03-7.72.98-8.8,1.18-.21-1.82-15.89,2.01-18.31,1.65h0l3.16-3.45,5.76-12.01-1.12-15.27-7-13.69-.21-9.75,3.26-11.72,3.12-8.15,5.85-6.21,2.35,7.57,1.6-11.65,3.33-2.75,1.24-8.92,14.22,2.88,12.92,7.33,2.76,10.28-.12,10.57-7.77,10.4,1.65,5.63,3.24-.21,8.85-11.43,6.38,1.39,4.8,12.92,2.13,9.33h0l-5.95,13.73-.65,2.14-2.09,1.03-.29,6.09-4.24,8.89v.03-.03h0ZM210.14,700.46l.29,2.35-2.83,1.24.62,1.27-.15.15-1.2.88-1.29-.26-1.72,2.35h-.03l-.62-.33-1.15-1.06-.74-1.27-.5-2.88.17-.33,2.01-1.48.79.12,1.15-1.51,2.06-1.15.33.05,2.83,1.82h-.03v.03h.02ZM157.4,676.03l-.21,2.21-2.54,1.2-1.2-.88-1.08-.94-1.85-2.5,4.6-.46,1.39.58.91.77v.03h0l-.02-.02ZM143.67,645.59l2.06-.29.86,1.03.12.33,1.65,1.82,1.41.53-.09,1.56-2.8.36-.62-.65-1.36-2.23-.53-.36-.17-.33h-.36l-1.08-.77-1.12.46h-.17l-.98-1.44.17-.5,1.08-.82,1.24.82.12.12h.05l.46.33.03.03h.02,0ZM274.63,679.53l.09-2.75,2.88-3.26,3.24,3.41,3.62,2.35,3.91,1.94.62.38,1.94,2.14,3.04,2.95,1.77,1.82,2.76,3.24,1.82,1.53h.15l.29.26,8.85,2.21h0l-.17,1.39,1.82,4.19v.38l-.57,2.44-.45.77-2.88-1.65-.45-.86-1.08-.79-1.27.88-2.14-.5-1.48-2.63.98-3.21-2.13,1.08-.86-1.53-.24-.15.17-.24-1-1.15-2.3-1.29-.86-1.27-2.54-.21-2.35-3.41-.24-1.41-2.83-2.42-2.5-.38-3.12-2.21,1.41,2.85-1.94-.5-4.77,2.63-4.19-1.65-3.91-2.92-4.41-1.32-2.47-1.03,1.12-1.56-1.32-.94-1.94,1.65-2.23.09-3.91-1.15-2.85-.24-.46-.12-.15.05h-.36l-3.26,1.06-1.24.38h-.58l-.74-.21-.88-.82-1.85-.12-1.27-.79-2.59-.67.09-1.61-3.04.17-1.39-1.77-2.71-.38-2.5,2.38.09.33-.53.24.91,3.79-.17,1.32-2.01,1.06-3.12-.62-2.88,4.32-.91.77-1.2.17-.94,1.03-2.56,1.08-.41.12-.29-1.94,1.89-1.51-2.26-1.41.12-.65,1.97-5.71.29-1.97,1.27-.94,1.65-1.12,1.89.67.74-.79-1.32-1.8h-2.14l-.12-.17-.17.15h-.03l-3,2.18-1.27,2.09-.29.24-.36.77-1.15,1.85-1.73,1.51-.36,2.44-3.53,3.57-1.68.98-.09,2.85,1.97-.29,1.61,1.6-1,1.48-1.97,1.53-1.72,2.95-1.82.86-4.44,3.65-2.01,1.03-.09.29-.7.41.36.65-.57,1.61-.21.26-3.57,1.18-2.47,2.42-.67.33h-1.08l-1.68,2.18-.62,1.8-4,1-.98-.46-2.26,1.53h0l-4.44,1.82-.15.05-1.18-.17-1.8.77-1.73,1.48h-.03l-3.95.26-.91-1.53,3.33-1.65,1.56-1.85,1.94-1.39.82-.53h0l2.68-.15,2.18,2.3,1.03-.98-.38-1.32.15-.24,2.44-3,1.72-1.12,4.65-2.59,2.23-2.92,2.54-1.82.91-5.68.45-1.41.46-.82,1.27-1.36-.36-.46.5-1.06-4.86,2.13-1.27-1.92-1.49.91.24.91-1.24,1.41h-.03l-.15-.24-1.85-4.07-.29.21-.09-.21-.17.36-.86.58-1.12-.98-.38-1.36-.7.41h-.03l-4.32,2.3-1.15-.15.12-3-.7-1.94.05-.05,1.48-1.97-1.89-5.35-1.24,1.41h-.03l-4.74.74-.21-.05-2.71-4.19-.05-.09-.09-.17-2.09-2.64,2.18-1.77-.21-1.85-1.32-.65-.65-.82-1.06-1.8-.36-1.24,2.13-4.19,2.8-2.88,1.29-.5.21-1.72.98-1.89.62-.74,2.26-.12,1.77,1.65.65-.29.33.24.7-.7.94-.46,1.41-1.72,2.14.12.7.26.33-.26h1.06l1.6-1.94h0l-.24-3.36v-.38l-.12-.09-.74-1.24,1.73-1.8-.33-.82.5-.5-.7-.05-.45-1.15-3.86,1.77-.58.5-.33.12-.45.57-.17.21-3.12-1.27h-.03l-.15-.05-2.42-.33-2.64.41-3.88-2.35-.86-3.86,1.41-1.32-2.8-1.29-1.36-1.15-.65-1.12.41-.74,2.76-1.24,2.3-1,6.38-2.13,1.06-.29.38.05,1.72.5-1.12,2.88.53.62-.05.26h.36l.17.24,2.95.26,2.64.74.57-.67h.21l-.05-.15.79-.91,1.27-.38-2.13-3.41.53-2.63h-2.64l-3.24-1.56-.09-2.13-.62-1.82-3.04-3.79-.09-.05-.05-.12-1.24-1.08-2.02-1.89.94-.57,1.03-2.63,5.23-.21h.58l2.21-1.29,1.32-1.61v-.05h.05l1.2-3.74h0l2.85-2.95.53-.38,1.6.45,2.8-1.51,1.24-1.2,1.24-.7,1.32.29,2.18-.36.21.05.15-.09.62-.12,1.2-.88,2.38-2.85,2.75,2.3,1.18-.58h.05l1.92,3.59.98-1.24,1.12-.17,2.35.17,1.06.57-.12,1.39,1.77,1.27,1.77.17,4.15-1.06,2.47.88,2.38.86,1.8.41,1.29-.17h2.21l2.5.65.53.15.05-.05.58.15,2.59-1.72.62-.05,4.2,1.51h.12l1.97.88,1.2.15,14.6,73.74,2.01.33,2.23-.77,4,1.27,3.53,2.76,4.8,4.32.79-1.56,2.18-1.48-.05-.05.05-.07h0ZM294.7,692.89l2.44,1.61-.12.15-3.65-2.18,1.32.38v.03h.02ZM283.64,685.31l.5-.57,1.82.24-2.33.38h0v-.05h.02,0ZM279.72,685.57l.65.29.57.12-2.35.58,1.15-.98v-.03h-.02v.02ZM159.83,719.08l.33,1.6.77,1.41-2.8.05-4.92.98-.21-.65-.12-.7,5.34-2.76,1.6.09h.03-.02Z"/>
        <g>
          <path class="st8" d="M1003.02,286.6l-13.42,3-3.95-18.75-2.26.45-.5-.77.24-3.59-2.92-5.44.5-5.06-1.73-3.21-2.06-6.54-.12-3.04-.65-4.56,17.14-4.39,11.86-3.05h0l-.29,6.59,2.01,2.88.15,2.95-2.85,3.5-2.83,1.82.12,2.3.5,3.74-.58,5.76-.67,2.26-.65,4.92.77,5.54-.12,1.48,1.03,6.04-.46,3.21,1.8,1.97h-.05v-.02Z"/>
          <path class="st14" d="M1017.98,299.94l-15.42,3.38-12.83,2.71-.09-16.4,13.42-3,19.73-4.89,1.24-2.64,2.88-2.44,2.06-.12,1.41,5.18-1.61,8.42,2.71-.17,8.54,9.13,5.51.26,4.24-3.09.5,4.08-2.09,1.36-8.85,1.32-6.45,5.42-.62.17-1.39-3.29-3.29-1.89-2.8-5.59-6.79,2.13.03-.03h-.02Z"/>
          <path class="st5" d="M982.36,393.71l-11.51,2.54-7.57-28.7.88-2.06,1.36-1.39,3.95.46-2.02,2.85,1.44,4.29.88,1.8-1.92-1.12,7.81,11.8,3.5,1.32.79.46,2.42,7.72h.02v.02Z"/>
          <path class="st2" d="M989.72,305.99l12.83-2.71,15.42-3.38,3.36,12.22-.21,3.04-17.89,6.66-10.12,8.42.7.82-.57.36h0l-.33-.7-1.27-2.56,3.21-3.09-1.89-1.65-3.21-17.43-.05.03v-.03h0Z"/>
          <path class="st10" d="M968.88,371.72l-1.44-4.29,2.02-2.85,3.04-2.88.94-1.73,3.29-3.83,1.65-3-6.67-4.65-.7-2.38-2.02-.21-.82-3.67,1.41-3.29-1.6-2.75,2.21-2.59,1.82-5.68,1.8-1.49,15.01,5.97.5,4.86-1.94,3.65-1.56-.29,1.03,1.53-1.2,2.59,2.8-.09,2.47,4.15v12.88l-7.12,17.19-2.21.7-.38-.15-1.36-3-4.08-.29-6.86-4.44v.05h-.02v-.02Z"/>
          <path class="st2" d="M1021.09,315.19l.21-3.04-3.36-12.22,6.79-2.13,2.8,5.59,3.29,1.89,1.39,3.29-.86.57-4.92-4.92.41,7.77-3.5,2.35-2.26.82h.02v.02Z"/>
          <path class="st7" d="M989.72,305.99l3.21,17.43,1.89,1.65-3.21,3.09,1.27,2.56.33.7h0l-.82.74,1.65-.74.65.62,21.19-8.44,2.33-.58,1.68.79-11.63,9.04-7.27,4.12-1.51.7-10.16,2.54v-2.97l-.53-4.86-15.01-5.97-3-.98-3.16-.94-1.82-3.12-.09-2.5-2.47-1.65-4.5-2.75-22.54,4.8-24.31,4.8-25.96,4.72-1.08-6.25,10.62-14.6.41-.29v-.12l.74-1.12-.7-2.14h0l-2.76-6.57,7.29-4.07,13.09-1.61,13.74-.77,10.72-9.99-2.95-8.65-2.3-2.8,13.12-19.3,6.16-5.75,8.68-2.01,4.6-.98,10.86-2.71.65,4.56.12,3.04,2.06,6.54,1.73,3.21-.5,5.06,2.92,5.44-.24,3.59.5.77,2.26-.45,3.95,18.75.09,16.4h.03-.02Z"/>
          <path class="st8" d="M690.68,388.28l.12-4.29,4.19-3.65,1.08-3.59,2.02-4.08-1-3.59-2.18-1.72,1.24-4.03,5.83-1.49,3.88-1.49,1-1.77,2.85-5.44.57-6.26-1.85-1.82-2.8-1.77-.94-2.42-2.13-1.06-1.03-1.77,17.23-1.06,17.52-1.18,12.99-.86v-.12h0v.12l.67,5.97,5.63,11.77h0l2.38,26.73,2.42,26.85-1.56,6.62,1.61,1.6,1.32,3.88.12,3.12-1.36,1.53-.98,3.98-3.21,5.35-1.94,6.54-.29,4.65.33,1.72-1.73,3.47,1.68,2.02-3.04,1.97-3.88,2.26,1.06,4.98-2.21,2.13-4.56-1.8-4.98-.91-1.03,2.33.94,3.5-3.47-3.41-1.97.79-2.59-5.54.45-3.59-1.72-5.47-1.89-.53-5.01-4.86h-2.18l-3.71-2.97-2.71-3.38.91-4.15,1.44-3.41.74-4.36-3.67-3.53-3.21,1.72-2.02-.86-.57-3.86-1.73-4.41-1.68-.88-4.27-2.88-3.47-3.79-3.17-4.68-1.94-6.79,1.36-5.85.12-.15v-.05h-.02Z"/>
          <path class="st13" d="M505.47,395.31l-2.13,35.82-2.18,34-17.57-1.2-21.6-1.82-30.85-2.95-28.62-3.24-28.38-3.67,12.58-92.2,17.16,2.26,17.16,2.09,34.42,3.53,17.07,1.53,34.35,2.56-1.44,22.51-.05.74.09.03h0Z"/>
          <path class="st12" d="M852.32,499.06l-23.14,2.8-.26-4.94,3.79-1.89.88-2.59,2.38-3.24,3.53-1,4.29-1.65,3.83-2.56,1.6-2.26,3.16-2.26-.24-1.72,4.15-3.74,1.82,1.8,6-5.34,3.29-.05,2.3-4.27,3.38-1.6-.67-3.26.05-2.95-7,1.48,7-1.48,30.76-3.86,35.87-6.38,19.01-3.98,16.99-3.65,1.82-.38,1.27,2.68.26.38-1,5.15-6.98,4.24-6.83-1.77,1.12,6.25,15.99-4.03,1.41,1.68,1.72,4.6.17,1.61-6.09,7.81-5.8,1.89-.53,5.15,5.42,2.95-1.72,3.77-3.95,2.47-7.89,2.38-4.36,4.92h0l-.15.15-2.8,3.05-8.54,13.21-4.27,1.15-1.48.82-1.51.62-24.6-17.93-20.66,3.24-.26-2.68-3.57-3.45-1.65,1.8-.5-2.01-8.75.26-17.02,2.33-9.57,5.47-1.65.88.09-.09h.09Z"/>
          <path class="st6" d="M718.7,511.26l1.94-2.26-.58-6.74,2.75-3.29.45-3.79,3.12-2.56,1.68-3.33v-1.94l1.03-5.76.98-3.41.36-2.3,26.03-1.77-.29-3.65,3.57-.29.77,1,11.31-1.65,9.83-.82,10.69-.88,10.57-.5,5.22-.91,16.16-.94,12.06-2.3,5.23-2.01.79-.53-.79.53-5.23,2.01,27.11-2.88,2.18-.45,7-1.48-.05,2.95.67,3.26-3.38,1.6-2.3,4.27-3.29.05-6,5.34-1.82-1.8-4.15,3.74.24,1.72-3.16,2.26-1.6,2.26-3.83,2.56-4.29,1.65-3.53,1-2.38,3.24-.88,2.59-3.79,1.89.26,4.94-9.99,1.41-14.36,1.41-23.9,2.23-23.4,1.97-20.49,1.15-18.39,1.2-.03.03h-.07Z"/>
          <path class="st3" d="M827.11,595.41l-1.24-2.64-1.6-2.71.12-3.88.09-4.08-1.6-4.24.24-7.36,2.76-4.41-2.26-3.95-3.5-6.91-7.19-22.37-8.06-28.14,14.36-1.41,9.99-1.41,23.14-2.8-1.8,2.21-2.35,4.77,5.54,3.16,3.29.94,4.5,6.86,2.83,3.71,7.41,4.44,1.65,2.68,5.1,3.04,2.95,5.22,6.86,3.74,2.02,5.01,1.61,2.35-.45,1.8,3.95,1.97,2.63,3.91.5,4.36,1.92.57,3.57.62-1.12,2.23-2.95,5.76-.17,1.2-2.76,5.83-.21,9.33-.26.67.09.65-.21,5.97-4.07.17-4.24-.98-2.23,1.08,1.18,7.93-2.26,2.38-2.02-3.67-32.17.86-19.99,1.39-3.62-5.8h.05l-.03-.07h0Z"/>
          <path class="st9" d="M878.27,362.04l-5.03-30.69,11.48-8.77h.15l1.08,6.21,25.96-4.72,24.31-4.8,22.54-4.8,4.5,2.75,2.47,1.65.09,2.5,1.82,3.12,3.16.94,3,.98-1.8,1.49-1.82,5.68-2.21,2.59,1.6,2.75-1.41,3.29.82,3.67,2.02.21.7,2.38,6.67,4.65-1.65,3-3.29,3.83-.94,1.73-3.04,2.88-3.95-.46-1.36,1.39-.88,2.06-15.13,3.29-14.72,2.85-12.16,2.44-5.44,1.03-16.04,2.92-18.01,3.05-3.47-21.1h-.05l.02.02Z"/>
          <path class="st11" d="M306.4,323.42l50.13,8.6-3.74,22.3,33.97,5.71-12.58,92.2-26.11-4.03-34.59-5.68-28.87-4.98,21.75-114.18.03.05h0Z"/>
          <path class="st4" d="M754.18,443.43l.29-4.65,1.94-6.54,3.21-5.35.98-3.98,1.36-1.53-.12-3.12-1.32-3.88-1.61-1.6,1.56-6.62-2.42-26.85-2.38-26.73h0l1.72,1.36,5.68-.62,4.32-3h0l18.31-1.65,15.89-2.01.21,1.82,2.47,20.9,2.5,22.51,1.89,16.01-1.03,1.2,2.02,4.53-.45,1.8-3.12.46-2.38,2.33-4.36-.38.15,4.41-2.3,1.97-1.89,4.2-2.56,1.03-3.09,7.36-3.86-1.65-1.44-2.64-2.68,4.92-1.73,2.76-4.08-2.42-3.95,2.64-1.12,2.38-5.83-3.04-3.59,2.92-4.82-1.41.05,2.59-2.38-.45-.03-.05v.03h0Z"/>
        </g>
        <path class="st16" d="M889.34,294.05l7.62-5.63,25.58-5.03,6.88-6.3,1.97-6.3.98-1.29.17.05,2.54,3.05,2.95,8.65-10.72,9.99-13.74.77-13.09,1.61-8.01,4.41-1,.5-2.06-4.53-.05.03h-.02ZM896.65,306.4l-.74,1.12-1.44-2.68,1.48-.58.7,2.14h0ZM895.46,307.95l-10.77,14.63-11.48,8.77-8.1,4.44-9.04,7.93-11.8,4.89h-8.68l-11.03-3.33,4.24-8.89v.21l2.33,4,7.19,3.24,4.68-.88,17.28-14.84,15.27-6.06,6.38-3.67,13.57-10.45-.03.03v-.03h0ZM792.08,238.86l-4.94-.38-3.95-5.95-15.3,3.71-13.45,6.47-11.96-7.74-9.18-2.09,3.95-12.46-13.21,8.6-12.04,8.3-11.84,6.59-10.12-7.29-15.63,5.51v-3.38l10.24-10.12,10.57-9.66,15.01-8.34,5.88-.62,8.39-5.92,4.62-1.85,28.75,13.3,29.12,13.57,1.51,3.88,4.62,2.64-.94,3.21h-.09v.03h0ZM926.47,679.1h-4.86l-.5-5.56h4.65l.7,5.56h0ZM334.76,343.94v4.68l-1.61,6.59-7.57-7.86-.33-.94-.94-11.07,4.08,5.18,2.75,2.88,3.5-1.56.12,2.09h0ZM788.66,254.37l2.44-3.5h.62l13.81-3.71-9.09-8.06.77-1.06,2.42,1.53,5.88,5.15,6.42,1.94,3.98,7.09,12.78,5.85,12.13,39-1.68,8.77-.65,5.39-.7.65-2.13-9.33-4.8-12.92-6.38-1.39-8.85,11.43-3.24.21-1.65-5.63,7.77-10.4.12-10.57-2.76-10.28-12.92-7.33-14.22-2.88-.03.03v.03h-.02ZM791.12,250.87l-2.44,3.5-1.24,8.92-3.33,2.75-1.6,11.65-2.35-7.57-5.85,6.21-3.12,8.15-3.26,11.72.21,9.75,7,13.69,1.12,15.27-5.76,12.01-3.16,3.45-4.32,3-5.68.62-1.72-1.36-5.63-11.77-.67-5.97v-5.8l-3.17-11.13,2.13-13.28,2.23-16.4,6.79-18.39-2.38.24-10.57,15.92-2.5-2.56,5.63-8.84,8.22-15.72,10.81-3.09,11.98-5.85,12.68.88h-.03Z"/>
      </g>
    </g>
  </g>
  <g id="annotations">
    <polygon class="st15" points="946.18 406.17 936.5 413.2 940.21 401.81 930.52 394.78 942.51 394.78 946.18 383.39 949.89 394.78 961.86 394.78 952.19 401.81 955.86 413.2 946.18 406.17"/>
  </g>
</svg>