<?xml version="1.0" encoding="UTF-8"?>
<svg id="Layer_1" xmlns="http://www.w3.org/2000/svg" xmlns:xlink="http://www.w3.org/1999/xlink" version="1.1" viewBox="0 0 700 500">
  <!-- Generator: Adobe Illustrator 30.6.0, SVG Export Plug-In . SVG Version: 2.1.4 Build 109)  -->
  <defs>
    <style>
      .st0, .st1 {
        fill: none;
      }

      .st2 {
        fill: #ae131e;
      }

      .st2, .st3, .st4, .st5, .st6, .st7, .st8, .st9, .st10, .st11, .st12, .st13, .st14, .st15, .st16 {
        stroke: #444;
      }

      .st3 {
        fill: #495ec4;
      }

      .st4 {
        fill: #4f61c6;
      }

      .st5 {
        fill: #b4304c;
      }

      .st6 {
        fill: #3a59c1;
      }

      .st7 {
        fill: #b32942;
      }

      .st1 {
        stroke: #fff;
        stroke-miterlimit: 2;
      }

      .st8 {
        fill: #b32b44;
      }

      .st9 {
        fill: #3f5bc2;
      }

      .st17 {
        fill: #ffce38;
        stroke: #000;
        stroke-miterlimit: 10;
        stroke-width: .75px;
      }

      .st18 {
        fill: #fff;
      }

      .st10 {
        fill: #495fc5;
      }

      .st11 {
        fill: #ae1420;
      }

      .st12 {
        fill: #af1a2a;
      }

      .st13 {
        fill: #3b59c1;
      }

      .st19 {
        fill: #e5ecf6;
      }

      .st14 {
        fill: #485ec4;
      }

      .st15 {
        fill: #b01d2e;
      }

      .st16 {
        fill: #5061c6;
      }

      .st20 {
        clip-path: url(#clippath);
      }
    </style>
    <clipPath id="clippath">
      <rect class="st0" y="66.92" width="700" height="366.15"/>
    </clipPath>
  </defs>
  <rect class="st18" width="700" height="500"/>
  <g class="st20">
    <g>
      <rect class="st18" y="66.92" width="700" height="366.15"/>
      <path class="st19" d="M244.14,423.61l-1.33-6.93,2.34-4.52-.25-3.83,8.14,3.97,4.99,5.9-1.99,2.31-7.53,4.45-4.38-1.34h0ZM237.6,404.03l-3.29-3.88,1.17-1.98,4.46,1.28,3.06,1.9-1.52,2.17-3.87.5h-.01ZM232.89,397.62l-6.44-.31.82-1.66,5.62,1.97ZM219.67,392.31l.93,2.65-4.45-.69-1.97-3.4,3.75-1.77,1.74,3.21ZM197.9,382.2l2.45-.04.67,3.51-3.39.83-2.32-1.69,2.59-2.62h0ZM532.82,426.91l-1.09-1.07,3.43-2.63.8,2.17-3.14,1.53h0ZM120.48,92.04l-2.75-4.12,1.79-1.98s.96,6.1.96,6.1ZM120.75,78.07l45.27,7.06,45.24,7.63,45.15,8.18,44.98,8.72,62.37,1.74.2-4.9,2.48.59,2.43,7.99,5.52.94,1.53,1.26,4.88-1.48,5.13,1.19,3.63,3.25,4.15.87,2.95,1.9,2.34-.42,3.75-2.29,1.78,1.69,4.28-.31,3.2,1.28,5.36-.55,4.88-3.45,2.69-1.08,16.77,7.76,16.96,7.9.87,2.26,6.54,3.81,3.43,3,3.73,1.14,2.31,4.13,7.45,3.41,7.06,22.73-.98,5.12-.71,6.53-3.32,5.89-1.81.94-.15,3.68,1.34,2.34,4.18,1.88,2.73-.52,10.06-8.65,8.9-3.53,3.72-2.15,8.16-6.26-3.82-7.93,4.44-3.28,14.91-2.94,4.01-3.68,1.16-3.67,8.71-12.31,3.64-3.11,7.44-1.46,22.44-5.78,3.72-5.16,3.05-2.82,1.85-6.1-.72-5.84.54-5.74,4.01-11.8,1.75-.06,2.14,2.78,4.64-3.82,5.53,2.39,3.76,11.72,1.24,4.94,3.51,1.32,1.23,3.97,4.37,1.63,2.28,3.13-6.99,5.55-.71,2.56-2.34-.98-2.77,2.84-2.48-.24-2.62,7.57-1.43.22-2,3.1-2.76-.19-1.44,1.83-2.81,12.61,1.02,2.7-1.07,5.85,1.59-.1,4.98,5.31,3.2.15,2.47-1.79.37,3.01-6.46.95-4.45,3.79-3.02-3.08.29,5.1-13.84,5.15-5.9,4.91.93,1.06,12.35-4.93,3.54-.85-9.6,7.46-8.73,3.85-2.74-.58,3.16,5.24.43,6.39-1.27,4.61-3.06,5.91-1.74.59-7.99-4.2,4.55,6.89,2.47.93,1.53,5.05-.75,5.56-2.75,7.98-.91,4.62-2.32-1.43.37-4.37,1.63-3.56-1.79-.89-2.54-4.9-1.58,1.87-2.46-2.75.33-2.18-1.66-7.4-2.53.08,1.67,8.99,3.07,4.74,1.62,6.77-1.13.81,2.14,5.44-1.97,1.63,1.2,2.37,2.25-1.3,3.16.61,2.63,5.65-.56,3.07-4.07,2.46-3.99-1.03.65,3.64,9.32-2.35,1.46,1.54.45,3.04-3.56,4.54-3.38,1.09-.3,3,3.15,1.71-1.35,2.97-6.54,2.04-4.26,4.74-4.98,7.71-2.49.66-3.83,2.49-2.76,4.44-.48,2.62-3.26,4.19-3.2,5.31-3.67,2.71-4.11,4.72-3.99,7.71-1.99,9.95.85,5.47,3.84,10.66,4.64,7.81,3.33,4.17,2.84,4.49,1.66,6.06,2.36,3.43,5.82,11.1.93,14.32-1.1.31-.68,5.59-1.5,1.43-6.55,2.42-1.67-4.02-3.36-3.83-2.83-1.24-8.66-10.65-1.08.34-6.39-9.18-2.64-4.43.96-9.82-3.04-7.46-3.23-.3-7.02-7.45-5.28-2.95-2.55.45-5.4,4.79-6.3,2.1-1.45-3.21-6.44-3.36-4.67-1.26-4.85.11-13.42,3.16.84-1.57-2.4-4.16-2.33,4.37-7.01-.07-5.06,1.55-6.16,4.65,2.29,1.97,3.3-.79.44,1.59-3.72,2.8,2,2.23,3.87.72,1.77,3.29-3.47,2.05-1.2-3.09-2.68-2.49-3.62-.39-1.38,2.39-4.07-.56-4.96,2.95-3.24-1.38-2.21-2.87-6.07-4.63-3.71,1.9-1.75,2.37-4.15-.78-6.79-2.2-4.53.49-4.85,1.23-5.81,2.65-1.9-3.82-3.24.78.93,5.7-5.52,5.63-11.18,6.08-1.66,1.17-2.64-.39-3.65,2.01-3.15,4.29-2.78,7.87.12,6.42.73,3.95,3.17,7.43-2.38.34-8.46-1.81-4.26-1.45-5.56-2.92-2.46-.57-4.43-8.47-.26-5.2-1.56-3.02-2.99-3.02-5.19-7.65-3.49-9.59-6.91-7.32-3.24-2.11-6.96-1.37-5.49,1-1.84,2.92-1.38,3.94-3.6,2.84-2.03-.65-7.7-4.79-5.04-4.74-1.43-3.43-.06-2.94-1.98-6.61-6.71-6.09-5.14-6.1-3.31-4.87-1.6-.93-17.51-2.09-1.52.24-.83,5.61-32.56-4.84-21-12.06-16.29-9.9.29-3.57-26.98-3.19-.31-6.66-1.45-4.82-4.8-6.25-3.34-3.3-8.01-6.53-3.08-3.68-9.03-2.98-1.06-1.57,1.36-6.31-2.45-6.87-5.42-12.07.66-10.09-1.55-.7-1.78-3.83.36-5.18h3.87l-1.19-3.67-3.3-.88-1.91-3.55-1.13-5.81-3.25-6.65.53-4.42,1.39-4.29.19-3.28-1.29-4.25-1.94-3.34.27-2.47,4.96-6.27,2.57-7.78.65-17.12,5.88-8.63,2.16-4.29,6.43-15.34,1.82-5.41,2.63-10.47,1.66-4.28,2.05-2.93-2.4-1.5.4-10-1.22-3.47,1.05-5.34,6.83,5.18,7.26,2.99,2.1.29-.13,3.49,1.12,1.92-1.57,3.65-3.8,3.34,1.31.7,3.91-2.22v-3.14l3.22-5.42-.43-6.13.8-1.88-2.03-4.99.78-.6-.04-.03ZM50.12,424.48l-.03-1.47.9.78s-.87.69-.87.69ZM54.45,425.55l-1.66.03.84-1.14.72-.25.1,1.36h0ZM59.42,425.81l1.75-.71-.14.8-1.62-.08h0ZM77.88,425.9l-.66-.55,1.67-1.36.6-.2.64.87s-2.25,1.24-2.25,1.24ZM83.9,423.08l1.06.24-.35.88-1.13.53-2.41.6-.5-.55,1.77-.32,1.57-1.39h0ZM92.17,420.9l-2.92.6-.14-.88,1.2-1.08,1.83-.49,1.03.06.2.93.44.83-1.64.03ZM172.61,407.65l.76-.04,1.08.62,1.06,1.06,1.87,2.99-.92.59-1.57-1.44-.93.19-.78-.48.38-.67-1.23-.77.04-.84-1.09-.93-.41-1.22.79-.14.96,1.06v.02ZM171.78,403.87l1.42.95-.5.63-1.5.67-1.32-.27.52,2.32-.78.04-1.26-3.37.67-.32.09-.92,1.57-.06,1.08.33h0ZM168.51,407.97l-.75-.16-.74-.98-1.09-.68-.09-1.26-.4-.88-.82-.38.08-.41-.08-.27,1.5-.03.49.49,1.37,2.68.54,1.88h0ZM122.49,408.28l.17,1.37-1.65.73.39.8-.73.55-.86-.17-.99,1.4-.86-.5-1.17-2.06.43-1.08.94-.67.63.07.86-1.11.94-.55,1.9,1.23h0ZM165.33,399.43l.28-.33,1.39.17.11,1.08,1.24,1.03.47.95-1.02,2.05-.58-.6-.21-1.35-1.69-2.99h.01ZM163.42,399.76l1.93.37.1.74.74,1.26-.41.69-1.43-.58.32.95-.27.51-.76-.28-.95-1.16-.99-.45-.21-.87,1.56-1.33.38.16h-.01ZM121.81,406.96l-1.48-.11,1.29-1.24.19-.74.73-.15.98.78-1.71,1.46h0ZM133.91,397.62l.04-1.12.75-1.41.44.26-1.23,2.27ZM91.73,394.04l-.12,1.29-1.48.71-1.91-1.39-.52-1.13,3.02-.3,1.01.83h0ZM82.66,375.55l1.09.74,1.45-.19.32.82.97,1.06.83.31-.05.9-1.75.21-1.02-1.69-1.24-.84-.73.3-.68-1,.82-.63h0ZM140.17,350.25l8.5,42.97,1.16.19,1.56-.55.23-.38,1.39-.4v1.3l.99.51,3.59,2.47.52,1.06,1.96-1.34.06-2.07,1.66-1.48,1.32.77,1.25,1.33,4.09,2.68,1.13,1.26,2.44,2.36,1.95,2.3,1.07.9,2.96.26,1.9.39.57.83-.1.78,1.07,2.43-.08,1.21-.8,1.38-.63-.12-1.01-1.85-.64-.46-1.01.7-1.68-.71-.35-.64.75-2.54-1.24.64.45.86-1.69-.21.07-1.08.64-.67-.58-.67-1.33-.75-.49-.73-1.48-.11-1.37-1.99-.14-.82-1.65-1.4-1.45-.22-1.82-1.28.82,1.67-1.13-.29-2.78,1.53-2.44-.97-2.28-1.71-2.58-.77-1.45-.6.66-.9-.77-.54-1.14.96-1.31.05-2.29-.67-2.22-.18-2.51.83-.74.05-.66-.63-1.08-.07-.74-.47-1.5-.4.05-.95-1.77.1-.8-1.03-1.57-.23-1.46,1.39.39,1.52-.21,1.79-1.17.62-1.82-.37-1.97,2.94-.95.14-.8.87-1.52.45-.37-.95,1.33-1.07-1.37-.87,1.27-3.67.17-1.14,1.63-1.24,1.17.41.44-.46-.78-1.04h-1.45l-1.75,1.27-1.78,2.89-1.01.87-.25,1.68-.42.84-2.57,1.54-.05,1.66,1.14-.18.95.95-.4.7-1.33,1.03-.99,1.72-1.06.49-2.69,2.19-1.53.95.35.69-.6.78-2.08.69-1.65,1.61h-.82l-.98,1.26-.37,1.04-2.33.58-.57-.27-1.74,1.17-2.25.82-.69-.1-1.05.45-1.03.86-2.3.16-.53-.89,1.94-.96,1.03-1.23,1.5-.98,1.38-.26,1.44,1.51.6-.57-.22-.76.72-1.33,1.35-.99,3.16-1.73,1.3-1.7,1.47-1.07.53-3.31.38-1.16.89-.94-.45-.54-2.27.94-.76-1.16-.87.53.3,1.14-.91.24-1.16-2.52-.84.56-1.3-1.11-3.2,1.69.08-2.19-.4-1.15.88-1.17-1.09-3.12-.72.83-1.31.44-1.31.05-.96-.37.02-.59-1.02-1.73-1.22-1.55,1.27-1.02-.12-1.08-.77-.37-.89-1.13-.32-1.12,1.33-2.59,1.36-1.47.93-.35.19-1.51,1.07-1.28.81-.09,1.34,1.28,1.53-.71.82-.99,2.48.09.92-1.17-.16-2.12-.48-.82,1.02-1.05-.57-1.48-2.25,1.03-.89.78-1.92-.77-1.41-.19-1.66.26-2.06-.98-.59-2.65.82-.77-1.63-.76-1.31-1.11.41-.73,4.31-1.85,2.99-.79,1.17.33-.66,1.67.59.63,1.72.15,1.54.43.88-1.01.73-.22-1.23-1.99.3-1.53h-1.54l-1.89-.91-.06-1.23-.37-1.06-1.78-2.21-2-1.83.54-.33.6-1.53,3.42-.16,1.28-.74.77-.95.71-2.21.95-1.17,1.07-.79.92.26,1.64-.88,1.19-1.15,1.03.21,1.83-.3.7-.51,1.39-1.66,1.59,1.34.7-.37.77.73.13.79,2.28-.39,1.17.59-.07.81,1.03.74,1.03.11,2.52-.63,2.74,1.02,1.05.24,1.51-.21,2.71.62,1.51-1,.89-.08,3.14,1.44.71.08-.04-.03Z"/>
      <path class="st1" d="M393.05,141.13l-2.37.84.38,7.54-.26-.05-2.28,1.57-1.95,1.37-1.22,2.52,2,2.41-.58,3.44.12,3.6-.16,2.99,2.83,2.51,1.16.08,3.18,1.74,1.11.89.68,1.4,2.6,2.19,3.31,1.84.32,1.11.25,3.23.35,1.54-12.79.3-14.13.47-13.15.37h-10.63l.24-12.57-1.08-12.93-1.66-1-.94-2.12.54-1.79,2.1-1.47.19-1.98v-2.42l-.58-2.05-.76-2.17-.41-2.72-.06-3.03-.34-.74-.31-3.89-.07-1.85-.16-1.54-.4-2.71-1.07-2.78-1.07-2.41-.14-2.46-.05-2.58.35-1.71.02-1.53-.81-1.91-.07-1.29,18.48.04.2-4.9,2.48.59,1.9,6.28v.12h0l.52,1.59,2,.34.34.24,2.84.31.33.05,1.53,1.26,2.49-.74,8.32,1.65,1.02.45,1.82,1.59,3.98.82.34.17,2.77,1.78,2.34-.42,3.75-2.29,1.78,1.69,4.28-.31,3.2,1.28,1.93-.19-8.75,4.86-6.16,5.64-5.97,5.9v1.98-.03ZM178.77,92.65l17.71,3.59,43.86,5.8,43.79,6.31-1.9,24.28-.95,16.24-1.48,12.2-15.76-1.67-16.9-1.78-14.64-2.1-18.48-2.63-.99,6.77-.24.4-.93-.91-.58-1.98-.99-.54-1.74,2.42-2.26.07-5.2-1.71-.49,1.24-2.97-1.03-2.08,1.53-1.04-3.73-.78-2.16-1.86-.66-.43-1.09.12-3.52-1.33-1.96-.32-4.42-.77-2.04-1.05-.52-1.29,1.65-2.11,1.23-1.37-1.66.57-3.36,1.19-.65-.1-3.55,1.61-3.28,1.5-2.73-2.68-.65-1.98-2.35-1.69-4.57-1.09-2.3-1.74-1.68-1.22-2.46.48-2.29-1.66-4,2.26-13.77v.02ZM345.28,111.36l.07,1.29.81,1.91-.02,1.53-.35,1.71.05,2.58.14,2.46,1.07,2.41,1.07,2.78.4,2.71.16,1.54.07,1.85.31,3.89.34.74.06,3.03.41,2.72.76,2.17.59,2.05v2.42l-17.82.46-15.19-.52-19.08-.96-17.85-1.27.95-16.24,1.9-24.28,17.27,1.3,43.89,1.7v.02ZM242.81,416.68l2.34-4.52-.25-3.77.24.06,7.9,3.85,4.4,5.1.6.86-1.4,1.62-3.76,2.19-4,2.13-.59.68-4.14-1.28-.12-.56.11-2.29-.95-2.41-.36-1.67h-.02ZM237.6,404.03l-.82-.99-1.29-1.54-.23-.25-.94-1.11.94-1.73,4.46,1.29,3.06,1.9-1.28,1.86-.7.13-3.17.44h-.03ZM232.89,397.62l-4.45-.18-1.99-.13.82-1.66h0l5.62,1.97ZM214.18,390.87l3.51-1.65.7.56,1.28,2.53.81,2.59h0l-1.52-.19-2.81-.44-1.16-1.98-.46-.93-.12-.19-.23-.31h0ZM197.9,382.2l1.63-.05.82.07.45,2.22.11.92-.59.49-1.64.41-3.02-1.75,2.24-2.31h0ZM178.77,92.65l-2.26,13.77,1.66,4-.48,2.29,1.22,2.46,1.74,1.68,1.09,2.3,1.69,4.57,1.98,2.35,2.68.65-1.5,2.73-1.61,3.28.1,3.55-1.19.65-.57,3.36,1.37,1.66,2.11-1.23,1.29-1.65,1.05.52.77,2.04.32,4.42,1.33,1.96-.12,3.52.43,1.09,1.86.66.78,2.16,1.04,3.73,2.08-1.53,2.97,1.03.49-1.24,5.2,1.71,2.26-.07,1.74-2.42.99.54.58,1.98.93.91.31.3-5.29,33.13-29.22-5.01-29.01-6.11,5.5-23.64,1.63-3.59-.4-1.88-1.55-1.24.57-2.1,1.97-2.68,2.57-2.16,2.23-3.96,2.03-3.11,1.31-1.49-.07-2.11-1.3-1.37-1.64-3.03.6-2.28-.4-2.18,3.84-18.25,3.72-16.54,8.58,1.88h0ZM170.19,90.77l-3.72,16.54-3.84,18.25.4,2.18-.6,2.28-18.79-4.29-3.53.53-2.22-1.14-2.03.57-3.74.57-4-1.24-2.39.52-1.98-.02-1.24-1.11-3.13-1.44-2.13-.14-3.91.38-2.18-.62-1.96-1.08-.15-1.98.37-2.22-.94-2.98-2.37-1.47-1.8-1.83-2.71-.88-1.99-.6.13-.41.13-.74,1.66-4.28,2.05-2.93-2.34-1.42.47-9.66-.66-6.71,1.48-1.66,5.7,4.31,2.75,1.08,3.1,2.26.92,10.79-1.78,1.54,1.31.7.63-.33.06.72,2.39-2.14.84-.47.04-.76.47-3.2,2.71-4.61-.43-6.13.8-1.88-1.96-4.91-.06-.08.7-.63,23.74,6.5,25.78,6.22-.05.05ZM120.48,92.04l-.8-1.19.23-1.72.05-.5.51,3.41h0ZM218.1,263.59l-10.47,75.78-13.04-1.82-9.44-1.46-23.82-13.7-14.13-8.8.21-3.2-.1-.02h0l1.52.37,1.66-2.47-1.59-2.16.1-2.08-.15-2.45,2.74-2.64,2.11-5.89,3.74-2.07-1.5-2.97-.91-2.79-.45-2.45-.23-1.96.03-1.21,1.22-2.5-.08-2.7.32-2.62.56-2.82-.52-2.02,1.02-1.52,2.25.45,1.77,1.37,1.38.78,1.08-1.9.57-.34,1.96-10.72,16.83,2.89,20.16,3.31,15.21,2.35v-.02ZM154.39,279.59l-.03,1.21.23,1.96.45,2.45.91,2.79,1.5,2.97-3.74,2.07-2.11,5.89-2.74,2.64.15,2.45-.1,2.08,1.59,2.16-1.66,2.47-1.52-.37-2.81-.31-22.51-2.63-1.56-.22-.31-6.66-.06-.21-.03-.33-.15-.29-1.21-3.99-4.8-6.25-3.34-3.3-.53-.45-.12-1.7-3.59-1.32-3.78-3.06-.07-.15-1.36-2.15-.68-.24-.97-1.15-8.16-2.69-1.79-2.41,1.21-5.76-2.45-6.87-4.07-9.09-.74-1.83-.48-2.73.52-8.5-1.55-.7-.86-1.68-.73-4.96.17-2.36h3.87l-1.19-3.67-3.11-.83-2-3.58-.25-.53-.97-5.31-2.64-5.36-.58-1.74.35-3.17.22-1.05,1.32-4.05.19-3.28-1.29-4.25-1.62-2.79-.32-.88.1-.95,1.75-3.13,3.38-4.33,2.57-7.78.13-4.21.4-1.31,40.21,11.4-10.24,39.3,14.71,22.49,14.61,21.69,14.29,20.56v-.02ZM294.61,230.41l-1.23,20.88-1.26,19.82-10.24-.7-12.59-1.07-17.98-1.72-16.67-1.88-16.54-2.15,7.33-53.74,10,1.33,10.01,1.22,20.06,2.07,9.95.9,20.02,1.49-.84,13.12-.03.44h.01ZM149.58,182.39l29.01,6.11-12.68,66.55-1.96,10.72-.57.34-1.08,1.9-1.38-.78-1.77-1.37-2.25-.45-1.02,1.52.52,2.02-.56,2.82-.32,2.62.08,2.7-1.22,2.5-14.29-20.56-14.61-21.69-14.71-22.49,10.24-39.3,28.56,6.83h.01ZM207.63,339.38l10.47-75.78,16.54,2.15,16.67,1.88,17.98,1.72,12.59,1.07-.39,6.69-2.61,35.39-1.87,25.34-10.5-.83-20.34-1.89-10.16-1.09-.02,1.13.85,1.85-17.51-2.09-1.31.27-.52-.07-.71,5.5-9.15-1.23h-.01ZM162.43,130.02l1.64,3.03,1.3,1.37.07,2.11-1.31,1.49-2.03,3.11-2.23,3.96-2.57,2.16-1.97,2.68-.57,2.1,1.55,1.24.4,1.88-1.63,3.59-5.5,23.64h0l-28.56-6.83-40.21-11.4.02-8.49.11-2.51,7.31-10.87,9.3-22.71,2.03-10,1.99.6,2.71.88,1.8,1.83,2.37,1.47.94,2.98-.37,2.22.15,1.98,1.96,1.08,2.18.62,3.91-.38,2.13.14,3.13,1.44,1.24,1.11,1.98.02,2.39-.52,4,1.24,3.74-.57,2.03-.57,2.22,1.14,3.53-.53,18.79,4.29.03-.02ZM178.59,188.5l29.22,5.01-2.17,13.01,19.8,3.33-7.33,53.74-15.21-2.35-20.16-3.31-16.83-2.89,12.68-66.55h0ZM212.78,160.08l.24-.4.99-6.77,18.48,2.63,14.64,2.1,16.9,1.78,15.76,1.67-2.06,27.38-2.28,26.9-9.95-.9-20.06-2.07-10.01-1.22-10-1.33-19.8-3.33,2.17-13.01,5.29-33.13-.31-.3ZM424.36,284.03l-.02,1.13-.98,1.95-1.81,1.5-.26,2.21-1.6,1.92.34,3.93-1.14,1.32-.14,1.07-1.86,1.11.02,2-1.21,3.7-1.28.82-1.84,1.92-.98,2.87-2.22,4.81-.04,3.26,1.42,3.43-.38,2.71h-9.47l-12.14.88-10.81.28.46-7.69h-2.58l-2.16.21-.53-.87.12-11.88v-13.14l-2.33-14.31,12.91-.08,11.81-.33,11.31-.5,12.25.13,1,1.63-1.2,1.52-1.1,1.57-.52,1.35,6.98-.44h-.02ZM351.81,185.05h10.63l13.15-.38,14.13-.47,12.79-.3.13.74,1.37,2.05-.85,1.04.24,2.86.42,1.17.75,2.15,3.25,1.08,1.12,2,.61,1.03,1.23.62.54,1.41,1.62,1.03,1.08,1.06-.33,3.65-1.66,3.17-.59,1.04-2.27.88-3.39.87-.72,2.35,1.26,1,.58,2.1-1.19,2.38-.64,2.1-2.43,2.13-.07,2.51-1.46-1.06-2.07-2.1-10.97.68-11.64.44-9.02.15-9.11.06-.66-2.44.28-2.44-.19-2.31-1.12-3.88-.65-1.63-.65-.44-.09-3.13-.64-2.25-1.83-2.57.1-1.12-.63-2.25-.45-1.31v-1.25l-1.54-1.51.74-2.18.56-2.18.28-1.5-1.26-1.75.02-3.3h1.26-.02ZM292.12,271.11l1.26-19.82,1.23-20.88h0l17.78.97,13.25.51,23.48.46h14.02l2.38,1.8h1.33l.4,1.92-1.5,2.52.87,1.31,1.27,2.8,2.7,1.28.11,14.47.11,14.54-9.28.09-19.14-.08-19.14-.38-10.55-.4-10.65-.52-9.95-.58h.02ZM424.36,284.03l-6.98.44.52-1.35,1.1-1.57,1.2-1.52-1-1.63-12.25-.13-11.31.5-11.81.33-12.91.08v-6.2h-.09l-.11-14.54-.11-14.47-2.7-1.28-1.27-2.8-.87-1.31,1.5-2.52-.4-1.94h-1.33l-2.38-1.78-1.34-2.87-1.61-1.74-1.7-2.12-.19-1.13,9.11-.06,9.02-.15,11.64-.44,10.97-.68,2.07,2.1,1.46,1.06-.78,3.42,1.14,3.96,1.85,2.73,2.02,2.22,2.48,1.69.99.51,1.01,2.58.32,2.24,1.18.5,1.87-.99,2.15,2.07-.42,2.54-.85,2-.54,2.42,1.58,1.98,2.16,1.75,1.27-.02,2.92,2.82,1.1.3,1,3.2-.25,2.09,1.5,3.22,1.15-.46,2.02,1.99-.2,1.4.35,2.11-1.6,1.25-2.28,1.54-.21,1.33-.56,1.98-.57,3.37-.03-.02ZM294.61,230.41l.03-.44.84-13.12-20.02-1.49,2.28-26.9,19,1.42,14.59.82,19.59.74,2.5,1.81,3.52,1.14.92-.61,2.27.1,3.55-.07,2.44,1.71,2.72,1.21.45,1.06.82.69,1.64.2.45,1.31.63,2.25-.1,1.12,1.83,2.57.64,2.25.09,3.13.65.44.65,1.63,1.12,3.88.19,2.31-.28,2.44.66,2.44.19,1.13,1.7,2.12,1.61,1.74,1.34,2.87h-14.02l-23.48-.46-13.25-.51-17.78-.97.02.04ZM281.88,270.41l10.24.7,9.95.58,10.65.52,10.55.4,19.14.38,19.14.08,9.28-.09h.1v6.2l2.32,14.31v13.14l-.1,11.88-4.88-2.62-3.1-1.41-2.46.96-3.91-.11h-2.36l-1.85,1.13-1.85.56-1.64-.69-3.71.73-1.63-2.27-1.77,1.92-2.97-.91-3.05-2.17-3.42,1.31-1.37-3.28-5.13.19-3.26-.84-3.65-1.05-1.54-2.87-2.89.77-1.8-1.13-2.49-1.6.54-12.88.56-13.26-10.72-.51-10.71-.62-10.61-.73.39-6.69v-.03ZM351.19,151.17l-.19,1.98-2.1,1.47-.54,1.79.94,2.12,1.66,1,1.08,12.93-.24,12.58h-1.26l-.02,3.3,1.26,1.75-.28,1.5-.56,2.18-.74,2.18,1.54,1.51v1.25l-1.65-.2-.82-.69-.45-1.06-2.72-1.21-2.44-1.71-3.55.07-2.27-.1-.92.61-3.52-1.14-2.5-1.81-19.59-.74-14.59-.82-19-1.42,2.06-27.38,1.48-12.2,17.85,1.27,19.08.96,15.19.52,17.8-.46v-.03ZM377.95,326.86l10.81-.28,12.14-.88h9.47l.87.7-.94,2.05,1.81,2.66-.43,1.71,1.59,2.23-1.5,1.45-.39,2.58-2.1,2.23-.81,2.85-.9,3.35-1.31,1.56.58,3.34,10.13-.08,10.85-.66-.17,2.26-.71,2.29.86,1.63,1.6,1.45.58,2.2.3,1.29.12.18-2.78,2.11,2.29,1.97,2.77-.69.11.05.03,2.05-2.89,2.19,2,2.23,2.65.5,1.05.98-2.16,1.89-.45-.16-.13-.24-2.68-2.49-3.62-.39-1.38,2.39-4.07-.56-4.54,2.68-.33.02-8.48-6.22-3.14-2.41-3.71,1.9-1.24,1.6-2.15.45-1.75-.37-7.34-2.37-.97.15-3.78.41-2.15.55h-.22l-.9-1.4,1.14-2.01,1.68-1.78-.07-2.73-.88-.85.99-3.26.71-1.45.94-4.94-1.01-1.84-1.46-3.02-1.03-3.09-.68-2.1-1.93-1.45-.93-14.4h.04ZM236.84,336.99l-.85-1.85.02-1.13,10.16,1.09,20.34,1.89,10.5.83,1.87-25.34,2.61-35.39,10.61.73,10.71.62,10.72.51-.56,13.26-.54,12.88,2.49,1.6,1.8,1.13,2.89-.77,1.54,2.87,3.65,1.05,3.26.84,5.13-.19,1.37,3.28,3.42-1.31,3.05,2.17,2.97.91,1.77-1.92,1.63,2.27,3.71-.73,1.64.69,1.85-.56,1.85-1.12h2.36l3.91.11,2.46-.96,3.1,1.41,4.88,2.62.53.87,2.16-.23h2.58l-.46,7.71.93,14.4,1.93,1.45.68,2.1,1.03,3.09,1.46,3.02,1.01,1.84-.94,4.94-.71,1.45-.99,3.26.88.85.07,2.73-1.68,1.78-1.14,2.01.9,1.41-.32.13-2.16.54-1.83.78-4.21,1.44-1.67-3.39-3.24.78.93,5.57-6.82,6.5-9.87,5.33-.11.06-2.1,1.04-2.09-.32-3.65,2.01-3.15,4.29-2.78,7.87.12,6.42.73,3.95.76,1.86.2,2.16,1.65,3.53-1.82.22-8.46-1.81-4.26-1.45-5.56-2.92-2.24-.56-2.95-5.95-2.34-9.41-6.15-7.17-.83-1.34-3.41-7.46-.91-1.53-1.55-4.11-2.18-2.28-.79-1.53-1.89-1.34-2.05-2.16-3.24-2.11-6.96-1.37-5.49,1-1.84,2.92-1.23,3.46-.84,1.06-2.68,2.16-7.68-3.9-1.77-1.08-1.33-1.11-3.82-3.64-1.92-6.35.03-.37-1.98-6.61-3.37-3.01-4.17-4.48-1.57-1.35-2.75-3.36-3.31-4.87-1.6-.93-.04.02ZM576.86,178.36l7.48-1.58,8.99-1.97,1.95,7.11-.11,1.77-10.43,3.87-5.9,4.91.4.48-.33.21h0l-.19-.4-.74-1.49,1.87-1.8-1.09-.96-1.88-10.16h-.02ZM593.33,174.81l-8.99,1.97-7.48,1.58-.06-9.56,7.82-1.75,11.49-2.86.72-1.55,1.69-1.42,1.21-.07.82,3.01-.95,4.91,1.59-.1,4.98,5.31,3.2.15,2.47-1.79.29,2.39-1.22.8-5.16.78-3.75,3.15-.36.1-.8-1.92-1.92-1.11-1.63-3.25-3.96,1.23h0ZM599.73,161.16l-1.21.07-1.69,1.42-.72,1.55-11.49,2.86-1.04-1.15.28-1.87-.61-3.51.06-.85-.45-3.23.38-2.86.4-1.32.34-3.37-.28-2.18-.07-1.33,1.65-1.07,1.67-2.04-.08-1.71-1.17-1.68.18-3.84h0l.03-.91,2.77-3.95,7.71,23.5v1.42l2.27,1.45.93,1.69.68-.25-.62,2.56.11.42-.04.2v-.02ZM595.16,183.7l.11-1.77-1.95-7.11,3.96-1.23,1.63,3.25,1.92,1.11.8,1.92-.49.33-2.87-2.86.24,4.53-2.04,1.38-1.32.47v-.02ZM584.62,167.05l-7.82,1.75-2.29-10.93-1.33.26-.29-.44.14-2.09-1.69-3.18.29-2.95-1-1.87-1.2-3.81-.07-1.78-.37-2.66,9.99-2.55,6.91-1.79h0l-.18,3.84,1.17,1.68.08,1.71-1.67,2.04-1.65,1.07.07,1.33.28,2.18-.34,3.37-.4,1.32-.38,2.86.45,3.23-.06.85.61,3.51-.28,1.87,1.04,1.15v.03ZM441.55,296.62l13.63-1.15,13.92-1.3,4.7,16.4,4.19,13.04,2.04,4.04,1.32,2.29-1.6,2.57-.14,4.28.92,2.47-.04,2.39-.06,2.26.93,1.58.72,1.55-23.22,2.51-6.51,1.41-.13,1.01,2.96,3.05-.41,2.66-.51,1.54-1.38.31-2.71-.14.38-.66-2.4-4.16-2.33,4.37-2.05-.02-1.95-20.39.14-21.67.6-17.68-1.03-2.55h.02ZM454.27,359.21l.51-1.54.41-2.66-2.96-3.05.13-1.01,6.51-1.41,23.22-2.51,2.12,3.39,11.65-.81,18.75-.5,1.18,2.15,1.32-1.39-.68-4.61,1.31-.64,2.46.57,2.36-.11,3.45,8.96.12.04,1.17,3.27,4.64,7.81,2.36,3.01,1.1,1.33,2.71,4.33,1.03,3.53.26,1.59.32.57.06.37.6.9,5.77,10.24,1.44,2.51.77,6.55.54,7.95-.22.72-.88.27-.68,5.59-1.5,1.43-4.92,1.79-2-.18-1.31-3.21-3.36-3.83-2.83-1.24-8.66-10.65-.97.33-1.68-2.25-4.82-6.92-2.35-3.97-.3-.52.6-5.27.53-4.14-.13-.17-.03-.18-3.04-7.46-2.45-.22-6.41-6.08-1.39-1.44-.35-.2-1-1-1.7-.53-2.22-1.22-2.55.45-5.01,4.43-.71.46-5.77,1.92-.48-.38-1.18-2.74-4.49-2.38v-.06h-.11s-1.83-.92-1.83-.92l-4.67-1.26h0l-1.01-.33-1.79.43h-2.05l-8.87,2.09h-.04ZM482.09,347.04l-.72-1.55-.93-1.58.06-2.26.04-2.39-.92-2.47.14-4.28,1.6-2.57-1.32-2.29-2.04-4.04-4.19-13.04-4.7-16.4,8.37-.83,5.82-.83,13.48-1.63-1.05,1.28-1.37,2.77,3.23,1.84,1.93.56,2.62,3.99,1.65,2.17,4.32,2.6.96,1.57,2.98,1.77,1.71,3.03,4.01,2.17,1.19,2.91.95,1.37-.26,1.05,2.3,1.16,1.53,2.29.29,2.54,1.12.33,2.08.36-.64,1.3-1.71,3.36-.1.71-1.61,3.4-.12,5.44-.15.4.06.37-.11,3.48-2.36.11-2.46-.57-1.31.64.68,4.61-1.32,1.39-1.18-2.15-18.75.5-11.65.81-2.12-3.39h-.03ZM410.37,325.7l.38-2.71-1.42-3.43.04-3.26,2.22-4.81.98-2.87,1.84-1.92,1.28-.82,1.21-3.7-.02-2,1.86-1.11.14-1.07,10.72-.71,11.94-.67,1.03,2.55-.6,17.68-.14,21.67,1.95,20.39-4.96-.05-5.06,1.55-3.38,2.54-.12-.18-.3-1.29-.58-2.2-1.6-1.45-.86-1.63.71-2.29.17-2.26-10.85.66-10.13.08-.58-3.34,1.31-1.56.9-3.35.81-2.85,2.1-2.23.39-2.58,1.5-1.45-1.59-2.23.43-1.71-1.81-2.66.94-2.05-.87-.71.02.03ZM526.96,326.62l-2.08-.36-1.12-.33-.29-2.54-1.53-2.29-2.3-1.16.26-1.05-.95-1.37-1.19-2.91-4.01-2.17-1.71-3.03-2.98-1.77-.96-1.57-4.32-2.6-1.65-2.17-2.62-3.99-1.93-.56-3.23-1.84,1.37-2.77,1.05-1.28.95-.51,5.58-3.19,9.92-1.35,5.09-.16.29,1.16.96-1.04,2.07,2.01.15,1.56,12.04-1.89,14.34,10.45-.43.52-1.67,1.13-2.76,4.44-.48,2.62-3.26,4.19-1.56,2.55-5.88,5.87-.68,1-2.86,3.31-1.38,2.69-.26.36.02.04ZM402.56,226.31l.07-2.51,2.43-2.13.64-2.1,1.19-2.38-.58-2.1-1.26-1,.72-2.35,3.39-.87,2.27-.88.59-1.04,1.66-3.17.33-3.65-1.08-1.06-1.62-1.03-.54-1.41-1.23-.62-.61-1.03,10.03-.62,10.21-.68,7.57-.5v-.06h0v.06l.4,3.48,3.28,6.86h0l1.39,15.58,1.4,15.65-.91,3.85.95.92.78,2.26.07,1.82-.79.89-.57,2.31-1.87,3.12-1.14,3.81-.16,2.72.18.99-1.01,2.03.98,1.18-1.77,1.15-2.26,1.31.63,2.9-1.29,1.23-2.65-1.05-2.9-.54-.59,1.36.54,2.03-2.02-1.99-1.15.46-1.5-3.22.25-2.09-1-3.2-1.1-.3-2.92-2.82-1.27.02-2.16-1.75-1.58-1.98.54-2.42.85-2,.42-2.54-2.15-2.07-1.87.99-1.18-.5-.32-2.24-1.01-2.58-.99-.51-2.48-1.69-2.02-2.22-1.85-2.73-1.14-3.96.78-3.42v.03ZM439.57,258.45l.16-2.72,1.14-3.81,1.87-3.12.57-2.31.79-.89-.07-1.82-.78-2.26-.95-.92.91-3.85-1.4-15.65-1.39-15.58h0l1,.79,3.31-.37,2.53-1.75h0l10.67-.97,9.26-1.17.12,1.06,1.44,12.17,1.46,13.13,1.1,9.33-.59.7,1.18,2.64-.26,1.04-1.81.27-1.4,1.36-2.55-.22.09,2.57-1.33,1.16-1.1,2.45-1.5.6-1.79,4.29-2.25-.96-.84-1.55-1.57,2.87-1.01,1.61-2.39-1.4-2.3,1.54-.65,1.38-3.39-1.76-2.1,1.7-2.81-.83.03,1.51-1.39-.26h0ZM425.7,277.35l2.28-1.54,1.6-1.25-.35-2.11.2-1.4-.54-2.03.59-1.36,2.9.54,2.65,1.05,1.29-1.23-.63-2.9,2.26-1.31,1.77-1.15-.98-1.18,1.01-2.03-.18-.99,1.39.26-.03-1.51,2.81.83,2.1-1.7,3.39,1.76.65-1.38,2.3-1.54,2.39,1.4,1.01-1.61,1.57-2.87.84,1.55,2.25.96,1.79-4.29,1.5-.6,1.1-2.45,1.33-1.16-.09-2.57,2.55.22,1.4-1.36,1.81-.27.26-1.04-1.18-2.64.59-.7,3.56-.11,1.97,1.08,3.05,2.71,2.32.65,1.76.85,2.34-.69,1.93.56,2.1-1.04,1.97-.53,1.03,1.82,2.09.97.38,1.28.3,2.8,1.55,1.93.77,1.92,1.8,1.51,1.31,1.52,1.97-.04-.92,1.15-2.68,3.43-2.99,2.01h0l-.14,1.16-.88,1.58-2.54,1.87-.18.15-.08.14-.62,1.29-1.59.78-.46.31-3.05,1.16-7.03,1.33-9.43.55-3.04.53-6.16.28-6.23.51-5.73.48-6.59.97-.45-.59-2.07.18.18,2.12-15.16,1.03h.04ZM496.78,290.88l-13.48,1.63-.15-2.88,2.2-1.1.52-1.52,1.39-1.88,2.06-.58,2.51-.96,2.23-1.5.93-1.33,1.84-1.33-.14-.99,2.42-2.17,1.06,1.05,3.49-3.1,1.91-.03,1.35-2.48,1.98-.93-.39-1.9.04-1.72-4.09.86,4.09-.86,17.94-2.25,20.92-3.72,11.08-2.32,9.9-2.13,1.07-.23.74,1.57.15.22-.58,3.01-4.07,2.46-3.99-1.03.65,3.64,9.32-2.35.82.98.99,2.67.1.94-3.56,4.54-3.38,1.09-.3,3,3.15,1.71-.99,2.19-2.3,1.43-4.6,1.38-2.54,2.87h0l-.09.08-1.62,1.79-4.98,7.71-2.49.66-.85.48-.88.35-14.34-10.45-12.04,1.89-.15-1.56-2.07-2.01-.96,1.04-.29-1.16-5.09.16-9.92,1.35-5.58,3.19-.95.51v.02ZM471.32,237.74l-1.1-9.33-1.46-13.13-1.44-12.17,5.13-.68,4.5-.57,3.65-.6h0l6.44,1.96,5.06-.02,6.89-2.86,5.27-4.62,4.72-2.6,2.94,17.9-1.28.91.74,1.59.04,3.16-.56,3.64-.47,3.06.03,1.39-2.24,3.53-1.13.81-1.26.58-1.28-.12-1.91,2.7v2.47l-.2,1.36-.78.62-.41-1.46-1.38-.11-1,3.12.24,3-1.07,2.05-2.54.68-2.09-.97-1.03-1.82-1.97.53-2.1,1.04-1.93-.56-2.34.69-1.76-.85-2.32-.65-3.05-2.71-1.97-1.08-3.56.11h-.02ZM418.89,297.99l1.14-1.32-.34-3.93,1.6-1.92.26-2.21,1.81-1.5.98-1.95.02-1.13.57-3.37.56-1.98.21-1.33,15.16-1.03-.18-2.12,2.07-.18.45.59,6.59-.97,5.73-.48,6.23-.51,6.16-.28,3.04-.53,9.43-.55,7.03-1.33,3.05-1.16.46-.31-.46.31-3.05,1.16,15.8-1.68,1.27-.25,4.09-.86-.04,1.72.39,1.9-1.98.93-1.35,2.48-1.91.03-3.49,3.1-1.06-1.05-2.42,2.17.14.99-1.84,1.33-.93,1.33-2.23,1.5-2.51.96-2.06.58-1.39,1.88-.52,1.52-2.2,1.1.15,2.88-5.82.83-8.37.83-13.92,1.3-13.63,1.15-11.94.67-10.72.71-.03-.02ZM490.92,268.49l1.59-.78.62-1.29.08-.14.18-.15,2.54-1.87.88-1.58.14-1.16h0l2.99-2.01,2.68-3.43.92-1.15.82,2.16,1.12.85.23.22,1.81.8,2.15-1.53.9-.58h0l1.42.79,3.05-1.5.65-.29v-1.21l1.24.31,1.11-1.13.09-.08h0l1.48-.05,1.47-1.32-.02-.7v-.51l-.45-1.57h0l1.06-2.53,1.71-2.13.14-2.06.73-1.46.58-1.18.55-3.08h0l1.52.82,1.69.66,1.34-.75.35-1.34.65-1.84.55-1.31.25-.81h0l.86.42,1.21-1.94.94-1.26.71-.9.31-.44.68-1.08.13-2.96.05-.77h0l5.32,2.37.54.28.64-2.74h.29l1.29.14,1.52.79h0l-.35,1.22-.13.34,2.32.37,2.18,1.1h0l1.08,1,.05.76h0l.03,1.14-.32.38-1.14,1.19-.54,3.24,1.46.41,1.5-.88.77,1.38.26.33,7.72,2.76.91,3.84-1.13.81,2.14,5.44-1.97,1.63,1.2,2.37,2.25-1.3,3.16.61,1.75,3.92-1.07.23-9.9,2.13-11.08,2.32-20.92,3.72-17.94,2.25-4.09.86-1.27.25-15.8,1.68,3.05-1.16.46-.31.06-.03ZM570.53,235.97l-3.32,11.43-1.14-.65.8-5.62,1.08-2.41-.77-.35.07-.59h0l.96-1.11,2.34-.7h-.02ZM402.51,183.9l-.35-1.54-.25-3.23-.32-1.11-3.31-1.84-2.6-2.19-.68-1.4-1.11-.89-3.18-1.74-1.16-.08-2.83-2.51.16-2.99-.12-3.6.58-3.44-2-2.41,1.22-2.52,1.95-1.37,2.28-1.57.26.05-.38-7.54,2.37-.84,9.12-3.21,5.82,4.19.09.06.59-.28v.06l1.49.34.84,2.37,8.26,1.81,5.62,2,2.6-.14,1.83-.02.7,2.18,2.24.68,1.03,1.78-.51,1.16-.25,2.2,2.11-.06-.52,2.16,1.37,1.5h.09l.18.04-.08.13-3.27,5.15,1.46,1.5,6.16-9.29,1.4-.13-3.97,10.73-1.3,9.55-1.23,7.74,1.83,6.48v3.32h.01v.06l-7.57.5-10.21.68-10.03.62-1.12-2-3.25-1.08-.75-2.15-.42-1.17-.24-2.86.85-1.04-1.37-2.05-.13-.74h0ZM503.53,254.94l-1.97.04-1.31-1.52-1.8-1.51-.77-1.92-1.55-1.93-.3-2.8-.38-1.28,2.54-.68,1.07-2.05-.24-3,1-3.12,1.38.11.41,1.46.78-.62.18-1.36v-2.47l1.93-2.7,1.28.12,1.26-.58,1.13-.81,2.24-3.53-.03-1.39.47-3.06.56-3.64-.04-3.16-.74-1.59,1.28-.91,2.02,12.29,10.5-1.78,1.1,6.8,1.38-1.52,1.42-1.84,1.88-.85,1.15-1.67,3.01.02.94-1.19,1.77-1.42,3.3.52,1.57,1.61,1.18,1.56-.64,2.74-.54-.28-5.32-2.37h0l-.05.77-.13,2.96-.68,1.08-.31.44-.71.9-.94,1.26-1.21,1.94-.86-.42h0l-.25.81-.55,1.31-.65,1.84-.35,1.34-1.34.75-1.69-.66-1.52-.82h0l-.55,3.08-.58,1.18-.73,1.46-.14,2.06-1.71,2.13-1.06,2.53h0l.46,1.57v1.21l-1.47,1.32-1.48.05h0l-.09.08-1.11,1.13-1.24-.31-.02.51v.7l-.64.29-3.05,1.5-1.42-.79h0l-.9.58-2.15,1.53-1.81-.8-.23-.22-1.12-.85-.82-2.16h0ZM572.57,229.48l-6.71,1.48-4.41-16.74.52-1.2.79-.81,2.29.27-1.19,1.67.84,2.51.52,1.04-1.12-.65,4.55,6.89,2.04.77.46.28,1.4,4.5h.02ZM551.4,229.25h0l-.05-.76-1.08-1,.63-.77,1.59,1.08-1.08,1.43v.02ZM570.53,235.97h0l-2.34.7-.96,1.11h0l-1.61-1-2.02-3.86-1.42,1.71-.69-.43-.67-.82-1.04-3.05.1-.47-1.66-7.4-2.53.08,1.08,5.66-.09.98.51,1.05.17,1.31,1.76,2.77,1.48,2.83-7.19-.69-.26-.33-.77-1.38-1.5.88-1.46-.41.54-3.24,1.14-1.19.32-.38-.03-1.14,1.08-1.43-1.59-1.08-.63.77h0l-2.18-1.1-2.32-.37.13-.34.35-1.22h0l-1.52-.79-1.29-.13h-.29l-1.18-1.56-1.57-1.61-3.3-.52-1.77,1.42-.94,1.19-3.01-.02-1.15,1.67-1.88.85-1.42,1.84-1.38,1.52-1.1-6.8,9.36-1.69,3.18-.6,7.08-1.43,8.59-1.67,8.82-1.93,4.41,16.74,6.71-1.48.1.43v.06l-.03.27-2.11,5.73h0ZM564.71,216.66l-.84-2.51,1.19-1.67,1.77-1.67.55-1.02,1.93-2.23.96-1.76-3.9-2.71-.41-1.38-1.18-.12-.48-2.14.82-1.91-.93-1.59,1.29-1.51,1.06-3.32,1.04-.88,8.75,3.49.28,2.83-1.14,2.13-.91-.17.59.89-.71,1.52,1.63-.06,1.44,2.43v7.52l-4.15,10.02-1.28.42-.21-.08-.79-1.75-2.39-.17-3.99-2.58v-.02ZM576.86,178.36l1.88,10.16,1.09.96-1.87,1.8.74,1.49.19.4h0l-.47.43.96-.42.37.36,12.35-4.93,1.36-.35.99.46-6.77,5.26-4.24,2.4-.87.4-5.92,1.48-.02-1.73-.28-2.83-8.75-3.49-1.75-.56-1.84-.55-1.07-1.81-.04-1.46-1.44-.96-2.62-1.6-13.15,2.8-14.18,2.8-15.13,2.74-.63-3.63,6.19-8.51.25-.17v-.06l.43-.65-.41-1.26h0l-1.61-3.83,4.25-2.36,7.63-.94,8.02-.45,6.25-5.82-1.71-5.05-1.35-1.63,7.66-11.26,3.59-3.35,5.07-1.16,2.67-.56,6.33-1.58.37,2.66.07,1.78,1.2,3.81,1,1.87-.29,2.95,1.69,3.18-.14,2.09.29.44,1.33-.26,2.29,10.93.06,9.56h-.02ZM511.91,211.03l-2.94-17.9,6.69-5.12.09-.02.63,3.63,15.13-2.74,14.18-2.8,13.15-2.8,2.62,1.6,1.44.96.04,1.46,1.07,1.81,1.84.55,1.75.56-1.04.88-1.06,3.32-1.29,1.51.93,1.59-.82,1.91.48,2.14,1.18.12.41,1.38,3.9,2.71-.96,1.76-1.93,2.23-.55,1.02-1.77,1.67-2.29-.27-.79.81-.52,1.2-8.82,1.93-8.59,1.67-7.08,1.43-3.18.6-9.36,1.69-10.5,1.78-2.02-12.29-.02.02ZM600.28,157.97l-.68.25-.93-1.69-2.27-1.45v-1.42l-7.71-23.5.14-.17.65-.62,2.55-2.3.45-1.99,1.25-4.01-.13-.8-.1-10.64.05-.14,3.98-11.6,3.82,2.48.1.04.42-.38,4.51-3.34,5.13,2.25.1.03,1.17,3.52,3.05,10.26.79,2.87.12.09.22.71,3.79,2.53.61,1.96,4.27,1.6,1.39,1.78.97,1.32-.07.09-6.9,5.53-.71,2.56-2.34-.98-2.77,2.84-2.48-.24-2.62,7.57-1.43.22-1.95,2.95-.07.08-2.74-.13-1.44,1.83-2.19,10.04h0ZM435.73,159.95l-.18-.05h-.09l-1.37-1.49.52-2.16-2.11.06.25-2.2.51-1.16-1.03-1.78-2.24-.68-.7-2.18-1.83.02-2.6.14-5.62-2-8.26-1.81-.84-2.37-1.49-.34v-.06l-.59.28-.09-.06.09.06,6.9-3.84,7.03-4.84,7.7-5.01-2.3,7.25,5.34,1.22,6.97,4.52,7.84-3.77,8.92-2.16,2.31,3.47,2.89.22.44-1.36h0l-.44,1.36,2.53.13h0l5.3,4.7-8.04,2.18-.35-.02-7.4-.52-6.98,3.42-6.3,1.8-4.71,9.03h.02ZM480.6,201.26h0l-3.65.6-4.5.57-5.13.68-.12-1.06-9.26,1.17-10.67.97h0l1.84-2,3.36-7-.65-8.91-4.08-7.98-.12-5.68,1.9-6.82,1.81-4.75,3.42-3.62,1.38,4.41.92-6.79,1.93-1.6.71-5.2,8.29,1.68,7.53,4.28,1.61,5.99-.07,6.16-4.52,6.05.96,3.27,1.89-.12,5.17-6.66,3.72.8,2.8,7.53,1.24,5.43h0l-3.47,7.99-.38,1.25-1.21.61-.16,3.55-2.47,5.19h-.02ZM122.49,408.28l.17,1.37-1.65.73.36.73-.09.09-.7.51-.76-.15-.99,1.37-.02.02-.36-.22-.66-.61-.42-.74-.29-1.68.1-.2,1.17-.86.47.07.67-.87,1.2-.66.19.04,1.64,1.06h-.03ZM91.73,394.04l-.12,1.29-1.48.71-.71-.51-.63-.54-1.08-1.46,2.67-.28.81.35.53.45h.01ZM83.75,376.29l1.2-.16.49.59.07.2.97,1.06.83.31-.05.9-1.63.2-.36-.38-.79-1.3-.31-.21-.09-.18h-.2l-.63-.44-.66.28h-.1l-.56-.83.1-.29.63-.48.71.48.06.06h.04l.27.19h.01ZM160.07,396.07l.05-1.59,1.69-1.9,1.89,1.99,2.12,1.37,2.28,1.14.36.23,1.13,1.26,1.76,1.71,1.02,1.06,1.62,1.89,1.07.9.08.02.18.15,5.16,1.29v.02l-.09.78,1.07,2.43v.23l-.32,1.42-.26.44-1.68-.96-.26-.51-.64-.46-.74.52-1.26-.3-.86-1.52.56-1.87-1.24.64-.51-.88-.13-.09.11-.13-.58-.67-1.33-.75-.49-.73-1.48-.11-1.37-1.99-.14-.82-1.65-1.4-1.45-.22-1.82-1.28.82,1.67-1.13-.29-2.78,1.53-2.44-.97-2.28-1.71-2.58-.77-1.45-.6.66-.9-.77-.54-1.14.96-1.31.05-2.29-.67-1.66-.14-.28-.06-.08.04h-.2l-1.9.61-.71.22h-.35l-.44-.12-.51-.48-1.08-.07-.74-.47-1.5-.4.05-.95-1.77.1-.8-1.03-1.57-.23-1.46,1.39.06.19-.31.14.54,2.21-.11.78-1.17.62-1.82-.37-1.68,2.53-.53.44-.7.1-.55.59-1.49.63-.24.07-.17-1.13,1.1-.87-1.33-.82.08-.37,1.15-3.34.17-1.14.74-.56.96-.66,1.1.39.44-.46-.78-1.04h-1.26l-.07-.1-.1.09h-.02l-1.75,1.28-.74,1.23-.17.14-.2.44-.68,1.09-1.01.87-.21,1.42-2.06,2.07-.97.57-.05,1.66,1.14-.18.95.93-.58.85-1.15.9-.99,1.72-1.06.49-2.6,2.13-1.17.6-.05.17-.41.25.2.38-.32.95-.12.15-2.08.69-1.44,1.4-.4.19h-.63l-.98,1.27-.37,1.04-2.33.58-.57-.27-1.31.88h0l-2.59,1.07-.08.04-.69-.1-1.05.45-1.01.86h-.02l-2.3.16-.53-.89,1.94-.96.91-1.09,1.14-.8.48-.31h0l1.56-.09,1.26,1.33.6-.57-.22-.76.09-.14,1.43-1.74,1-.65,2.71-1.51,1.3-1.7,1.47-1.07.53-3.31.25-.82.28-.49.74-.79-.21-.27.3-.62-2.82,1.24-.74-1.12-.87.53.14.53-.72.82h-.02l-.08-.14-1.08-2.36-.17.12-.06-.11-.11.21-.51.35-.65-.56-.22-.79-.41.25h-.02l-2.52,1.33-.67-.08.07-1.75-.4-1.12.03-.04.85-1.15-1.09-3.12-.72.83-.02.02-2.77.41-.13-.04-1.58-2.43-.04-.05-.05-.1-1.22-1.55,1.27-1.02-.12-1.08-.77-.37-.38-.49-.62-1.04-.21-.72,1.23-2.43,1.63-1.69.76-.29.12-1,.56-1.1.37-.43,1.32-.06,1.03.96.38-.17.18.13.41-.41.55-.28.82-.99,1.25.06.41.16.19-.15.62.03.92-1.15h0v-.02l-.14-1.94-.02-.22-.05-.05-.44-.72,1.02-1.05-.19-.48.29-.3-.41-.04-.27-.66-2.25,1.03-.34.29-.2.06-.25.32-.11.12-1.81-.73h-.02l-.09-.04-1.41-.19-1.54.23-2.27-1.37-.5-2.24.82-.77-1.63-.76-.79-.67-.38-.66.24-.44,1.61-.73,1.34-.58,3.72-1.23.61-.17.22.04,1,.28-.66,1.67.31.35-.04.15h.21l.11.13,1.72.15,1.54.43.33-.4h.12l-.04-.08.47-.53.73-.22-1.23-1.99.3-1.53h-1.54l-1.89-.91-.06-1.23-.37-1.06-1.78-2.21-.05-.03-.04-.07-.72-.63-1.19-1.1.54-.33.6-1.53,3.06-.13.02-.02h.34s1.28-.75,1.28-.75l.77-.95v-.04l.04-.02.7-2.17v-.02l1.67-1.7.31-.22.92.26,1.64-.88.72-.7.73-.41.77.17,1.26-.21.12.03.09-.06.36-.06.7-.51,1.39-1.66,1.59,1.34.69-.35h.03l1.12,2.09.57-.72.64-.11,1.38.11.62.33-.07.81,1.03.74,1.03.11,2.43-.63,1.44.51,1.38.5,1.05.24.76-.1,1.29.02,1.46.35.3.09.04-.03.35.08,1.51-1,.36-.04,2.45.88h.06l1.15.51.71.08,8.5,42.97,1.16.19,1.3-.45,2.34.73,2.07,1.62,2.8,2.52.46-.91,1.28-.85.03-.04ZM171.78,403.87l1.42.95-.07.09-2.13-1.27.77.23h.01ZM165.33,399.43l.28-.33,1.07.13-1.35.22v-.02h0ZM163.04,399.59l.38.16.33.07-1.38.34.67-.57ZM93.16,419.12l.2.93.44.83-1.64.03-2.86.56-.12-.37-.06-.41,3.11-1.62.93.05h0Z"/>
      <g>
        <path class="st6" d="M572.57,229.48l-6.71,1.48-4.41-16.74.52-1.2.79-.81,2.29.27-1.19,1.67.84,2.51.52,1.04-1.12-.65,4.55,6.89,2.04.77.46.28,1.4,4.5h.02Z"/>
        <path class="st3" d="M600.28,157.97l-.68.25-.93-1.69-2.27-1.45v-1.42l-7.71-23.5.14-.17.65-.62,2.55-2.3.45-1.99,1.25-4.01-.13-.8-.1-10.64.05-.14,3.98-11.6,3.82,2.48.1.04.42-.38,4.51-3.34,5.13,2.25.1.03,1.17,3.52,3.05,10.26.79,2.87.12.09.22.71,3.79,2.53.61,1.96,4.27,1.6,1.39,1.78.97,1.32-.07.09-6.9,5.53-.71,2.56-2.34-.98-2.77,2.84-2.48-.24-2.62,7.57-1.43.22-1.95,2.95-.07.08-2.74-.13-1.44,1.83-2.19,10.04h0Z"/>
        <path class="st8" d="M292.12,271.11l1.26-19.82,1.23-20.88h0l17.78.97,13.25.51,23.48.46h14.02l2.38,1.8h1.33l.4,1.92-1.5,2.52.87,1.31,1.27,2.8,2.7,1.28.11,14.47.11,14.54-9.28.09-19.14-.08-19.14-.38-10.55-.4-10.65-.52-9.95-.58h.02Z"/>
        <path class="st4" d="M149.58,182.39l29.01,6.11-12.68,66.55-1.96,10.72-.57.34-1.08,1.9-1.38-.78-1.77-1.37-2.25-.45-1.02,1.52.52,2.02-.56,2.82-.32,2.62.08,2.7-1.22,2.5-14.29-20.56-14.61-21.69-14.71-22.49,10.24-39.3,28.56,6.83h.01Z"/>
        <path class="st13" d="M170.19,90.77l-3.72,16.54-3.84,18.25.4,2.18-.6,2.28-18.79-4.29-3.53.53-2.22-1.14-2.03.57-3.74.57-4-1.24-2.39.52-1.98-.02-1.24-1.11-3.13-1.44-2.13-.14-3.91.38-2.18-.62-1.96-1.08-.15-1.98.37-2.22-.94-2.98-2.37-1.47-1.8-1.83-2.71-.88-1.99-.6.13-.41.13-.74,1.66-4.28,2.05-2.93-2.34-1.42.47-9.66-.66-6.71,1.48-1.66,5.7,4.31,2.75,1.08,3.1,2.26.92,10.79-1.78,1.54,1.31.7.63-.33.06.72,2.39-2.14.84-.47.04-.76.47-3.2,2.71-4.61-.43-6.13.8-1.88-1.96-4.91-.06-.08.7-.63,23.74,6.5,25.78,6.22-.05.05ZM120.48,92.04l-.8-1.19.23-1.72.05-.5.51,3.41h0Z"/>
        <path class="st12" d="M281.88,270.41l10.24.7,9.95.58,10.65.52,10.55.4,19.14.38,19.14.08,9.28-.09h.1v6.2l2.32,14.31v13.14l-.1,11.88-4.88-2.62-3.1-1.41-2.46.96-3.91-.11h-2.36l-1.85,1.13-1.85.56-1.64-.69-3.71.73-1.63-2.27-1.77,1.92-2.97-.91-3.05-2.17-3.42,1.31-1.37-3.28-5.13.19-3.26-.84-3.65-1.05-1.54-2.87-2.89.77-1.8-1.13-2.49-1.6.54-12.88.56-13.26-10.72-.51-10.71-.62-10.61-.73.39-6.69v-.03Z"/>
        <path class="st10" d="M393.05,141.13l-2.37.84.38,7.54-.26-.05-2.28,1.57-1.95,1.37-1.22,2.52,2,2.41-.58,3.44.12,3.6-.16,2.99,2.83,2.51,1.16.08,3.18,1.74,1.11.89.68,1.4,2.6,2.19,3.31,1.84.32,1.11.25,3.23.35,1.54-12.79.3-14.13.47-13.15.37h-10.63l.24-12.57-1.08-12.93-1.66-1-.94-2.12.54-1.79,2.1-1.47.19-1.98v-2.42l-.58-2.05-.76-2.17-.41-2.72-.06-3.03-.34-.74-.31-3.89-.07-1.85-.16-1.54-.4-2.71-1.07-2.78-1.07-2.41-.14-2.46-.05-2.58.35-1.71.02-1.53-.81-1.91-.07-1.29,18.48.04.2-4.9,2.48.59,1.9,6.28v.12h0l.52,1.59,2,.34.34.24,2.84.31.33.05,1.53,1.26,2.49-.74,8.32,1.65,1.02.45,1.82,1.59,3.98.82.34.17,2.77,1.78,2.34-.42,3.75-2.29,1.78,1.69,4.28-.31,3.2,1.28,1.93-.19-8.75,4.86-6.16,5.64-5.97,5.9v1.98-.03Z"/>
        <path class="st15" d="M178.77,92.65l-2.26,13.77,1.66,4-.48,2.29,1.22,2.46,1.74,1.68,1.09,2.3,1.69,4.57,1.98,2.35,2.68.65-1.5,2.73-1.61,3.28.1,3.55-1.19.65-.57,3.36,1.37,1.66,2.11-1.23,1.29-1.65,1.05.52.77,2.04.32,4.42,1.33,1.96-.12,3.52.43,1.09,1.86.66.78,2.16,1.04,3.73,2.08-1.53,2.97,1.03.49-1.24,5.2,1.71,2.26-.07,1.74-2.42.99.54.58,1.98.93.91.31.3-5.29,33.13-29.22-5.01-29.01-6.11,5.5-23.64,1.63-3.59-.4-1.88-1.55-1.24.57-2.1,1.97-2.68,2.57-2.16,2.23-3.96,2.03-3.11,1.31-1.49-.07-2.11-1.3-1.37-1.64-3.03.6-2.28-.4-2.18,3.84-18.25,3.72-16.54,8.58,1.88h0Z"/>
        <path class="st2" d="M212.78,160.08l.24-.4.99-6.77,18.48,2.63,14.64,2.1,16.9,1.78,15.76,1.67-2.06,27.38-2.28,26.9-9.95-.9-20.06-2.07-10.01-1.22-10-1.33-19.8-3.33,2.17-13.01,5.29-33.13-.31-.3Z"/>
        <path class="st5" d="M471.32,237.74l-1.1-9.33-1.46-13.13-1.44-12.17,5.13-.68,4.5-.57,3.65-.6h0l6.44,1.96,5.06-.02,6.89-2.86,5.27-4.62,4.72-2.6,2.94,17.9-1.28.91.74,1.59.04,3.16-.56,3.64-.47,3.06.03,1.39-2.24,3.53-1.13.81-1.26.58-1.28-.12-1.91,2.7v2.47l-.2,1.36-.78.62-.41-1.46-1.38-.11-1,3.12.24,3-1.07,2.05-2.54.68-2.09-.97-1.03-1.82-1.97.53-2.1,1.04-1.93-.56-2.34.69-1.76-.85-2.32-.65-3.05-2.71-1.97-1.08-3.56.11h-.02Z"/>
        <path class="st14" d="M599.73,161.16l-1.21.07-1.69,1.42-.72,1.55-11.49,2.86-1.04-1.15.28-1.87-.61-3.51.06-.85-.45-3.23.38-2.86.4-1.32.34-3.37-.28-2.18-.07-1.33,1.65-1.07,1.67-2.04-.08-1.71-1.17-1.68.18-3.84h0l.03-.91,2.77-3.95,7.71,23.5v1.42l2.27,1.45.93,1.69.68-.25-.62,2.56.11.42-.04.2v-.02Z"/>
        <path class="st9" d="M162.43,130.02l1.64,3.03,1.3,1.37.07,2.11-1.31,1.49-2.03,3.11-2.23,3.96-2.57,2.16-1.97,2.68-.57,2.1,1.55,1.24.4,1.88-1.63,3.59-5.5,23.64h0l-28.56-6.83-40.21-11.4.02-8.49.11-2.51,7.31-10.87,9.3-22.71,2.03-10,1.99.6,2.71.88,1.8,1.83,2.37,1.47.94,2.98-.37,2.22.15,1.98,1.96,1.08,2.18.62,3.91-.38,2.13.14,3.13,1.44,1.24,1.11,1.98.02,2.39-.52,4,1.24,3.74-.57,2.03-.57,2.22,1.14,3.53-.53,18.79,4.29.03-.02Z"/>
        <path class="st7" d="M178.77,92.65l17.71,3.59,43.86,5.8,43.79,6.31-1.9,24.28-.95,16.24-1.48,12.2-15.76-1.67-16.9-1.78-14.64-2.1-18.48-2.63-.99,6.77-.24.4-.93-.91-.58-1.98-.99-.54-1.74,2.42-2.26.07-5.2-1.71-.49,1.24-2.97-1.03-2.08,1.53-1.04-3.73-.78-2.16-1.86-.66-.43-1.09.12-3.52-1.33-1.96-.32-4.42-.77-2.04-1.05-.52-1.29,1.65-2.11,1.23-1.37-1.66.57-3.36,1.19-.65-.1-3.55,1.61-3.28,1.5-2.73-2.68-.65-1.98-2.35-1.69-4.57-1.09-2.3-1.74-1.68-1.22-2.46.48-2.29-1.66-4,2.26-13.77v.02Z"/>
        <path class="st16" d="M218.1,263.59l-10.47,75.78-13.04-1.82-9.44-1.46-23.82-13.7-14.13-8.8.21-3.2-.1-.02h0l1.52.37,1.66-2.47-1.59-2.16.1-2.08-.15-2.45,2.74-2.64,2.11-5.89,3.74-2.07-1.5-2.97-.91-2.79-.45-2.45-.23-1.96.03-1.21,1.22-2.5-.08-2.7.32-2.62.56-2.82-.52-2.02,1.02-1.52,2.25.45,1.77,1.37,1.38.78,1.08-1.9.57-.34,1.96-10.72,16.83,2.89,20.16,3.31,15.21,2.35v-.02Z"/>
        <path class="st11" d="M503.53,254.94l-1.97.04-1.31-1.52-1.8-1.51-.77-1.92-1.55-1.93-.3-2.8-.38-1.28,2.54-.68,1.07-2.05-.24-3,1-3.12,1.38.11.41,1.46.78-.62.18-1.36v-2.47l1.93-2.7,1.28.12,1.26-.58,1.13-.81,2.24-3.53-.03-1.39.47-3.06.56-3.64-.04-3.16-.74-1.59,1.28-.91,2.02,12.29,10.5-1.78,1.1,6.8,1.38-1.52,1.42-1.84,1.88-.85,1.15-1.67,3.01.02.94-1.19,1.77-1.42,3.3.52,1.57,1.61,1.18,1.56-.64,2.74-.54-.28-5.32-2.37h0l-.05.77-.13,2.96-.68,1.08-.31.44-.71.9-.94,1.26-1.21,1.94-.86-.42h0l-.25.81-.55,1.31-.65,1.84-.35,1.34-1.34.75-1.69-.66-1.52-.82h0l-.55,3.08-.58,1.18-.73,1.46-.14,2.06-1.71,2.13-1.06,2.53h0l.46,1.57v1.21l-1.47,1.32-1.48.05h0l-.09.08-1.11,1.13-1.24-.31-.02.51v.7l-.64.29-3.05,1.5-1.42-.79h0l-.9.58-2.15,1.53-1.81-.8-.23-.22-1.12-.85-.82-2.16h0Z"/>
      </g>
      <path class="st18" d="M518.36,171.38l4.44-3.28,14.91-2.94,4.01-3.68,1.16-3.67.57-.76.1.04,1.47,1.79,1.71,5.05-6.25,5.82-8.02.45-7.63.94-4.67,2.57-.59.3-1.21-2.63h0ZM522.61,178.6l-.44.65-.84-1.56.86-.35.41,1.26h.01ZM521.94,179.48l-6.28,8.53-6.69,5.12-4.72,2.6-5.27,4.62-6.89,2.86-5.06.02-6.44-1.96,2.47-5.19.02.12,1.34,2.34,4.18,1.88,2.73-.52,10.06-8.65,8.9-3.53,3.72-2.15,7.91-6.08h.02ZM461.67,139.23l-2.89-.22-2.31-3.47-8.92,2.16-7.84,3.77-6.97-4.52-5.34-1.22,2.3-7.25-7.7,5.01-7.03,4.84-6.9,3.84-5.91-4.25-9.12,3.21v-1.98l5.97-5.9,6.16-5.64,8.75-4.86,3.43-.36,4.88-3.45,2.69-1.08,16.77,7.76,16.96,7.9.87,2.26,2.7,1.54-.55,1.87v.04ZM540,395.81l-2.84.02-.29-3.26h2.72l.41,3.24h0ZM195.12,200.47v2.73l-.94,3.84-4.41-4.58-.19-.54-.55-6.45,2.38,3.03,1.59,1.68,2.04-.92.07,1.22h.01ZM459.69,148.25l1.42-2.04.35.02,8.04-2.18-5.3-4.7.45-.62,1.41.88,3.43,3,3.73,1.14,2.31,4.13,7.45,3.41,7.06,22.73-.98,5.12-.37,3.14-.4.37-1.24-5.43-2.8-7.53-3.72-.8-5.17,6.66-1.89.12-.96-3.27,4.52-6.05.07-6.16-1.61-5.99-7.53-4.28-8.29-1.68h.02ZM461.11,146.21l-1.42,2.04-.71,5.2-1.93,1.6-.92,6.79-1.38-4.41-3.42,3.62-1.81,4.75-1.9,6.82.12,5.68,4.08,7.98.65,8.91-3.36,7-1.84,2-2.53,1.75-3.31.37-1-.79-3.28-6.86-.39-3.48-.02-3.38-1.83-6.48,1.23-7.74,1.3-9.55,3.97-10.73-1.4.13-6.16,9.29-1.46-1.5,3.27-5.15,4.79-9.16,6.3-1.8,6.98-3.42,7.4.52h-.02Z"/>
    </g>
  </g>
  <g id="annotations">
    <polygon class="st17" points="551.74 236.16 546.09 240.26 548.25 233.62 542.6 229.52 549.59 229.52 551.74 222.88 553.9 229.52 560.9 229.52 555.25 233.62 557.39 240.26 551.74 236.16"/>
  </g>
</svg>